<?xml version="1.0" encoding="utf-8"?>
<!-- Generator: Adobe Illustrator 25.4.1, SVG Export Plug-In . SVG Version: 6.00 Build 0)  -->
<svg version="1.1" xmlns="http://www.w3.org/2000/svg" xmlns:xlink="http://www.w3.org/1999/xlink" x="0px" y="0px"
	 viewBox="0 0 96 128" enable-background="new 0 0 96 128" xml:space="preserve">
<g id="Layer_1">
</g>
<g id="Layer_2" display="none">
	<g display="inline">
		<path d="M88.1,27.7c-0.6-0.1-1.2-0.2-1.8-0.2c0.5-0.3,1-0.6,1.5-1c4.4-3.5,5.1-9.8,1.6-14.2c-3.5-4.4-9.8-5.1-14.2-1.6
			c-0.5,0.4-0.9,0.8-1.3,1.3c0.1-0.6,0.2-1.2,0.2-1.8C74.1,4.5,69.6,0,64,0c-5.6,0-10.1,4.5-10.1,10.1c0,0.6,0.1,1.2,0.2,1.8
			c-0.4-0.5-0.8-0.9-1.3-1.3C48.4,7.2,42,7.9,38.5,12.3c-3.5,4.4-2.8,10.7,1.6,14.2c0.5,0.4,1,0.7,1.5,1c-0.6,0-1.2,0.1-1.8,0.2
			c-5.4,1.2-8.8,6.7-7.6,12.1c1.2,5.4,6.7,8.8,12.1,7.6c0.6-0.1,1.2-0.3,1.7-0.6c-0.4,0.5-0.7,1-0.9,1.6c-2.4,5-0.3,11.1,4.7,13.5
			c5,2.4,11.1,0.3,13.5-4.7c0.3-0.6,0.5-1.1,0.6-1.7c0.2,0.6,0.4,1.2,0.6,1.7c2.4,5,8.5,7.1,13.5,4.7c5-2.4,7.1-8.5,4.7-13.5
			c-0.3-0.6-0.6-1.1-0.9-1.6c0.6,0.2,1.1,0.4,1.7,0.6c5.4,1.2,10.9-2.2,12.1-7.6C97,34.4,93.6,28.9,88.1,27.7z"/>
		<rect x="63.5" y="55" width="1" height="73"/>
		<path d="M40,62c0,13.3,10.7,24,24,24C64,72.7,53.3,62,40,62z"/>
		<path d="M88,62c0,13.3-10.7,24-24,24C64,72.7,74.7,62,88,62z"/>
	</g>
	<g display="inline">
		<path d="M31.7,11.4c-1.1-3.3-4.6-5.1-8-4.1c-0.6,0.2-1.2,0.5-1.7,0.8c0.2-0.6,0.3-1.2,0.3-1.9C22.3,2.8,19.5,0,16,0
			c-3.5,0-6.3,2.8-6.3,6.3C9.7,7,9.8,7.6,10,8.2C9.5,7.8,8.9,7.5,8.3,7.3c-3.3-1.1-6.9,0.7-8,4.1c-1.1,3.3,0.7,6.9,4.1,8
			c0.6,0.2,1.2,0.3,1.9,0.3C5.7,20,5.3,20.5,4.9,21c-2.1,2.8-1.4,6.8,1.4,8.8s6.8,1.4,8.8-1.4c0.4-0.5,0.7-1.1,0.9-1.7
			c0.2,0.6,0.5,1.1,0.9,1.7c2.1,2.8,6,3.4,8.8,1.4s3.4-6,1.4-8.8c-0.4-0.5-0.8-1-1.3-1.3c0.6,0,1.2-0.1,1.9-0.3
			C31,18.3,32.8,14.7,31.7,11.4z"/>
		<path d="M4,32c0,6.6,5.4,12,12,12C16,37.4,10.6,32,4,32z"/>
		<path d="M28,32c0,6.6-5.4,12-12,12C16,37.4,21.4,32,28,32z"/>
		<path d="M8,80c0,4.4,3.6,8,8,8C16,83.6,12.4,80,8,80z"/>
		<path d="M24,68c0,4.4-3.6,8-8,8C16,71.6,19.6,68,24,68z"/>
		<path d="M24,104c0,4.4-3.6,8-8,8C16,107.6,19.6,104,24,104z"/>
		<rect x="15.5" y="26.7" width="1" height="101.3"/>
	</g>
	<g display="inline">
		<path d="M44,92l-4-4l-4,4l-4-4v8c0,4.4,3.6,8,8,8s8-3.6,8-8v-8L44,92z"/>
		<rect x="39.4" y="92" width="1.1" height="36"/>
		<path d="M32,104c0,4.4,3.6,8,8,8C40,107.6,36.4,104,32,104z"/>
		<path d="M48,104c0,4.4-3.6,8-8,8C40,107.6,43.6,104,48,104z"/>
	</g>
	<g display="inline">
		<path d="M92,92l-4-4l-4,4l-4-4v8c0,4.4,3.6,8,8,8s8-3.6,8-8v-8L92,92z"/>
		<rect x="87.4" y="92" width="1.1" height="36"/>
		<path d="M80,104c0,4.4,3.6,8,8,8C88,107.6,84.4,104,80,104z"/>
		<path d="M96,104c0,4.4-3.6,8-8,8C88,107.6,91.6,104,96,104z"/>
	</g>
</g>
<g id="Layer_4">
</g>
<g id="Layer_3">
	<g>
		<path fill="#7C3E52" d="M88,62c-11.6,0-21.2,8.2-23.5,19.1V56.9c0,0.1,0.1,0.2,0.1,0.3c2.4,5,8.5,7.1,13.5,4.7
			c5-2.4,7.1-8.5,4.7-13.5c-0.3-0.6-0.6-1.1-0.9-1.6c0.6,0.2,1.1,0.4,1.7,0.6c5.4,1.2,10.9-2.2,12.1-7.6c1.2-5.4-2.2-10.9-7.6-12.1
			c-0.6-0.1-1.2-0.2-1.8-0.2c0.5-0.3,1-0.6,1.5-1c4.4-3.5,5.1-9.8,1.6-14.2s-9.8-5.1-14.2-1.6c-0.5,0.4-0.9,0.8-1.3,1.3
			c0.1-0.6,0.2-1.2,0.2-1.8C74.1,4.5,69.6,0,64,0c-5.6,0-10.1,4.5-10.1,10.1c0,0.6,0.1,1.2,0.2,1.8c-0.4-0.5-0.8-0.9-1.3-1.3
			C48.4,7.2,42,7.9,38.5,12.3S35.8,23,40.1,26.5c0.5,0.4,1,0.7,1.5,1c-0.6,0-1.2,0.1-1.8,0.2c-5.4,1.2-8.8,6.7-7.6,12.1
			s6.7,8.8,12.1,7.6c0.6-0.1,1.2-0.3,1.7-0.6c-0.4,0.5-0.7,1-0.9,1.6c-2.4,5-0.3,11.1,4.7,13.5c5,2.4,11.1,0.3,13.5-4.7
			c0-0.1,0.1-0.2,0.1-0.3v24.2C61.2,70.2,51.6,62,40,62c0,13.1,10.5,23.7,23.5,24v42h1V86C77.5,85.7,88,75.1,88,62z"/>
		<path fill="#7C3E52" d="M23.7,7.3c-0.6,0.2-1.2,0.5-1.7,0.8c0.2-0.6,0.3-1.2,0.3-1.9C22.3,2.8,19.5,0,16,0S9.7,2.8,9.7,6.3
			C9.7,7,9.8,7.6,10,8.2C9.5,7.8,8.9,7.5,8.3,7.3c-3.3-1.1-6.9,0.7-8,4.1c-1.1,3.3,0.7,6.9,4.1,8c0.6,0.2,1.2,0.3,1.9,0.3
			C5.7,20,5.3,20.5,4.9,21c-2.1,2.8-1.4,6.8,1.4,8.8c2.8,2.1,6.8,1.4,8.8-1.4c0.1-0.2,0.3-0.4,0.4-0.6v12.7C14,35.6,9.4,32,4,32
			c0,6.5,5.1,11.7,11.5,12v41.3C14.4,82.2,11.4,80,8,80c0,4.2,3.3,7.7,7.5,8v40h1v-16c4.2-0.3,7.5-3.7,7.5-8c-3.4,0-6.4,2.2-7.5,5.2
			V76c4.2-0.3,7.5-3.7,7.5-8c-3.4,0-6.4,2.2-7.5,5.2V44C22.9,43.7,28,38.5,28,32c-5.4,0-10,3.6-11.5,8.6V27.8
			c0.1,0.2,0.2,0.4,0.4,0.6c2.1,2.8,6,3.4,8.8,1.4c2.8-2.1,3.4-6,1.4-8.8c-0.4-0.5-0.8-1-1.3-1.3c0.6,0,1.2-0.1,1.9-0.3
			c3.3-1.1,5.1-4.6,4.1-8C30.6,8.1,27,6.3,23.7,7.3z"/>
		<path fill="#7C3E52" d="M40,88l-4,4l-4-4v8c0,4.2,3.3,7.7,7.4,8v5.1c-1.2-3-4.1-5.1-7.4-5.1c0,4.2,3.3,7.7,7.4,8v16h1.1v-16
			c4.2-0.3,7.4-3.7,7.4-8c-3.4,0-6.3,2.1-7.4,5.1V104c4.2-0.3,7.4-3.7,7.4-8v-8l-4,4L40,88z"/>
		<path fill="#7C3E52" d="M96,96v-8l-4,4l-4-4l-4,4l-4-4v8c0,4.2,3.3,7.7,7.4,8v5.1c-1.2-3-4.1-5.1-7.4-5.1c0,4.2,3.3,7.7,7.4,8v16
			h1.1v-16c4.2-0.3,7.4-3.7,7.4-8c-3.4,0-6.3,2.1-7.4,5.1V104C92.7,103.7,96,100.2,96,96z"/>
	</g>
</g>
</svg>
