<?xml version="1.0" encoding="utf-8"?>
<!-- Generator: Adobe Illustrator 25.4.1, SVG Export Plug-In . SVG Version: 6.00 Build 0)  -->
<svg version="1.1" id="Layer_1" xmlns="http://www.w3.org/2000/svg" xmlns:xlink="http://www.w3.org/1999/xlink" x="0px" y="0px"
	 viewBox="0 0 48 48" enable-background="new 0 0 48 48" xml:space="preserve">
<g>
	<g>
		<path d="M15.1,6.1c-0.5-1.5-2.1-2.3-3.6-1.8c-0.3,0.1-0.5,0.2-0.8,0.4c0.1-0.3,0.1-0.5,0.1-0.8C10.8,2.3,9.6,1,8,1
			C6.4,1,5.2,2.3,5.2,3.8c0,0.3,0,0.6,0.1,0.8C5,4.5,4.8,4.4,4.5,4.3C3,3.8,1.4,4.6,0.9,6.1C0.4,7.6,1.3,9.2,2.8,9.7
			C3,9.8,3.3,9.9,3.6,9.9C3.4,10,3.2,10.2,3,10.5c-0.9,1.3-0.6,3.1,0.6,4s3.1,0.6,4-0.6c0.2-0.2,0.3-0.5,0.4-0.8
			c0.1,0.3,0.2,0.5,0.4,0.8c0.9,1.3,2.7,1.6,4,0.6s1.6-2.7,0.6-4c-0.2-0.2-0.4-0.4-0.6-0.6c0.3,0,0.6,0,0.8-0.1
			C14.7,9.2,15.6,7.6,15.1,6.1z"/>
		<rect fill="none" width="16" height="16"/>
	</g>
	<g>
		<path d="M15.1,22.1c-0.5-1.5-2.1-2.3-3.6-1.8c-0.3,0.1-0.5,0.2-0.8,0.4c0.1-0.3,0.1-0.5,0.1-0.8c0-1.6-1.3-2.8-2.8-2.8
			c-1.6,0-2.8,1.3-2.8,2.8c0,0.3,0,0.6,0.1,0.8c-0.2-0.2-0.5-0.3-0.8-0.4c-1.5-0.5-3.1,0.3-3.6,1.8c-0.5,1.5,0.3,3.1,1.8,3.6
			c0.3,0.1,0.6,0.1,0.8,0.1C3.4,26,3.2,26.2,3,26.5c-0.9,1.3-0.6,3.1,0.6,4s3.1,0.6,4-0.6c0.2-0.2,0.3-0.5,0.4-0.8
			c0.1,0.3,0.2,0.5,0.4,0.8c0.9,1.3,2.7,1.6,4,0.6s1.6-2.7,0.6-4c-0.2-0.2-0.4-0.4-0.6-0.6c0.3,0,0.6,0,0.8-0.1
			C14.7,25.2,15.6,23.6,15.1,22.1z"/>
		<rect y="16" fill="none" width="16" height="16"/>
	</g>
	<g>
		<path d="M47.1,22.1c-0.5-1.5-2.1-2.3-3.6-1.8c-0.3,0.1-0.5,0.2-0.8,0.4c0.1-0.3,0.1-0.5,0.1-0.8c0-1.6-1.3-2.8-2.8-2.8
			c-1.6,0-2.8,1.3-2.8,2.8c0,0.3,0,0.6,0.1,0.8c-0.2-0.2-0.5-0.3-0.8-0.4c-1.5-0.5-3.1,0.3-3.6,1.8c-0.5,1.5,0.3,3.1,1.8,3.6
			c0.3,0.1,0.6,0.1,0.8,0.1c-0.2,0.2-0.4,0.4-0.6,0.6c-0.9,1.3-0.6,3.1,0.6,4c1.3,0.9,3.1,0.6,4-0.6c0.2-0.2,0.3-0.5,0.4-0.8
			c0.1,0.3,0.2,0.5,0.4,0.8c0.9,1.3,2.7,1.6,4,0.6c1.3-0.9,1.6-2.7,0.6-4c-0.2-0.2-0.4-0.4-0.6-0.6c0.3,0,0.6,0,0.8-0.1
			C46.7,25.2,47.6,23.6,47.1,22.1z"/>
		<rect x="32" y="16" fill="none" width="16" height="16"/>
	</g>
	<g>
		<path d="M31.1,6.1c-0.5-1.5-2.1-2.3-3.6-1.8c-0.3,0.1-0.5,0.2-0.8,0.4c0.1-0.3,0.1-0.5,0.1-0.8C26.8,2.3,25.6,1,24,1
			c-1.6,0-2.8,1.3-2.8,2.8c0,0.3,0,0.6,0.1,0.8c-0.2-0.2-0.5-0.3-0.8-0.4c-1.5-0.5-3.1,0.3-3.6,1.8c-0.5,1.5,0.3,3.1,1.8,3.6
			c0.3,0.1,0.6,0.1,0.8,0.1c-0.2,0.2-0.4,0.4-0.6,0.6c-0.9,1.3-0.6,3.1,0.6,4c1.3,0.9,3.1,0.6,4-0.6c0.2-0.2,0.3-0.5,0.4-0.8
			c0.1,0.3,0.2,0.5,0.4,0.8c0.9,1.3,2.7,1.6,4,0.6c1.3-0.9,1.6-2.7,0.6-4c-0.2-0.2-0.4-0.4-0.6-0.6c0.3,0,0.6,0,0.8-0.1
			C30.7,9.2,31.6,7.6,31.1,6.1z"/>
		<rect x="16" fill="none" width="16" height="16"/>
	</g>
	<g>
		<path d="M47.1,6.1c-0.5-1.5-2.1-2.3-3.6-1.8c-0.3,0.1-0.5,0.2-0.8,0.4c0.1-0.3,0.1-0.5,0.1-0.8C42.8,2.3,41.6,1,40,1
			c-1.6,0-2.8,1.3-2.8,2.8c0,0.3,0,0.6,0.1,0.8c-0.2-0.2-0.5-0.3-0.8-0.4c-1.5-0.5-3.1,0.3-3.6,1.8c-0.5,1.5,0.3,3.1,1.8,3.6
			c0.3,0.1,0.6,0.1,0.8,0.1c-0.2,0.2-0.4,0.4-0.6,0.6c-0.9,1.3-0.6,3.1,0.6,4c1.3,0.9,3.1,0.6,4-0.6c0.2-0.2,0.3-0.5,0.4-0.8
			c0.1,0.3,0.2,0.5,0.4,0.8c0.9,1.3,2.7,1.6,4,0.6c1.3-0.9,1.6-2.7,0.6-4c-0.2-0.2-0.4-0.4-0.6-0.6c0.3,0,0.6,0,0.8-0.1
			C46.7,9.2,47.6,7.6,47.1,6.1z"/>
		<rect x="32" fill="none" width="16" height="16"/>
	</g>
	<g>
		<path d="M15.1,38.1c-0.5-1.5-2.1-2.3-3.6-1.8c-0.3,0.1-0.5,0.2-0.8,0.4c0.1-0.3,0.1-0.5,0.1-0.8c0-1.6-1.3-2.8-2.8-2.8
			c-1.6,0-2.8,1.3-2.8,2.8c0,0.3,0,0.6,0.1,0.8c-0.2-0.2-0.5-0.3-0.8-0.4c-1.5-0.5-3.1,0.3-3.6,1.8c-0.5,1.5,0.3,3.1,1.8,3.6
			c0.3,0.1,0.6,0.1,0.8,0.1C3.4,42,3.2,42.2,3,42.5c-0.9,1.3-0.6,3.1,0.6,4c1.3,0.9,3.1,0.6,4-0.6c0.2-0.2,0.3-0.5,0.4-0.8
			c0.1,0.3,0.2,0.5,0.4,0.8c0.9,1.3,2.7,1.6,4,0.6c1.3-0.9,1.6-2.7,0.6-4c-0.2-0.2-0.4-0.4-0.6-0.6c0.3,0,0.6,0,0.8-0.1
			C14.7,41.2,15.6,39.6,15.1,38.1z"/>
		<rect y="32" fill="none" width="16" height="16"/>
	</g>
	<g>
		<path d="M31.1,38.1c-0.5-1.5-2.1-2.3-3.6-1.8c-0.3,0.1-0.5,0.2-0.8,0.4c0.1-0.3,0.1-0.5,0.1-0.8c0-1.6-1.3-2.8-2.8-2.8
			c-1.6,0-2.8,1.3-2.8,2.8c0,0.3,0,0.6,0.1,0.8c-0.2-0.2-0.5-0.3-0.8-0.4c-1.5-0.5-3.1,0.3-3.6,1.8c-0.5,1.5,0.3,3.1,1.8,3.6
			c0.3,0.1,0.6,0.1,0.8,0.1c-0.2,0.2-0.4,0.4-0.6,0.6c-0.9,1.3-0.6,3.1,0.6,4c1.3,0.9,3.1,0.6,4-0.6c0.2-0.2,0.3-0.5,0.4-0.8
			c0.1,0.3,0.2,0.5,0.4,0.8c0.9,1.3,2.7,1.6,4,0.6c1.3-0.9,1.6-2.7,0.6-4c-0.2-0.2-0.4-0.4-0.6-0.6c0.3,0,0.6,0,0.8-0.1
			C30.7,41.2,31.6,39.6,31.1,38.1z"/>
		<rect x="16" y="32" fill="none" width="16" height="16"/>
	</g>
	<g>
		<path d="M47.1,38.1c-0.5-1.5-2.1-2.3-3.6-1.8c-0.3,0.1-0.5,0.2-0.8,0.4c0.1-0.3,0.1-0.5,0.1-0.8c0-1.6-1.3-2.8-2.8-2.8
			c-1.6,0-2.8,1.3-2.8,2.8c0,0.3,0,0.6,0.1,0.8c-0.2-0.2-0.5-0.3-0.8-0.4c-1.5-0.5-3.1,0.3-3.6,1.8c-0.5,1.5,0.3,3.1,1.8,3.6
			c0.3,0.1,0.6,0.1,0.8,0.1c-0.2,0.2-0.4,0.4-0.6,0.6c-0.9,1.3-0.6,3.1,0.6,4c1.3,0.9,3.1,0.6,4-0.6c0.2-0.2,0.3-0.5,0.4-0.8
			c0.1,0.3,0.2,0.5,0.4,0.8c0.9,1.3,2.7,1.6,4,0.6c1.3-0.9,1.6-2.7,0.6-4c-0.2-0.2-0.4-0.4-0.6-0.6c0.3,0,0.6,0,0.8-0.1
			C46.7,41.2,47.6,39.6,47.1,38.1z"/>
		<rect x="32" y="32" fill="none" width="16" height="16"/>
	</g>
	<rect fill="none" width="48" height="48"/>
</g>
</svg>
