<svg class="txtfill" xmlns="http://www.w3.org/2000/svg" viewBox="0 0 181.42 85.04"><g id="Layer_2" data-name="Layer 2"><g id="Layer_1-2" data-name="Layer 1"><path d="M171.5,65.2a9.18,9.18,0,0,0-1.49.15c9.14-8.49,13.23-22.33,7-36.59A28.22,28.22,0,0,0,161.9,14c-18.46-7.59-36.18,1.9-42.14,17.26h0a31.16,31.16,0,0,0-7.86-11.58,9.18,9.18,0,0,0,1.49.15c7.27,0,12.71-7.82,8.38-15.5a7.45,7.45,0,0,0-2.8-2.8c-7.69-4.33-15.51,1.11-15.51,8.38a9.78,9.78,0,0,0,1.28,4.78A31.1,31.1,0,0,0,61.65,31.27C55.7,15.91,38,6.42,19.52,14A28.22,28.22,0,0,0,4.39,28.76c-6.21,14.26-2.12,28.1,7,36.59a9.18,9.18,0,0,0-1.49-.15C2.65,65.2-2.79,73,1.54,80.7a7.45,7.45,0,0,0,2.8,2.8c7.68,4.33,15.5-1.11,15.5-8.38a9.78,9.78,0,0,0-1.28-4.78A31.1,31.1,0,0,0,61.65,53.77a31.14,31.14,0,0,0,58.11,0,31.1,31.1,0,0,0,43.09,16.57c-1.65,3-2,6.77.7,10.85a7.49,7.49,0,0,0,2.83,2.56c7.53,3.86,15-1.51,15-8.63A9.92,9.92,0,0,0,171.5,65.2Zm-131-10.67C26.87,62.15,13,48.25,20.59,34.61a10.7,10.7,0,0,1,4.1-4.1c13.64-7.62,27.53,6.28,19.92,19.92A10.76,10.76,0,0,1,40.51,54.53Zm50.2,2.16a14.17,14.17,0,1,1,14.17-14.17A14.16,14.16,0,0,1,90.71,56.69Zm58.11,0A14.17,14.17,0,1,1,163,42.52,14.16,14.16,0,0,1,148.82,56.69Z"/></g></g></svg>