<?xml version="1.0" encoding="utf-8"?>
<!-- Generator: Adobe Illustrator 16.0.0, SVG Export Plug-In . SVG Version: 6.00 Build 0)  -->
<!DOCTYPE svg PUBLIC "-//W3C//DTD SVG 1.1//EN" "http://www.w3.org/Graphics/SVG/1.1/DTD/svg11.dtd">
<svg version="1.1" id="Layer_1" xmlns:serif="http://www.serif.com/"
	 xmlns="http://www.w3.org/2000/svg" xmlns:xlink="http://www.w3.org/1999/xlink" x="0px" y="0px" width="172.838px"
	 height="80.517px" viewBox="162.677 58.839 172.838 80.517" enable-background="new 162.677 58.839 172.838 80.517"
	 xml:space="preserve">
<path fill="#333333" d="M311.361,139.355c13.316,0,24.154-10.846,24.154-24.155s-10.838-24.155-24.154-24.155h-24.154V78.968
	c0-11.11-9.02-20.129-20.129-20.129c-11.11,0-20.13,9.019-20.13,20.129v40.258c0,11.11,9.02,20.13,20.13,20.13H311.361z
	 M222.793,139.355c13.316,0,24.155-10.846,24.155-24.155s-10.838-24.155-24.155-24.155h8.052c8.91,0,16.103-7.193,16.103-16.103
	s-7.193-16.103-16.103-16.103h-44.013c-13.316,0-24.155,10.845-24.155,24.155s10.839,24.155,24.155,24.155h-8.051
	c-8.91,0-16.104,7.193-16.104,16.104c0,8.909,7.194,16.104,16.104,16.104H222.793z"/>
</svg>
