<?xml version="1.0" encoding="utf-8"?>
<!-- Generator: Adobe Illustrator 25.4.1, SVG Export Plug-In . SVG Version: 6.00 Build 0)  -->
<svg version="1.1" xmlns="http://www.w3.org/2000/svg" xmlns:xlink="http://www.w3.org/1999/xlink" x="0px" y="0px"
	 viewBox="0 0 96 128" enable-background="new 0 0 96 128" xml:space="preserve">
<g id="Layer_1">
</g>
<g id="Layer_2" display="none">
	<g display="inline">
		<g>
			<rect x="63.4" width="1.1" height="128"/>
			<path d="M48,48c0,8.8,7.2,16,16,16C64,55.2,56.8,48,48,48z"/>
			<path d="M48,80c0,8.8,7.2,16,16,16C64,87.2,56.8,80,48,80z"/>
			<path d="M80,16c0,8.8-7.2,16-16,16C64,23.2,71.2,16,80,16z"/>
			<path d="M80,96c0,8.8-7.2,16-16,16C64,103.2,71.2,96,80,96z"/>
		</g>
		<g>
			<rect x="15.4" width="1.1" height="128"/>
			<path d="M24,24c0,4.4-3.6,8-8,8C16,27.6,19.6,24,24,24z"/>
			<path d="M8,8c0,4.4,3.6,8,8,8C16,11.6,12.4,8,8,8z"/>
			<path d="M8,40c0,4.4,3.6,8,8,8C16,43.6,12.4,40,8,40z"/>
			<path d="M8,104c0,4.4,3.6,8,8,8C16,107.6,12.4,104,8,104z"/>
			<path d="M24,80c0,4.4-3.6,8-8,8C16,83.6,19.6,80,24,80z"/>
		</g>
		<g>
			<rect x="39.4" width="1.1" height="128"/>
			<path d="M46,42c0,3.3-2.7,6-6,6C40,44.7,42.7,42,46,42z"/>
			<path d="M46,18c0,3.3-2.7,6-6,6C40,20.7,42.7,18,46,18z"/>
			<path d="M34,34c0,3.3,2.7,6,6,6C40,36.7,37.3,34,34,34z"/>
			<path d="M34,90c0,3.3,2.7,6,6,6C40,92.7,37.3,90,34,90z"/>
			<path d="M34,2c0,3.3,2.7,6,6,6C40,4.7,37.3,2,34,2z"/>
			<path d="M46,74c0,3.3-2.7,6-6,6C40,76.7,42.7,74,46,74z"/>
			<path d="M46,118c0,3.3-2.7,6-6,6C40,120.7,42.7,118,46,118z"/>
		</g>
		<g>
			<rect x="87.4" width="1.1" height="128"/>
			<path d="M82,42c0,3.3,2.7,6,6,6C88,44.7,85.3,42,82,42z"/>
			<path d="M82,18c0,3.3,2.7,6,6,6C88,20.7,85.3,18,82,18z"/>
			<path d="M94,34c0,3.3-2.7,6-6,6C88,36.7,90.7,34,94,34z"/>
			<path d="M94,90c0,3.3-2.7,6-6,6C88,92.7,90.7,90,94,90z"/>
			<path d="M94,2c0,3.3-2.7,6-6,6C88,4.7,90.7,2,94,2z"/>
			<path d="M82,74c0,3.3,2.7,6,6,6C88,76.7,85.3,74,82,74z"/>
			<path d="M82,118c0,3.3,2.7,6,6,6C88,120.7,85.3,118,82,118z"/>
		</g>
		<rect x="0" fill="none" width="96" height="128"/>
	</g>
</g>
<g id="Layer_4">
	<g>
		<path fill="#7c3e52" d="M80,16c-7.4,0-13.6,5-15.4,11.9V0h-1.1v59.9C61.6,53,55.4,48,48,48c0,8.6,6.9,15.7,15.4,16v27.9
			C61.6,85,55.4,80,48,80c0,8.6,6.9,15.7,15.4,16v32h1.1v-16c8.6-0.3,15.4-7.3,15.4-16c-7.4,0-13.6,5-15.4,11.9V32
			C73.1,31.7,80,24.6,80,16z"/>
		<path fill="#7c3e52" d="M24,24c-3.4,0-6.3,2.1-7.4,5.1V0h-1.1v13.1C14.3,10.1,11.4,8,8,8c0,4.2,3.3,7.7,7.4,8v29.1
			c-1.2-3-4.1-5.1-7.4-5.1c0,4.2,3.3,7.7,7.4,8v61.1c-1.2-3-4.1-5.1-7.4-5.1c0,4.2,3.3,7.7,7.4,8v16h1.1V88c4.2-0.3,7.4-3.7,7.4-8
			c-3.4,0-6.3,2.1-7.4,5.1V32C20.7,31.7,24,28.2,24,24z"/>
		<path fill="#7c3e52" d="M46,18c-2.4,0-4.5,1.4-5.4,3.5V0h-1.1v5.5c-1-2.1-3-3.5-5.4-3.5c0,3.1,2.4,5.7,5.4,6v29.5
			c-1-2.1-3-3.5-5.4-3.5c0,3.1,2.4,5.7,5.4,6v53.5c-1-2.1-3-3.5-5.4-3.5c0,3.1,2.4,5.7,5.4,6v32h1.1v-4c3-0.3,5.4-2.8,5.4-6
			c-2.4,0-4.5,1.4-5.4,3.5V80c3-0.3,5.4-2.8,5.4-6c-2.4,0-4.5,1.4-5.4,3.5V48c3-0.3,5.4-2.8,5.4-6c-2.4,0-4.5,1.4-5.4,3.5V24
			C43.6,23.7,46,21.1,46,18z"/>
		<path fill="#7c3e52" d="M94,34c-2.4,0-4.5,1.4-5.4,3.5V8c3-0.3,5.4-2.8,5.4-6c-2.4,0-4.5,1.4-5.4,3.5V0h-1.1v21.5
			c-1-2.1-3-3.5-5.4-3.5c0,3.1,2.4,5.7,5.4,6v21.5c-1-2.1-3-3.5-5.4-3.5c0,3.1,2.4,5.7,5.4,6v29.5c-1-2.1-3-3.5-5.4-3.5
			c0,3.1,2.4,5.7,5.4,6v41.5c-1-2.1-3-3.5-5.4-3.5c0,3.1,2.4,5.7,5.4,6v4h1.1V96c3-0.3,5.4-2.8,5.4-6c-2.4,0-4.5,1.4-5.4,3.5V40
			C91.6,39.7,94,37.1,94,34z"/>
	</g>
</g>
<g id="Layer_3">
</g>
</svg>
