<svg xmlns="http://www.w3.org/2000/svg" viewBox="0 0 495.35 127.56"><defs><style>.cls-1{fill:#f3a;}</style></defs><g id="Layer_2" data-name="Layer 2"><g id="Layer_1-2" data-name="Layer 1"><path class="cls-1" d="M86.46,70.87H83.62v5.67A22.67,22.67,0,0,1,60.94,99.21H22.68A22.67,22.67,0,0,1,0,76.54V68A22.68,22.68,0,0,1,22.68,45.35h7.08V42.52H0V39.69A22.67,22.67,0,0,1,22.68,17h7.8a22.69,22.69,0,0,1,22-17h5.67V17h55.28v2.83A22.68,22.68,0,0,1,90.71,42.52H58.11v5.67A22.68,22.68,0,0,1,35.43,70.87H28.35V73.7H55.28V68A22.68,22.68,0,0,1,78,45.35H92.13A22.68,22.68,0,0,1,114.8,68V99.21h-5.67A22.67,22.67,0,0,1,86.46,76.54Z"/><path class="cls-1" d="M310.39,45.35A22.68,22.68,0,0,0,287.72,68V73.7H259.37v-34A22.67,22.67,0,0,0,236.69,17H231V76.54A22.68,22.68,0,0,0,253.7,99.21h39.69a22.67,22.67,0,0,0,22.67-22.67V45.35Z"/><path class="cls-1" d="M205.51,17h-34a22.67,22.67,0,0,0-22.68,22.67v2.84h51V62.36A22.68,22.68,0,0,0,222.52,85h5.67V39.68A22.67,22.67,0,0,0,205.51,17Z"/><path class="cls-1" d="M168.66,68V73.7H146v-34A22.67,22.67,0,0,0,123.31,17h-5.67V76.54a22.67,22.67,0,0,0,22.68,22.67h34A22.68,22.68,0,0,0,197,76.54V45.35h-5.67A22.68,22.68,0,0,0,168.66,68Z"/><path class="cls-1" d="M287.72,17v2.83a22.67,22.67,0,0,0,22.67,22.68h69.45v2.83H341.57A22.68,22.68,0,0,0,318.9,68v8.51a22.67,22.67,0,0,0,22.67,22.67h12.76A22.67,22.67,0,0,0,377,76.54V73.7H347.24V70.87h38.27a22.68,22.68,0,0,0,22.68-22.68v-8.5A22.67,22.67,0,0,0,385.51,17Z"/><path class="cls-1" d="M472.68,70.87a22.68,22.68,0,0,0,22.67-22.68v-8.5A22.67,22.67,0,0,0,472.68,17H406.06v2.83a22.68,22.68,0,0,0,22.68,22.68H467v2.83H428.74A22.69,22.69,0,0,0,406.06,68v8.51a22.68,22.68,0,0,0,22.68,22.67H467v2.84H403.23V73.7h-5.67a22.67,22.67,0,0,0-22.68,22.68v8.5a22.67,22.67,0,0,0,22.68,22.68h75.12a22.67,22.67,0,0,0,22.67-22.68v-8.5A22.67,22.67,0,0,0,472.68,73.7H434.41V70.87Z"/></g></g></svg>