<svg xmlns="http://www.w3.org/2000/svg" viewBox="0 0 192.76 70.87"><defs><style>.cls-1{fill:#f60;}.cls-2{fill:#f30;}</style></defs><g id="Layer_2" data-name="Layer 2"><g id="Layer_1-2" data-name="Layer 1"><path class="cls-1" d="M28.35,14.17A28.35,28.35,0,1,0,56.69,42.52,28.35,28.35,0,0,0,28.35,14.17Zm0,42.52A14.17,14.17,0,1,1,42.52,42.52,14.17,14.17,0,0,1,28.35,56.69Z"/><path class="cls-1" d="M84.33,28.35V14.17A28.35,28.35,0,0,0,56,42.52H70.16A14.16,14.16,0,0,1,84.33,28.35Z"/><path class="cls-1" d="M108.43,14.17a28.35,28.35,0,1,0,28.34,28.35A28.35,28.35,0,0,0,108.43,14.17Zm0,42.52A14.17,14.17,0,1,1,122.6,42.52,14.17,14.17,0,0,1,108.43,56.69Z"/><path class="cls-1" d="M164.41,14.17a28.35,28.35,0,0,0-28.35,28.35h14.18a14.17,14.17,0,0,1,28.34,0h14.18A28.35,28.35,0,0,0,164.41,14.17Z"/><rect class="cls-2" x="84.33" width="14.17" height="14.17"/></g></g></svg>