<?xml version="1.0" encoding="UTF-8" standalone="no"?>
<!-- Generator: Adobe Illustrator 25.4.1, SVG Export Plug-In . SVG Version: 6.00 Build 0)  -->

<svg
   version="1.1"
   id="Layer_1"
   x="0px"
   y="0px"
   viewBox="0 0 24 24"
   enable-background="new 0 0 24 24"
   xml:space="preserve"
   sodipodi:docname="bluesky.svg"
   inkscape:version="1.3.2 (091e20ef0f, 2023-11-25, custom)"
   xmlns:inkscape="http://www.inkscape.org/namespaces/inkscape"
   xmlns:sodipodi="http://sodipodi.sourceforge.net/DTD/sodipodi-0.dtd"
   xmlns="http://www.w3.org/2000/svg"
   xmlns:svg="http://www.w3.org/2000/svg"><defs
   id="defs1" /><sodipodi:namedview
   id="namedview1"
   pagecolor="#ffffff"
   bordercolor="#000000"
   borderopacity="0.25"
   inkscape:showpageshadow="2"
   inkscape:pageopacity="0.0"
   inkscape:pagecheckerboard="0"
   inkscape:deskcolor="#d1d1d1"
   inkscape:zoom="22.166667"
   inkscape:cx="16.195489"
   inkscape:cy="8.2556391"
   inkscape:current-layer="Layer_1" />

<style
   type="text/css"
   id="style1">
	.st0{fill:#1185FE;}
</style><path
   class="st0"
   d="M 11.990638,11.231357 C 10.992056,9.2966056 8.2834042,5.6829884 5.7619856,3.9042649 3.3466664,2.200435 2.4229784,2.4937684 1.8238294,2.7683783 1.1248222,3.0866762 0.9999996,4.1601514 0.9999996,4.790506 c 0,0.6303547 0.3432624,5.1801417 0.5741844,5.935319 0.7489362,2.508937 3.4014186,3.357732 5.8479436,3.083121 0.1248227,-0.01872 0.2496453,-0.03745 0.3807092,-0.04993 -0.1248227,0.01872 -0.2558865,0.03745 -0.3807092,0.04993 C 3.839716,14.339443 0.650496,15.64384 4.8320565,20.293485 9.4255319,25.04923 11.129361,19.27618 12.00312,16.342847 c 0.873759,2.927093 1.878582,8.494184 7.083689,3.950638 C 23,16.342847 20.160284,14.339443 16.577872,13.808946 c -0.124823,-0.01249 -0.255886,-0.03121 -0.380709,-0.04993 0.131063,0.01872 0.255886,0.03121 0.380709,0.04993 2.446525,0.274611 5.105249,-0.574184 5.847944,-3.083121 C 22.650497,9.9644067 23,5.4208607 23,4.790506 23,4.1601514 22.875177,3.0866762 22.17617,2.7683783 21.570781,2.4937684 20.653333,2.200435 18.238014,3.9042649 15.697872,5.6892295 12.989219,9.2966056 11.990638,11.231357 Z"
   id="path1-7"
   style="fill:#7c3e52;fill-opacity:1;stroke-width:0.999999" /></svg>
