<?xml version="1.0" encoding="utf-8"?>
<!-- Generator: Adobe Illustrator 25.4.1, SVG Export Plug-In . SVG Version: 6.00 Build 0)  -->
<svg version="1.1" id="Layer_1" xmlns="http://www.w3.org/2000/svg" xmlns:xlink="http://www.w3.org/1999/xlink" x="0px" y="0px"
	 viewBox="0 0 24 24" enable-background="new 0 0 24 24" xml:space="preserve">
<path fill="#7C3E52" d="M3.6,1.9c-1,0.6-2.9,2.8-3,3.4v1c0,1.2,1.2,2.3,2.2,2.3c1.3,0,2.3-1,2.3-2.3c0,1.2,1,2.3,2.3,2.3
	c1.3,0,2.2-1,2.2-2.3c0,1.2,1.1,2.3,2.3,2.3h0c1.3,0,2.3-1,2.3-2.3c0,1.2,1,2.3,2.2,2.3c1.3,0,2.3-1,2.3-2.3c0,1.2,1,2.3,2.3,2.3
	c1,0,2.2-1.1,2.2-2.3v-1c0-0.6-2-2.8-3-3.4c-3.1-0.1-5.2-0.1-8.4-0.1C8.8,1.8,4.5,1.8,3.6,1.9L3.6,1.9z M9.6,8
	C9.5,8.3,9.4,8.4,9.2,8.6C8.7,9.1,8.1,9.4,7.4,9.4C6.7,9.4,6,9.1,5.5,8.6C5.3,8.4,5.2,8.3,5.1,8.1l0,0C5,8.3,4.8,8.4,4.6,8.6
	C4.1,9.1,3.5,9.4,2.8,9.4c-0.1,0-0.2,0-0.2,0c-0.1,1.1-0.1,2.1-0.2,2.8l0,0c0,0.4,0,0.7,0,1.1c0,2.2-0.2,7.2,1,8.4
	c1.8,0.4,5.2,0.6,8.7,0.6h0c3.4,0,6.8-0.2,8.7-0.6c1.2-1.2,1-6.2,1-8.4c0-0.4,0-0.7,0-1.1l0,0c0-0.7-0.1-1.7-0.2-2.8
	c-0.1,0-0.2,0-0.2,0c-0.7,0-1.4-0.3-1.8-0.8c-0.2-0.2-0.3-0.3-0.5-0.6l0,0c-0.1,0.2-0.3,0.4-0.4,0.6c-0.5,0.5-1.2,0.8-1.8,0.8
	c-0.7,0-1.4-0.3-1.8-0.8c-0.2-0.2-0.3-0.4-0.4-0.6c-0.1,0.2-0.3,0.4-0.4,0.6c-0.5,0.5-1.2,0.8-1.8,0.8c0,0,0,0-0.1,0h0
	c0,0,0,0-0.1,0c-0.7,0-1.4-0.3-1.8-0.8C9.9,8.4,9.8,8.3,9.6,8L9.6,8z M7.7,10.5L7.7,10.5L7.7,10.5c0.8,0,1.4,0,2.2,0.9
	c0.7-0.1,1.3-0.1,2-0.1h0c0.7,0,1.4,0,2,0.1c0.8-0.9,1.5-0.9,2.2-0.9h0l0,0c0.4,0,1.8,0,2.8,2.8l1.1,3.8c0.8,2.8-0.3,2.9-1.5,2.9
	c-1.9-0.1-3-1.5-3-2.9c-1.1,0.2-2.3,0.3-3.5,0.3h0c-1.2,0-2.5-0.1-3.5-0.3c0,1.4-1.1,2.8-3,2.9c-1.3,0-2.3-0.1-1.5-2.9L5,13.3
	C6,10.5,7.4,10.5,7.7,10.5L7.7,10.5z M12,12.7L12,12.7c0,0-2,1.9-2.4,2.5l1.3-0.1v1.2c0,0.1,0.5,0,1.1,0h0c0.5,0,1.1,0,1.1,0v-1.2
	l1.3,0.1C14,14.5,12,12.7,12,12.7L12,12.7L12,12.7L12,12.7z"/>
</svg>
