<?xml version="1.0" encoding="utf-8"?>
<!-- Generator: Adobe Illustrator 25.4.1, SVG Export Plug-In . SVG Version: 6.00 Build 0)  -->
<svg version="1.1" id="Layer_1" xmlns="http://www.w3.org/2000/svg" xmlns:xlink="http://www.w3.org/1999/xlink" x="0px" y="0px"
	 viewBox="0 0 24 24" enable-background="new 0 0 24 24" xml:space="preserve">
<g>
	<path fill="#7C3E52" d="M17.2,9.2h-0.8v3.9c0,0,0.5,0.1,1.1,0c0.7-0.2,1.4-0.7,1.4-2c0-0.5-0.2-0.9-0.4-1.2
		C18.2,9.4,17.7,9.2,17.2,9.2z"/>
	<path fill="#7C3E52" d="M12,1.2C6.1,1.2,1.2,6.1,1.2,12S6.1,22.8,12,22.8S22.8,17.9,22.8,12S17.9,1.2,12,1.2z M16.4,15.1
		c0,0.8-0.1,2.1-1.6,2.5c-0.1,0-0.2,0-0.4,0c-2.6,0-8,0-8,0s-1.7,0-1.8-1.6c0-2.8,0-8,0-8s0-0.1,0-0.1c0-0.2,0.2-0.6,0.6-0.6H17
		c0.8,0,1.6,0.2,2.3,0.7c0.7,0.5,1.3,1.2,1.5,2.4C21.4,13.1,19.3,15.2,16.4,15.1z"/>
	<path fill="#7C3E52" d="M12.9,9.8c-1.3-0.6-2.4,0.7-2.4,0.7c-0.9-1-2.3-1-3-0.3c-0.6,0.7-0.4,1.9,0.1,2.5c0.5,0.6,2.4,2.4,2.7,2.7
		c0,0,0,0,0.1,0.1c0.1,0.1,0.2,0,0.2,0s1.9-1.7,2.7-2.7C14.1,11.9,14.2,10.4,12.9,9.8z"/>
</g>
</svg>
