<?xml version="1.0" encoding="utf-8"?>
<!-- Generator: Adobe Illustrator 25.4.1, SVG Export Plug-In . SVG Version: 6.00 Build 0)  -->
<svg version="1.1" id="Layer_1" xmlns="http://www.w3.org/2000/svg" xmlns:xlink="http://www.w3.org/1999/xlink" x="0px" y="0px"
	 viewBox="0 0 24 24" enable-background="new 0 0 24 24" xml:space="preserve">
<path fill="#7C3E52" d="M22.6,9.8c-0.3-1.5-1.1-2.5-2-3.1c-0.9-0.6-1.9-0.9-3-0.9H2.5C2,5.8,1.8,6.3,1.8,6.6c0,0,0,0.2,0,0.2
	s0,6.7,0,10.3C1.9,19.2,4,19.2,4,19.2s6.9,0,10.3,0c0.2,0,0.3,0,0.5-0.1c1.9-0.5,2.1-2.2,2.1-3.2C20.6,16.1,23.3,13.4,22.6,9.8z
	 M13,12.9c-1.1,1.3-3.5,3.5-3.5,3.5s-0.1,0.1-0.3,0c-0.1,0-0.1-0.1-0.1-0.1c-0.4-0.4-2.9-2.7-3.5-3.5C5,12,4.7,10.5,5.5,9.6
	C6.3,8.7,8.1,8.7,9.3,10c0,0,1.4-1.6,3-0.8C14,9.8,13.9,11.7,13,12.9z M18.4,13.3c-0.8,0.1-1.5,0-1.5,0v-5h1c0.7,0,1.3,0.3,1.7,0.8
	c0.3,0.4,0.5,0.8,0.5,1.5C20.2,12.3,19.3,13,18.4,13.3z"/>
<path display="none" fill="#7C3E52" d="M12,3.4c2.8,0,3.1,0,4.2,0.1c2.8,0.1,4.2,1.5,4.3,4.3c0.1,1.1,0.1,1.4,0.1,4.2
	c0,2.8,0,3.1-0.1,4.2c-0.1,2.8-1.5,4.2-4.3,4.3c-1.1,0.1-1.4,0.1-4.2,0.1c-2.8,0-3.1,0-4.2-0.1c-2.9-0.1-4.2-1.5-4.3-4.3
	c-0.1-1.1-0.1-1.4-0.1-4.2c0-2.8,0-3.1,0.1-4.2c0.1-2.8,1.5-4.2,4.3-4.3C8.9,3.4,9.2,3.4,12,3.4z M12,1.5c-2.9,0-3.2,0-4.3,0.1
	C3.9,1.7,1.7,3.9,1.6,7.7C1.5,8.8,1.5,9.1,1.5,12s0,3.2,0.1,4.3c0.2,3.8,2.3,5.9,6.1,6.1c1.1,0.1,1.5,0.1,4.3,0.1s3.2,0,4.3-0.1
	c3.8-0.2,5.9-2.3,6.1-6.1c0.1-1.1,0.1-1.5,0.1-4.3s0-3.2-0.1-4.3c-0.2-3.8-2.3-5.9-6.1-6.1C15.2,1.5,14.9,1.5,12,1.5z M12,6.6
	C9,6.6,6.6,9,6.6,12S9,17.4,12,17.4s5.4-2.4,5.4-5.4C17.4,9,15,6.6,12,6.6z M12,15.5c-1.9,0-3.5-1.6-3.5-3.5c0-1.9,1.6-3.5,3.5-3.5
	s3.5,1.6,3.5,3.5C15.5,13.9,13.9,15.5,12,15.5z M17.6,5.1c-0.7,0-1.3,0.6-1.3,1.3s0.6,1.3,1.3,1.3c0.7,0,1.3-0.6,1.3-1.3
	S18.3,5.1,17.6,5.1z"/>
</svg>
