<?xml version="1.0" encoding="UTF-8" standalone="no"?>
<svg
   height="24"
   viewBox="0 -960 1152 1152"
   width="24"
   version="1.1"
   id="svg1"
   sodipodi:docname="link.svg"
   inkscape:version="1.3 (0e150ed6c4, 2023-07-21)"
   xmlns:inkscape="http://www.inkscape.org/namespaces/inkscape"
   xmlns:sodipodi="http://sodipodi.sourceforge.net/DTD/sodipodi-0.dtd"
   xmlns="http://www.w3.org/2000/svg"
   xmlns:svg="http://www.w3.org/2000/svg">
  <defs
     id="defs1" />
  <sodipodi:namedview
     id="namedview1"
     pagecolor="#ffffff"
     bordercolor="#000000"
     borderopacity="0.25"
     inkscape:showpageshadow="2"
     inkscape:pageopacity="0.0"
     inkscape:pagecheckerboard="0"
     inkscape:deskcolor="#d1d1d1"
     inkscape:zoom="17.008171"
     inkscape:cx="9.7894123"
     inkscape:cy="11.171101"
     inkscape:current-layer="svg1" />
  <path
     d="M 726.003,-129.80961 584.21087,11.982529 Q 500.34111,95.85229 382.05358,95.79069 263.76504,95.73015 179.80742,11.772498 95.850805,-72.184118 96.000275,-190.2626 96.147695,-308.3411 180.01746,-392.21086 L 321.8096,-534.003 l 83.81625,83.81624 -141.68915,141.68914 q -49.32677,49.32676 -49.35608,118.35316 -0.0303,69.02739 49.25308,118.310753 49.28335,49.283351 118.31075,49.253074 69.02639,-0.02928 118.35317,-49.35608 L 642.18676,-213.62585 Z m -262.68601,-64.93661 -76.57079,-76.57077 301.93683,-301.93681 76.57076,76.57078 z m 366.8734,-39.25078 -83.81624,-83.81624 141.68914,-141.68914 q 49.32674,-49.32677 49.35604,-118.35318 0.03,-69.02738 -49.25304,-118.31074 -49.28334,-49.28336 -118.31074,-49.25308 -69.02641,0.0293 -118.35317,49.35609 l -141.68915,141.68914 -83.81624,-83.81625 141.79215,-141.79213 q 83.86976,-83.86976 202.15728,-83.80816 118.28855,0.0607 202.24611,84.01822 83.95657,83.9566 83.80717,202.03506 -0.1474,118.07852 -84.01717,201.94826 z"
     id="path1"
     style="fill:#7c3e52;fill-opacity:1;stroke-width:1" />
</svg>
