<?xml version="1.0" encoding="utf-8"?>
<!-- Generator: Adobe Illustrator 25.4.1, SVG Export Plug-In . SVG Version: 6.00 Build 0)  -->
<svg version="1.1" id="Layer_1" xmlns="http://www.w3.org/2000/svg" xmlns:xlink="http://www.w3.org/1999/xlink" x="0px" y="0px"
	 viewBox="0 0 24 24" style="enable-background:new 0 0 24 24;" xml:space="preserve">
<style type="text/css">
	.st0{fill:#7C3E52;}
</style>
<g>
	<path class="st0" d="M20.5,4.4C18.7,2.9,16.2,2,13.3,2C5.8,2,0.7,7.7,0.7,7.7l1.4,2.2c0,0,0.8,0.1,0.4-1.3C2.9,8,3.6,7.1,5,6
		C5,6,5,20.2,5,21c-0.6,0.2-1.4,0.5-0.9,1c0.9,0,3.5,0,4.1,0c0.5-0.5-0.3-0.9-0.8-1c0-0.6,0-3.5,0-3.5s2.8,1.1,5.9,1.1
		c2.7,0,5.1-0.8,7-2.2c1.8-1.4,3-3.5,3-5.9C23.3,8.1,22.3,5.9,20.5,4.4z M18.3,15.2c-1.3,1.2-3.1,2-5.2,2c-2.4,0-4.3-0.4-5.6-1.1
		c0,0,0-0.4,0-3.2c0-3.1,0-8,0-8c1.4-1,3.8-1.6,5.6-1.6c2.3,0,4.1,0.8,5.3,2.1c1.2,1.3,1.9,3,1.9,5C20.3,12.3,19.6,13.9,18.3,15.2z"
		/>
</g>
</svg>
