<?xml version="1.0" encoding="utf-8"?>
<!-- Generator: Adobe Illustrator 25.4.1, SVG Export Plug-In . SVG Version: 6.00 Build 0)  -->
<svg version="1.1" id="Layer_1" xmlns="http://www.w3.org/2000/svg" xmlns:xlink="http://www.w3.org/1999/xlink" x="0px" y="0px"
	 viewBox="0 0 24 24" enable-background="new 0 0 24 24" xml:space="preserve">
<path fill="#7C3E52" d="M23.9,4.8c-0.8,0.4-1.7,0.6-2.7,0.7c1-0.6,1.7-1.5,2.1-2.6c-0.9,0.5-1.9,0.9-3,1.1c-0.9-0.9-2.1-1.5-3.4-1.5
	c-3,0-5.2,2.8-4.6,5.7C8.4,8.1,5,6.3,2.7,3.4C1.4,5.5,2,8.3,4.1,9.7C3.3,9.6,2.6,9.4,2,9.1c-0.1,2.2,1.5,4.2,3.7,4.6
	c-0.7,0.2-1.4,0.2-2.1,0.1C4.2,15.7,6,17,8,17.1c-2,1.5-4.4,2.2-6.9,1.9c2.1,1.3,4.5,2.1,7.2,2.1c8.7,0,13.6-7.3,13.3-13.9
	C22.4,6.5,23.2,5.7,23.9,4.8z"/>
</svg>
