<?xml version="1.0" standalone="no"?>
<!DOCTYPE svg PUBLIC "-//W3C//DTD SVG 20010904//EN"
 "http://www.w3.org/TR/2001/REC-SVG-20010904/DTD/svg10.dtd">
<svg version="1.0" xmlns="http://www.w3.org/2000/svg"
 width="700.000000pt" height="700.000000pt" viewBox="0 0 700.000000 700.000000"
 preserveAspectRatio="xMidYMid meet">
<metadata>
Created by potrace 1.14, written by Peter Selinger 2001-2017
</metadata>
<g transform="translate(0.000000,700.000000) scale(0.100000,-0.100000)"
fill="#000000" stroke="none">
<path d="M3035 6109 c-506 -38 -963 -152 -1255 -311 -466 -255 -717 -627 -785
-1168 -21 -164 -16 -473 10 -615 86 -469 360 -771 859 -944 76 -27 87 -29 81
-14 -125 307 -119 674 13 928 77 146 253 291 447 366 84 33 266 82 349 94 l50
8 -26 -44 c-360 -623 -1438 -2500 -1438 -2504 0 -3 266 -5 590 -5 334 0 590
-4 590 -9 0 -5 -130 -235 -290 -511 -159 -276 -290 -504 -290 -506 0 -2 241
-3 536 -2 l536 3 241 417 c132 230 244 418 247 418 3 0 115 -188 247 -417
l241 -418 536 -3 c295 -1 536 0 536 2 0 2 -131 230 -290 506 -159 277 -290
507 -290 512 0 4 266 8 591 8 469 0 590 3 586 13 -2 6 -331 579 -730 1272
-399 693 -722 1261 -717 1263 16 6 170 -28 275 -59 283 -86 472 -230 570 -433
123 -257 123 -596 0 -899 -17 -41 327 107 462 199 262 180 407 408 474 743 42
211 37 554 -11 792 -51 251 -168 493 -323 666 -345 386 -888 592 -1717 653
-158 12 -746 11 -905 -1z m5 -3239 l0 -460 -100 0 -100 0 0 460 0 460 100 0
100 0 0 -460z m1120 0 l0 -460 -100 0 -100 0 0 460 0 460 100 0 100 0 0 -460z"/>
</g>
</svg>
