<svg xmlns="http://www.w3.org/2000/svg" xmlns:xlink="http://www.w3.org/1999/xlink" width="640" height="640"><defs><filter id="g" width="1.627" height="1.333" x="-.314" y="-.166" style="color-interpolation-filters:sRGB"><feGaussianBlur stdDeviation="7.72"/></filter><filter id="j" width="1.343" height="1.429" x="-.171" y="-.214" style="color-interpolation-filters:sRGB"><feGaussianBlur stdDeviation="18.588"/></filter><filter id="m" width="1.238" height="1.205" x="-.119" y="-.102" style="color-interpolation-filters:sRGB"><feGaussianBlur stdDeviation="6.528 9.786"/></filter><filter id="n" width="2.04" height="1.685" x="-.52" y="-.342" style="color-interpolation-filters:sRGB"><feGaussianBlur stdDeviation="12.833"/></filter><filter id="p" width="1.236" height="1.191" x="-.118" y="-.095" style="color-interpolation-filters:sRGB"><feGaussianBlur stdDeviation="6.949 10.344"/></filter><filter id="q" width="2.144" height="1.695" x="-.572" y="-.347" style="color-interpolation-filters:sRGB"><feGaussianBlur stdDeviation="15.952"/></filter><filter id="r" width="1.756" height="2.519" x="-.378" y="-.759" style="color-interpolation-filters:sRGB"><feGaussianBlur stdDeviation="8.466"/></filter><linearGradient id="a"><stop offset="0" style="stop-color:#0094e9;stop-opacity:1"/><stop offset="1" style="stop-color:#0094e9;stop-opacity:0"/></linearGradient><linearGradient xlink:href="#a" id="u" x1="887.768" x2="887.431" y1="383.417" y2="354.071" gradientUnits="userSpaceOnUse"/><linearGradient xlink:href="#a" id="t" x1="887.768" x2="887.431" y1="383.417" y2="354.071" gradientUnits="userSpaceOnUse"/><linearGradient xlink:href="#a" id="s" x1="887.768" x2="887.431" y1="383.417" y2="354.071" gradientUnits="userSpaceOnUse"/><linearGradient xlink:href="#a" id="v" x1="887.768" x2="887.431" y1="383.417" y2="354.071" gradientUnits="userSpaceOnUse"/><pattern id="b" width="32" height="32" patternTransform="translate(1306 512)" patternUnits="userSpaceOnUse" preserveAspectRatio="xMidYMid" style="fill:#bacf00"><path d="M0 0h32v32H0z" style="opacity:1;fill:#fff;fill-opacity:.996078;stroke:none;stroke-width:5;stroke-dasharray:none;stroke-dashoffset:0;stroke-opacity:.996078"/><path d="M0 0h16v16H0zm16 16h16v16H16z" style="opacity:1;fill-opacity:.996078;stroke:none;stroke-width:5;stroke-dasharray:none;stroke-dashoffset:0;stroke-opacity:.996078"/></pattern><pattern xlink:href="#c" id="f" x="0" y="0" patternTransform="translate(1306 512)" preserveAspectRatio="xMidYMid"/><pattern id="c" width="32" height="32" patternTransform="translate(1306 512)" patternUnits="userSpaceOnUse" preserveAspectRatio="xMidYMid" style="fill:#bacf00"><path d="M0 0h32v32H0z" style="opacity:1;fill:#fff;fill-opacity:.996078;stroke:none;stroke-width:5;stroke-dasharray:none;stroke-dashoffset:0;stroke-opacity:.996078"/><path d="M0 0h16v16H0zM16 16h16v16H16z" style="opacity:1;fill-opacity:.996078;stroke:none;stroke-width:5;stroke-dasharray:none;stroke-dashoffset:0;stroke-opacity:.996078"/></pattern><pattern xlink:href="#c" id="i" x="0" y="0" patternTransform="translate(1306 512)" preserveAspectRatio="xMidYMid"/><clipPath id="l" clipPathUnits="userSpaceOnUse"><use xlink:href="#d"/></clipPath><clipPath id="o" clipPathUnits="userSpaceOnUse"><use xlink:href="#e"/></clipPath></defs><g style="display:inline;stroke-width:.966857" transform="matrix(1.03428 0 0 1.03428 -682.501 -8.652)"><path d="M1009.407 393.224c14.036 26.35 27.998 52.738 42.107 79.048.727 1.356 1.687 2.17 2.167 3.61.463 1.388.385 2.906.723 4.33 1.694 7.159 3.449 14.96 6.536 21.717 4.515 9.881.206-1.702 3.63 6.529.512 1.228 2.31 6.84 3.609 8.658 4.71 6.596 14.193 9.513 19.563 15.956 3.586 4.303 4.262 12.115 6.535 16.66l2.165 2.887c.24 0 .551-.17.722 0 .902.902-.918.722.541.722h-1.67c-3.302 0 .749.152-3.608-.722-5.6-1.123-11.24-2.037-16.88-2.937-7.077-1.129-14.792-1.041-21.765-1.502-10.646-.704-21.655-1.825-32.169.706-11.76 2.83-22.845 8.488-34.857 10.204-2.279.326-7.765.584-10.102 0-1.475-.369-2.823-1.228-4.329-1.443-10.515-1.502 6.22 2.104-6.494-.721-1.709-.38-3.308-1.27-5.05-1.444-10.76-1.075-21.71-.756-32.534-.756-8.28 0-16.009-.296-24.147.722-.73.09-4.735.315-5.05 0-3.242-3.242-5.228-8.879-10.146-10.135-6.265-1.599-13.42 1.886-19.422 2.887-5.683.947-12.953 1.443-18.76 1.443-.189 0 .409.106.564 0a6.201 6.201 0 0 0 1.444-1.368c1.068-1.409 1.847-3.025 2.94-4.414 1.696-2.154 3.744-4.018 5.411-6.194 5.367-7.003 10.223-15.36 14.037-23.292 5.317-11.06 7.04-22.509 7.888-34.693.249-3.56-1.125-11.095 0-15.032.591-2.069 2.013-3.807 2.887-5.773 4.69-10.553 9.238-24.543 16.26-33.32 1.901-2.377 4.875-3.296 7.216-5.052 2.461-1.845 5.822-5.641 7.29-8.01 2.479-4.004 2.472-8.078 3.71-12.41 1.114-3.9 2.63-7.67 3.607-11.581.518-2.073.115-6.34 1.455-7.961.766-.927 17.976-.454 18.983-.454 7.549 0 15.95-.784 23.165.51 5.44.975 11.216-.355 16.595.72 4.669.934 9.624 3.73 13.71 5.773.319.16 2.525.544 2.662.722.141.184-.168.536 0 .697.574.556 2.828.664 3.599 1.434.38.38.265 1.16.721 1.444 1.386.863 3.028 1.223 4.541 1.835z" style="fill:url(#f);fill-opacity:1;stroke:silver;stroke-width:1.93371;stroke-miterlimit:100;stroke-opacity:1"/><g style="stroke-width:.966857" transform="rotate(-12.805 1026.497 462.979)"><ellipse cx="-970.025" cy="-688.297" rx="132.203" ry="30.62" style="opacity:1;fill:#fbffba;fill-opacity:.758108;stroke:#d3d700;stroke-width:1.93371;stroke-miterlimit:100;stroke-dasharray:3.86743,1.93371;stroke-dashoffset:0;stroke-opacity:1" transform="scale(-1 1) rotate(-59.433)"/><path d="M1047.068 430.39c68.01 102.813 23.11 29.194 39.215 61.32.915 1.824 2.28 3.406 3.129 5.262.448.982.58 2.088 1.028 3.07 3.034 6.646 7.243 13.37 11.482 19.306 1.57 2.198 3.834 4.146 5.633 6.143 2.704 3.002 5.936 6.047 8.28 9.328 1.285 1.8 2.43 4.223 3.571 6.123 1.159 1.93 2.533 3.73 3.605 5.709.436.805.471 1.818 1.02 2.55.665.887 2.552 1.214 2.552 2.523 0 .18-.283-.283-.464-.283" style="opacity:1;fill:none;fill-opacity:.758108;stroke:#d3d700;stroke-width:1.93371;stroke-dasharray:3.86743,1.93371;stroke-dashoffset:0;stroke-opacity:1"/><path d="M1086.785 494.644c-3.6 29.413-3.58 19.423-3.58 29.755M1068.95 464.84c-16.312 18.046-16.198 9.868-16.198 18.43M1098.52 509.64c7.793 2.76 13.867 8.263 20.857 12.257.959.548 2.976 2.551 3.547 2.551M1077.728 476.888c1.004-1.783 18.522 9.043 22.675 9.043" style="opacity:1;fill:none;fill-opacity:.758108;stroke:#d3d700;stroke-width:1.93371;stroke-dasharray:3.86743,1.93371;stroke-dashoffset:0;stroke-opacity:1"/></g><g style="stroke-width:.966857" transform="rotate(-12.805 1026.497 462.979)"><ellipse cx="-1203.38" cy="-156.257" rx="132.203" ry="30.62" style="opacity:1;fill:#fbffba;fill-opacity:.758108;stroke:#d3d700;stroke-width:1.93371;stroke-miterlimit:100;stroke-dasharray:3.86743,1.93371;stroke-dashoffset:0;stroke-opacity:1" transform="scale(-1 1) rotate(-28.614)"/><path d="M1054.81 397.202c5.758 3.83 11.832 7.164 17.674 10.863 6.079 3.849 11.136 9.113 16.81 13.548 1.077.843 1.987 1.917 3.163 2.617 4.594 2.733 10.16 3.595 15.14 5.376 4.21 1.506 1.057.344 4.616 2.568 2.276 1.423 2.383.902 5.146 2.063 2.138.558 3.695 2.223 5.659 3.1 6.992 3.122 14.59 4.312 21.187 8.284 2.952 1.777 5.941 3.569 8.698 5.637.872.653 1.618 1.48 2.551 2.04.786.472 1.775.536 2.551 1.021.612.383.931 1.13 1.531 1.53 3.107 2.076 6.914 3.985 10.256 5.656 1.414.707 3.122.943 4.592 1.53 2.193.878-.181.048 2.024 1.514 2.768 1.84 6.23 1.88 9.22 3.084 1.568.63-.392.51 1.021.51" style="opacity:1;fill:none;fill-opacity:.758108;stroke:#d3d700;stroke-width:1.93371;stroke-dasharray:3.86743,1.93371;stroke-dashoffset:0;stroke-opacity:1"/><path d="M1092.484 423.596c17.242 17.327 7.818 18.38 12.218 29.82.273.71.836 1.303 1.02 2.04.124.496-.324 1.137 0 1.531.09.108.28 0 .42 0M1154.008 427.816c-6.28 1.53 3.983-1.174-5.683 2.56-.975.376-2.082.253-3.089.53-.01.001-5.096 2.039-5.103 2.04-2.14.714-4.595 1.023-6.632 2.042-.488.244-4.824 2.258-4.955 2.501-.077.144.115.374 0 .49-.21.21-.965-.163-1.225 0-.923.573.012.46-.94.46M1096.87 406.076c-5.2 6.013-13.088 4.947-18.687 8.66-.77.51-1.615 1.53-2.551 1.53M1112.305 431.582c9.17 23.088 3.275 17.084 9.57 23.358" style="opacity:1;fill:none;fill-opacity:.758108;stroke:#d3d700;stroke-width:1.93371;stroke-dasharray:3.86743,1.93371;stroke-dashoffset:0;stroke-opacity:1"/></g><g style="stroke-width:.966857"><ellipse cx="52.943" cy="979" rx="132.203" ry="30.62" style="opacity:1;fill:#fbffba;fill-opacity:.758108;stroke:#d3d700;stroke-width:1.93371;stroke-miterlimit:100;stroke-dasharray:3.86743,1.93371;stroke-dashoffset:0;stroke-opacity:1" transform="rotate(-57.348)"/><path d="M886.157 411.872c-14.33 30.238-17.749 63.804-31.38 93.783-1.94 4.268-3.079 9.825-5.772 13.71-1.579 2.276-3.442 4.343-5.106 6.559-1.233 1.643-2.139 3.582-3.607 5.05-5.724 5.724-12.021 10.543-17.33 16.62-.693.794-2.885 2.135-2.885 2.846M859.816 472.163l-41.441 24.15M874.899 445.686l8.46 28.21M848.69 515.622l-30.94 11.605" style="opacity:1;fill:none;fill-opacity:.758108;stroke:#d3d700;stroke-width:1.93371;stroke-dasharray:3.86743,1.93371;stroke-dashoffset:0;stroke-opacity:1"/></g><g style="stroke-width:.966857"><ellipse cx="671.353" cy="599.519" rx="132.203" ry="30.62" style="opacity:1;fill:#fbffba;fill-opacity:.758108;stroke:#d3d700;stroke-width:1.93371;stroke-miterlimit:100;stroke-dasharray:3.86743,1.93371;stroke-dashoffset:0;stroke-opacity:1" transform="rotate(-14.509)"/><path d="M889.091 381.231c-30.837 7.827-61.745 15.38-92.512 23.48-4.683 1.233-9.153 4.277-13.307 6.659-.467.267-.962.481-1.443.722-.722.24-1.505.344-2.165.721-1.044.597-1.81 1.627-2.886 2.165-1.566.783-3.451.731-5.05 1.443-5.426 2.413-10.572 5.59-15.96 7.986-.054.024-5.724 1.435-5.796 1.455-8.323 2.378 5.783-1.48-5.05 2.165-5.008 1.685-10.282 2.263-15.35 3.721-4.161 1.197-11.91 1.792-15.182 5.051" style="opacity:1;fill:none;fill-opacity:.758108;stroke:#d3d700;stroke-width:1.93371;stroke-dasharray:3.86743,1.93371;stroke-dashoffset:0;stroke-opacity:1"/><path d="M782.014 411.624c-.57 1.172-.979 2.437-1.71 3.516-3.033 4.468-6.794 8.303-9.431 13.05-1.263 2.272-1.736 4.914-2.898 7.239-.632 1.262-1.604 2.342-2.177 3.631-.9 2.026-.528 4.136-2.165 5.773M826.326 394.73c-.313 9.456-9.64 18.062-11.569 27.708-.094.472.152.987 0 1.443-.107.323-.564.42-.721.722-.276.528-1.443 5.824-1.443 6.374M801.901 403.459c-8.496-.722-16.991-1.463-25.49-2.165-1.122-.093-5.87.536-5.87-.538M851.077 393.518c-20.67-7.288-13.233-7.216-21.117-7.216" style="opacity:1;fill:none;fill-opacity:.758108;stroke:#d3d700;stroke-width:1.93371;stroke-dasharray:3.86743,1.93371;stroke-dashoffset:0;stroke-opacity:1"/></g><path id="h" d="M938.68 368.334c-1.495 12.798-10.412 23.372-11.856 36.038-1.194 9.815-3.988 19.39-3.584 29.35-1.17 11.455-4.488 22.702-3.092 34.35.552 11.535-2.42 25.79 7.643 34.29 6.31 5.571 13.13 11.098 21.811 12.394 14.168 4.136 28.968-1.127 42.399-5.574 8.459-1.402 13.205-9.006 19.782-13.654 8.475-5.145 7.407-15 8.412-23.404 1.17-10.703-2.769-20.914-4.648-31.297-3.825-9.953-5.037-21.104-11.35-29.958-2.439-12.378-12.103-21.45-16.563-32.985-4.028-11.7-18.682-14.403-30.261-14.563-6.832-.153-13.83-.805-18.693 5.013z" style="opacity:1;fill:#fff;fill-opacity:1;stroke:#96ffea;stroke-width:3.384;stroke-dasharray:none;stroke-dashoffset:0;stroke-opacity:1"/><path d="M956.578 384.021c-3.563 12.342-8.79 19.336-9.174 22.696a20.715 20.715 0 0 1-.02.156c-1.467 12.056-3.674 20.451-3.448 26.008a20.715 20.715 0 0 1-.09 2.945c-1.433 14.03-3.878 23.546-3.131 29.781a20.715 20.715 0 0 1 .123 1.475c.38 7.947-.136 13.973.183 17.291.32 3.318.232 2.248.135 2.166a20.715 20.715 0 0 1 .342.295c5.855 5.169 9.419 7.175 11.162 7.436a20.715 20.715 0 0 1 2.746.603c5.903 1.723 16.336-.803 30.086-5.355a20.715 20.715 0 0 1 2.28-.563c.045-.048.37-.263 1.261-1.035 1.72-1.491 4.785-4.738 9.631-8.361.188-1.389.314-4.448.965-9.893l-.024.207c.447-4.083-1.864-11.858-4.117-23.781-4.384-11.968-6.037-20.226-8.156-23.197a20.715 20.715 0 0 1-3.457-8.022c-.797-4.044-8.661-11.93-15.4-29.162-.094.01.029.128-.575-.104-2.003-.77-6.515-1.517-10.812-1.576a20.715 20.715 0 0 1-.182-.004l-.328-.006z" style="opacity:1;fill:#d2fff4;fill-opacity:1;stroke:none;stroke-width:3.384;stroke-dasharray:none;stroke-dashoffset:0;stroke-opacity:1;filter:url(#g)" transform="translate(-11.776 -12.31)"/><g style="display:inline;fill:url(#i);fill-opacity:1;stroke-width:.966857"><path d="M900.03 367.55c-6.919 4.43-15.256 7.193-15.256 16.728 0 1.107-.355 2.653.36 3.608 3.966 5.286 9.551 3.246 15.107 3.246.07 0-.153.049-.177.115-1.094 3.04-2.51 6.293-3.296 9.438-.111.444.154.941 0 1.372-.104.292-.564.278-.36.674.462.903 2.038.149 3.041 0 1.734-.256 3.407-.83 5.123-1.184 2.103-.435 4.24-.697 6.332-1.185 7.342-1.713 14.478-4.322 21.447-7.112 1.235-.495 2.755-.837 3.969-1.443 1.966-.983 3.018-2.715 4.69-3.969.345-.259 5.312-2.681 5.772-2.886 2.295-1.02 4.645-1.781 6.864-2.89 1.538-.77 3.442-1.277 5.085-1.822.211-.07.47.102.668 0 1.521-.78 3.363-2.476 4.652-3.765.446-.446 1.201-1.481 1.792-1.792.236-.125.338-.002.46.137.758.858 1.445 1.782 2.262 2.583 2.475 2.426 5.32 4.69 8.164 6.67.923 1.222 2.464 1.4 3.642 2.186 1.71 1.14 3.638 2.922 5.083 4.375 1.483 1.492 2.478 3.561 3.97 5.052.424.425 1.017.657 1.442 1.082.307.307.415.776.722 1.083 1.013 1.013 2.556 1.965 3.623 2.901 1.783 1.565 3.228 3.538 5.05 5.057 1.443 1.202 3.208 1.702 3.9-.722.346-1.206-1.32-6.53-2.164-7.937-.328-.547-1.391-1.794-1.443-2.525-.025-.348.66.228.982.36.703.29 1.47.412 2.165.722 4.459 1.993 8.623 2.733 13.548 2.975 7.058.347 15.937 1.119 22.649 0 .843-.14 3.136.54 3.607-.36.233-.445-1.536-5.778-1.81-6.442-.605-1.47-1.061-3.012-1.833-4.402-1.33-2.396-3.75-3.947-5.876-5.492-2.7-1.962-5.282-4.45-8.37-5.83-5.497-2.454-11.37-3.643-17.293-4.39-3.764-.475-7.473-1.584-11.265-1.845-3.606-.248-7.242-.195-10.852-.375-1.126-.056-2.236-.318-3.362-.374-11.937-.595 4.22.782-8.787-.391-18.224-1.644-36.416-3.666-54.75-3.108-2.435.074-4.891.454-7.303.722-1.442.16-4.506-.47-5.679 0-3.332 1.334-1.96 1.475-6.295 1.154z" style="opacity:1;fill:url(#i);fill-opacity:1;stroke:silver;stroke-width:1.93371;stroke-dasharray:none;stroke-opacity:.996078"/><g style="display:inline;fill:url(#i);fill-opacity:1;stroke:silver;stroke-width:3.3646;stroke-dasharray:none;stroke-opacity:.996078" transform="translate(411.828 169.147) scale(.57472)"><path d="M971.236 358.71c5.428.62 13.168 3.554 21.5 7.494 2.474 1.17 5.213 1.958 7.338 3.682 3.078 2.498 5.596 5.617 8.4 8.42 6.16 6.162 6.773 5.451 9.71 11.3 1.31 2.611 2.83 5.153 3.718 7.935.548 1.716.29 3.593.53 5.378 2.692 19.965.488 3.91 2.736 15.557 2.992 15.507-1.703-8.047.53 7.193.184 1.253.82 2.404 1.058 3.648.983 5.126.244 4.467.53 9.862.517 9.748 1.404 20.072.02 29.76-.346 2.422 1.05 15.725.51 16.327-.803.895-2.957-1.247-3.26-1.502-2.825-2.37-1.862-1.177-5.69-3.656-10.897-7.056 3.731 1.763-8.082-5.427-.451-.275-4.895-2.64-5.677-3.64-5.113-6.534-4.316-11.255-7.33-18.931-.46-1.17-1.504-2.026-2.088-3.14-1.345-2.565-2.337-5.306-3.685-7.87-1.49-2.832-3.456-5.519-5.147-8.225-1.693-2.709-2.665-5.84-4.082-8.673-1.304-2.609-2.976-4.985-4.11-7.698-1.41-3.378-2.533-6.753-3.58-10.233-1.735-5.772-5.303-11.238-7.205-16.944-.47-1.411-1.344-3.619-1.53-5.11-.1-.793 1.27-16 4.886-25.508z" style="opacity:1;fill:url(#i);fill-opacity:1;stroke:silver;stroke-width:3.12122;stroke-dasharray:none;stroke-opacity:.996078" transform="matrix(-1.07798 0 0 -1.07798 2071.057 891.275)"/><path d="M968.886 359.9c-4.244 1.977-7.801 5.088-11.221 8.223-2.038 1.868-5.224 4.699-7.015 6.734-3.613 4.106-7.016 9.58-9.249 14.563-2.66 5.936-4.484 12.208-6.998 18.202-3.05 7.269-7.511 13.779-10.646 21.002-4.768 10.986-1.019 2.184-3.29 8.725-1.024 2.947-2.353 5.748-3.272 8.74-1.065 3.462-1.832 7.053-2.994 10.485-.215.633-.575 1.21-.799 1.839-1.235 3.464-2.401 7.122-2.984 10.758-.59 3.68-.045 1.15-.276 5.017-.037.607-.217 1.198-.265 1.804-.06.753.194 2.034 0 2.81-.182.728-1.24 3.112-1.029 3.588.068.154 1.563.256 1.648.256 1.555 0 3.104.315 4.658.255 2.804-.109 6.246-1.013 8.906-1.68 2.405-.602 4.917-1.136 7.078-2.432.663-.398.85-2.167 1.276-2.807.571-.857 1.575-1.9 2.317-2.582 3.13-2.878 6.794-4.966 9.59-8.26 1.651-1.944 2.454-4.372 3.478-6.668l1.078-2.416c.355-.613.765-1.198 1.065-1.84 1.531-3.277 2.267-6.802 3.09-10.28.776-3.274 3.155-5.914 4.28-9.04.178-.494.11-1.05.265-1.55.195-.628.555-1.193.778-1.81 1.403-3.88 2.562-8.026 3.187-12.102.646-4.212-.004-8.465.276-12.691.267-4.011.846-8.964 1.603-12.988.431-2.292.656-1.873.779-4.18.186-3.525-.324-7.137 0-10.653.087-.951.419-1.87.514-2.82.034-.34-.048-.684 0-1.021.076-.532.422-1 .51-1.53.042-.252-.055-.517 0-.766.55-2.471.327-.64 1.025-2.555 1.248-.67.236-1.732.51-2.556.004-.011.966-1.963 1.02-2.03.042-.051.174.061.199 0 .061-.155-.041-.34 0-.502.093-.368.39-.66.51-1.02.08-.242-.062-.518 0-.765.291-1.165.352-2.284.398-3.457z" style="opacity:1;fill:url(#i);fill-opacity:1;stroke:silver;stroke-width:2.71042;stroke-dasharray:none;stroke-opacity:.996078" transform="matrix(1.4295 0 0 1.07798 -422.153 -20.124)"/><ellipse cx="963.966" cy="382.588" rx="13.086" ry="9.588" style="opacity:1;fill:url(#i);fill-opacity:1;stroke:silver;stroke-width:1.93371;stroke-miterlimit:100;stroke-dasharray:none;stroke-dashoffset:0;stroke-opacity:.996078" transform="translate(-716.57 -294.312) scale(1.73997)"/></g></g><path id="k" d="M955.701 59.002c0 1.45.205 2.926 0 4.354-.615 4.288-2.375 8.189-3.248 12.404-.325 1.569-.316 3.228-.624 4.803-1.03 5.271-1.253 4.012-2.503 8.803-.84 3.22-.506 3.698-1.248 7.171-1.24 5.808-3.524 11.117-5.009 16.805-.27 1.039-.286 2.18-.624 3.187-1.432 4.27-4.71 8.417-6.862 11.952-2.586 4.248-4.908 9.248-8.13 12.776-6.148 6.729.57-1.061-4.368 3.984-.344.35-5.443 6.182-6.862 7.17-7.774 5.417-16.192 7.37-24.567 10.552-7.036 2.673-13.87 5.982-20.761 9.185-1.424.661-2.957.898-4.37 1.595-2.196 1.085-4.356 2.375-6.315 4.043-.49.417-.743 1.207-1.248 1.593-.563.433-1.324.331-1.871.797-1.68 1.43-2.75 4.028-4.367 5.578-6.957 6.664-11.385 17.835-15.722 27.305-1.014 3.543-3.564 5.71-5.032 8.832-1.055 2.242-1.501 4.884-2.496 7.171-4.91 11.292-9.181 27.102-7.611 40.137 1.409 11.703 3.912 23.22 6.503 34.564 4.717 20.644 10.055 37.197 22.846 51.74.892 1.015 1.557 2.36 2.534 3.237 8.258 7.414 20.141 7.767 29.436 9.239 17.415 2.758 34.892 4.665 52.396 6.086 2.49.202 5.006-.352 7.486 0 1.782.252 3.37.895 4.991 1.593 2.052.884 9.74 2.272 11 2.491 12.69 2.214 25.481 3.28 38.188 5.14 3.766.55 8.833 0 12.269 0h43.233c6.868 0 15.807 1.631 22.541-1.595 4.59-2.198 9.944-6.528 13.208-11.225 1.095-1.576 1.993-3.374 3.16-4.864.965-1.233 2.237-2.03 3.204-3.262.145-.185 4.9-7.875 5.033-8.067 4.112-5.926 8.492-12.569 9.414-20.816 1.786-15.963.366-34.692-3.144-50.266-1.004-4.454-3.263-8.477-4.402-12.844-.132-.504.13-1.09 0-1.593-.295-1.127-1.023-2.035-1.248-3.188-.202-1.03.202-2.156 0-3.187-.5-2.547-1.854-4.708-2.506-7.198-2.485-9.49-5.944-18.326-9.455-27.295-1.159-2.96-2.15-6.236-3.783-8.843-2.47-3.943.123.954-3.12-3.188-.53-.677-.717-1.713-1.247-2.39-.53-.677-1.303-.97-1.872-1.594-4.752-5.202-9.595-10.23-14.454-15.298-2.595-2.707-5.265-5.307-7.743-8.187-1.34-1.559-2.433-3.457-3.832-4.93-2.604-2.742-6.094-3.842-8.734-6.375-.96-.92-1.647-2.239-2.551-3.247-3.165-3.53-7.068-5.378-10.237-8.968-9.81-11.119-20.024-21.85-30.006-32.768-5.99-6.55-9.048-13.753-13.766-21.566-.728-1.205-1.812-2.012-2.529-3.23-.558-.949-.707-2.22-1.247-3.187-.513-.917-1.36-1.473-1.872-2.39-.974-1.743-1.633-3.742-2.495-5.578-2.393-5.094-5.685-17.62-8.734-21.514-.329-.42-.861-.467-1.248-.797-2.4-2.043-3.839-5.925-6.238-7.968-3.632-3.092-3.327-1.81-7.14-6.87z" style="opacity:1;fill:#fff;fill-opacity:.941436;stroke:#96ffea;stroke-width:3.86743;stroke-miterlimit:100;stroke-dasharray:none;stroke-opacity:1"/><ellipse cx="898.155" cy="382.5" rx="25.479" ry="35.477" style="opacity:1;fill:#fff;fill-opacity:.945602;stroke:#96ffea;stroke-width:3.384;stroke-dasharray:none;stroke-dashoffset:0;stroke-opacity:1"/><ellipse cx="1028.56" cy="388.539" rx="22.323" ry="34.346" style="opacity:1;fill:#fff;fill-opacity:.945602;stroke:#96ffea;stroke-width:3.384;stroke-dasharray:none;stroke-dashoffset:0;stroke-opacity:1"/><path d="M884.049 133.646c-.423 1.26-.738 2.995-.94 5.118.074-.538.135-1.16.215-1.631.27-1.593.478-2.257.725-3.487zm83.547 23.784c-1.944 3.207-4.733 7.242-9.178 12.11-1.689 1.848-1.597 1.976-4.732 4.94-.16.152-.405.401-.551.567.072-.28-.02-.434.049-.56-.527.586-1.237 1.374-2.02 2.228-.157.125-.495.35-.686.494.294-.181.386-.267.622-.422l-.178.195a126.593 126.593 0 0 1-3.246 3.42c-1.28 1.295-.927 1.854-7.48 6.42-15.544 10.83-28.666 13.454-33.647 15.346-4.721 1.793-10.685 4.622-17.977 8.012-.98.456-.886.381-1.668.738-1.643 1.632-2.02 2.106-5.168 5.121 3.423-3.279-1.338 3.31-6.22 13.74-2.888 8.22-5.533 12.606-6.237 12.68-.51 1.246-.567 1.537-1.345 3.326h.002c-2.749 6.32-4.445 18.33-4.436 18.4 1.095 9.095 3.227 19.186 5.752 30.237 3.666 16.049 6.511 23.871 11.127 30.244 1.82.459 4.51 1.123 9.361 1.89 16.085 2.548 32.499 4.35 49.23 5.708-5.935-.483-2.46-1.487 9.987.279 8.145 1.156 13.52 3.664 15.684 4.596-9.128-3.93-3.905-1.39-2.27-1.051 1.635.339 3.744.72 3.89.746 10.237 1.786 22.63 2.848 37.054 4.959-5.53-.81-1.722-.441 6.197-.441h43.232c2.077 0 3.37-.131 4.904-.227.433-.576.469-.715.987-1.377v-.002c2.025-2.586 2.585-3.153 3.588-4.322l1.224-1.973c.24-.387.446-.715.621-.996.176-.28-2.712 3.787 1.364-2.086v-.004c1.608-2.32 2.056-3.243 2.303-3.683.787-9.925-.188-24.056-2.489-34.268.644 2.855-.785-.38-2.91-7.66.19 1.895-1.11-1.545-2.986-11.127a41.942 41.942 0 0 1 0-.002c-.324-1.657-.202-1.287-.457-2.643-.435-1.508-.663-2.132-1.46-5.174v-.002c-1.685-6.436-4.426-13.662-7.937-22.63-.121-.31-.115-.258-.228-.538-.179-.28-.413-.632-.645-.927a41.942 41.942 0 0 1 0-.002c-1.028-1.313-.757-1.033-1.586-2.106-4.121-4.493-8.52-9.087-13.236-14.006-1.77-1.846-4.886-4.952-8.463-9.011-.845-.316-4.27-3.163-10.601-9.237-2.084-1.998-2.412-2.537-3.57-3.795-.189.522-4.331-2.661-11.634-10.937-9.115-10.33-19.15-20.885-29.511-32.217-.948-1.036-1.572-1.962-2.424-2.97zm-80.147 4.377c2.05 4.21 4.974 8.576 9.127 12.416.232.214.506.34.742.547l-9.869-12.963zm65.723 12.64c.45-.423.28-.274-.113.127.127-.13 0-.003.115-.119.003-.003-.005-.005-.002-.008zm-58.098 26.504c-.117.186-.87 1.42-1.54 2.49 1.385-1.825 1.726-2.785 1.54-2.49zm228.479 29c-.47 1.514-1.274 4.867-4.887 10.445-1.8 2.78-4.769 6.251-8.65 9.454.144-.116.333-.197.474-.315 11.253-9.433 11.827-15.937 12.701-18.486.874-2.55.831-2.612.362-1.098zm-63.432 34.578c.017-.14-.387 1.087-.45 3.635.146-1.971.436-3.518.45-3.635zm.178 73.992c-.998 1.347-.578.924-.63 1.006.079-.124.238-.377.442-.705l.188-.3z" style="opacity:1;fill:#d5fff5;fill-opacity:1;stroke:none;stroke-width:3.86743;stroke-miterlimit:100;stroke-dasharray:none;stroke-opacity:1;filter:url(#j)" transform="translate(-24.119 1.958)"/><g clip-path="url(#l)" style="display:inline;stroke:none;stroke-width:.966857"><g style="stroke:none;stroke-width:.966857"><ellipse id="d" cx="743.254" cy="289.663" rx="65.753" ry="114.831" style="opacity:1;fill:#d5fff5;fill-opacity:0;stroke:none;stroke-width:4.83429;stroke-miterlimit:100;stroke-dasharray:9.66857,4.83429;stroke-dashoffset:0;stroke-opacity:1"/></g><ellipse cx="743.254" cy="289.663" rx="65.753" ry="114.831" style="opacity:1;fill:#d5fff5;fill-opacity:1;stroke:none;stroke-width:4.83429;stroke-miterlimit:100;stroke-dasharray:9.66857,4.83429;stroke-dashoffset:0;stroke-opacity:1;filter:url(#m)" transform="translate(6.028 6.674)"/><ellipse cx="734.418" cy="262.756" rx="35.986" ry="54.225" style="opacity:1;fill:#f4f4f4;fill-opacity:.996078;stroke:none;stroke-width:1.93371;stroke-miterlimit:100" transform="translate(.258 5.181)"/><ellipse cx="753.389" cy="334.948" rx="29.629" ry="44.971" style="opacity:1;fill:#fdff3c;fill-opacity:1;stroke:none;stroke-width:4.83429;stroke-miterlimit:100;stroke-dasharray:none;stroke-opacity:1;filter:url(#n)"/><ellipse cx="713.148" cy="228.313" rx="42.818" ry="10.068" style="opacity:1;fill:#fff;stroke:none;stroke-width:1.93371;stroke-miterlimit:100" transform="rotate(90 706.546 224.234)"/><ellipse cx="726.215" cy="240.467" rx="10.027" ry="13.74" style="opacity:1;fill:#fff;stroke:none;stroke-width:1.93371;stroke-miterlimit:100"/></g><g clip-path="url(#o)" style="stroke:none;stroke-width:.966857"><g style="stroke:none;stroke-width:.966857"><ellipse id="e" cx="1198.434" cy="319.478" rx="70.571" ry="130.165" style="opacity:1;fill:#d5fff5;fill-opacity:0;stroke:none;stroke-width:4.83429;stroke-miterlimit:100;stroke-dasharray:9.66857,4.83429;stroke-dashoffset:0;stroke-opacity:1"/></g><ellipse cx="1198.434" cy="319.478" rx="70.571" ry="130.165" style="opacity:1;fill:#d5fff5;fill-opacity:1;stroke:none;stroke-width:4.83429;stroke-miterlimit:100;stroke-dasharray:9.66857,4.83429;stroke-dashoffset:0;stroke-opacity:1;filter:url(#p)" transform="translate(5.922 7.902)"/><ellipse cx="1199.771" cy="308.684" rx="37.636" ry="69.979" style="opacity:1;fill:#f4f4f4;fill-opacity:.996078;stroke:none;stroke-width:1.93371;stroke-miterlimit:100" transform="translate(-8.307 -10.47)"/><ellipse cx="1207.973" cy="363.358" rx="33.453" ry="55.096" style="opacity:1;fill:#fdff3c;fill-opacity:1;stroke:none;stroke-width:4.83429;stroke-miterlimit:100;stroke-dasharray:none;stroke-opacity:1;filter:url(#q)" transform="translate(4.192 3.417)"/><ellipse cx="1158.435" cy="265.498" rx="12.078" ry="52.386" style="opacity:1;fill:#fff;stroke:none;stroke-width:1.93371;stroke-miterlimit:100"/><ellipse cx="1192.651" cy="281.498" rx="10.744" ry="23.207" style="opacity:1;fill:#fff;stroke:none;stroke-width:1.93371;stroke-miterlimit:100"/></g><path d="M748.366 190.344c-4.48-21.82-4.028-44.622-2.035-66.582.575-6.335 1.771-7.7 3.127-14.413 2.387-11.809 4.143-32.44 15.324-39.894.894-.597 2.099-.54 3.06-1.02 7.553-3.777 11.22-3.617 19.509-6.178 7.947-2.457 22.274-6.635 30.646-3.045 13.02 5.584 12.3 22.054 12.3 33.746 0 4.479 1.01 10.225-1.02 14.286-1.702 3.403-14.42 9.234-17.381 10.221-9.605 3.202-16.453.556-19.388-10.204-3.63-13.312.89-31.045 6.234-43.072 2.063-4.642 4.514-9.464 6.123-14.286 1.516-4.545.26-3.956 3.095-8.197 7.592-11.359 24.674-12.431 36.735-11.225 2.791.28 5.387 1.644 8.163 2.04 1.01.145 2.094-.322 3.062 0 1.163.389 1.996 1.433 3.06 2.042 7.245 4.14 14.953 7.063 21.43 12.245 6.798 5.438.075.365 5.102 2.04 2.145.715 8.79 5.022 10.204 7.143.843 1.266 1.156 2.844 2.04 4.082.84 1.174 2.346 1.808 3.062 3.061.695 1.218.576 2.752 1.02 4.082 4.57 13.683 4.132 27.26 4.132 41.499v71.43M1206.344 215.776c-1.555-19.006 8.042-40.151 6.314-60.194-1.063-12.337-4.307-24.57-5.202-36.946-.948-13.112-2.281-26.006-5.162-38.908-.207-.929-1.503-7.924-2.058-9.218-3.063-7.148-.79.384-4.081-5.102-.554-.922-.54-2.1-1.02-3.061-2.407-4.814-10.388-8.565-15.307-10.204-5.683-1.895-10.36-2.041-16.326-2.041-3.742 0-7.502-.373-11.225 0-6.11.612-7.96 2.394-14.323 5.121-9.729 4.171-15.225 11.117-21.428 19.388-5.122 6.83-10.071 16.89-7.176 25.575 1.981 5.943 24.647 29.55 31.642 22.555 2.732-2.732 3.084-6.712 4.082-10.204.503-1.761 1.596-3.325 2.04-5.102 1.6-6.402-.329-15.135-1.037-21.446-1.203-10.716-1.159-24.833-6.14-34.794-1.111-2.224-3.908-5.815-6.122-7.143-2.221-1.333-4.862-1.833-7.143-3.061-5.949-3.204-16.458-9.833-23.503-11.242-2.453-.49-5.57 0-8.08 0-2.886 0-6.342-.473-9.184 0-5.427.905-17.493 9.448-21.167 12.203-4.16 3.121-6.886 8.422-10.27 12.262-12.706 14.416-21.496 31.32-28.613 49.107-2.33 5.823-6.252 12.047-7.16 18.402-1.48 10.356.038 21.047-1.02 31.632-.374 3.739-.891 7.775-2.04 11.225-1.674 5.018 1.041 11.628 0 16.838-1.246 6.223-1.021-2.742-1.021 1.972" style="opacity:1;fill:none;fill-opacity:1;stroke:#96ffea;stroke-width:4.83429;stroke-miterlimit:100;stroke-dasharray:9.66857,4.83429;stroke-dashoffset:0;stroke-opacity:1"/><ellipse cx="882.969" cy="190.917" rx="12.47" ry="14.369" style="opacity:1;fill:#fff;fill-opacity:1;stroke:none;stroke-width:.966857;stroke-miterlimit:100;stroke-dasharray:.966857,1.93371;stroke-dashoffset:0;stroke-opacity:1"/><ellipse cx="927.191" cy="198.437" rx="10.079" ry="12.89" style="opacity:1;fill:#fff;fill-opacity:1;stroke:none;stroke-width:.966857;stroke-miterlimit:100;stroke-dasharray:.966857,1.93371;stroke-dashoffset:0;stroke-opacity:1"/><ellipse cx="861.846" cy="229.252" rx="8.002" ry="20.872" style="opacity:1;fill:#fff;fill-opacity:1;stroke:none;stroke-width:.966857;stroke-miterlimit:100;stroke-dasharray:.966857,1.93371;stroke-dashoffset:0;stroke-opacity:1"/><path d="M866.533 327.626c.176-3.524-.216-7.064 0-10.587.297-4.843.41-2.833 1.526-7.233 1.361-5.368 3.025-11.14 3.397-16.608.282-4.142-.342-8.318 0-12.459.261-3.153 1.15-6.485 1.896-9.585.435-1.805 1.496-3.49 1.913-5.296.506-2.189.82-4.403 1.425-6.584.48-1.73 1.612-3.497 1.878-5.242.093-.614-.17-1.244 0-1.85.153-.549.726-1.014.95-1.551.326-.782.717-3.341.947-4.036 1.165-3.52 2.414-7.13 4.273-10.53.408-.746 1.095-1.424 1.428-2.186.31-.708.186-1.477.487-2.186 1.363-3.215 3.48-6.198 6.135-8.986.37-.39.483-.885.939-1.234.51-.39 1.284-.59 1.878-.925.159-.09 2.371-1.85 2.818-1.85 1.721 0 2.767 1.388 3.817 2.284 5.86 4.993 10.063 10.806 12.83 16.811 1.488 3.232 1.554 4.82 2.45 7.946 2.681 9.335 2.911 18.023 2.911 27.475 0 5.372.313 10.8 0 16.165-.183 3.147-1.517 6.215-1.96 9.329-.154 1.08.083 2.17 0 3.254-.074.964-.386 1.915-.47 2.878-.215 2.484.252 4.997 0 7.479-.045.439-.897 3.29-.959 3.719-.217 1.513 0 3.104 0 4.626 0 2.178-.315 4.415.47 6.476.528 1.386 0 4.049 0 5.507" style="opacity:1;fill:none;fill-opacity:1;stroke:#96ffea;stroke-width:4.83429;stroke-dasharray:none;stroke-dashoffset:0;stroke-opacity:1"/><ellipse cx="832.964" cy="324.703" rx="26.886" ry="13.378" style="opacity:1;mix-blend-mode:normal;fill:#ff2a37;fill-opacity:1;stroke:none;stroke-width:3.86743;stroke-miterlimit:100;stroke-dasharray:none;stroke-opacity:1;filter:url(#r)"/><path d="M1015.487 340.076c-1.327-14.317 1.936-27.974 3.936-41.986.224-1.567.65-3.113.794-4.687.08-.885-.067-6.085 0-7.244.068-1.186.314-2.36.39-3.546.055-.826-.123-1.66 0-2.48.13-.855.573-1.656.75-2.503.199-.953.205-1.93.375-2.887.615-3.47 1.08-6.878 1.56-10.367.283-2.06.946-4.138 1.116-6.206.53-6.419-.807 1.479.784-5.095.814-3.365.398-6.961 1.824-10.214 1.063-2.422 2.637-4.509 3.995-6.837 1.034-1.772 2.747-6.849 4.69-7.71.343-.151 1.813 0 2.08 0 .682 0 1.875-.185 2.525 0 3.444.982 7.915 8.459 9.074 11.185 1.25 2.937.635 1.983 1.828 6.226.935 3.325 1.694 6.66 1.882 10.105.07 1.313-.063 2.63 0 3.943.203 4.25.397 8.418.397 12.68 0 2.514-.139 5.03 0 7.54.054.973.322 1.931.375 2.904.28 5.12 0 10.321 0 15.446 0 16.035-.32.874.375 8.92.342 3.958-.293 7.974 0 11.936.215 2.91.908 5.784 1.125 8.695.216 2.894-.191 5.824 0 8.719.072 1.088.334 2.395.727 3.402.18.463-.18 1.08 0 1.542.349.893.534.42.722 1.542.146.872 0 1.887 0 2.776" style="opacity:1;fill:none;fill-opacity:1;stroke:#96ffea;stroke-width:4.83429;stroke-dasharray:none;stroke-dashoffset:0;stroke-opacity:1"/><ellipse cx="1099.625" cy="333.217" rx="26.886" ry="13.378" style="opacity:1;mix-blend-mode:normal;fill:#ff2a37;fill-opacity:1;stroke:none;stroke-width:3.86743;stroke-miterlimit:100;stroke-dasharray:none;stroke-opacity:1;filter:url(#r)"/><ellipse cx="848.143" cy="187.768" rx="14.38" ry="23.677" style="opacity:1;fill:#fff;fill-opacity:1;stroke:none;stroke-width:3.384;stroke-dasharray:none;stroke-dashoffset:0;stroke-opacity:1"/><ellipse cx="991.3" cy="546.595" rx="22.323" ry="39.719" style="opacity:1;fill:#fff;fill-opacity:.904913;stroke:#96ffea;stroke-width:3.384;stroke-dasharray:none;stroke-dashoffset:0;stroke-opacity:1"/><ellipse cx="942.531" cy="546.559" rx="24.26" ry="41.354" style="opacity:1;fill:#fff;fill-opacity:.904913;stroke:#96ffea;stroke-width:3.38401;stroke-dasharray:none;stroke-dashoffset:0;stroke-opacity:1"/><path d="M957.676 335.728c.12 2.186-.555 4.412.102 6.561.09.8.359 1.443.674 2.181.25.928 1.135 1.499 2.07 1.29.627.109.854-.587 1.389-.685.56-.522 1.053-1.025 1.38-1.735l.604-3.041c.26-1.918.03-2.103.383-3.314.138 1.323.47 1.878.213 4.455-.02.879-.13 1.768-.022 2.643.173.44.077-.292.204.232.054.482.275.896.579 1.165.164.795.986 1.35 1.639 1.79.734.087 1.26-.628 1.775-1.055.544-.414.85-1.122 1.432-1.448.449-.69.328-1.589.333-2.379-.027-2.157-.137-4.311-.157-6.468" style="fill:none;fill-opacity:1;stroke:#96ffea;stroke-width:2.90057;stroke-linecap:butt;stroke-linejoin:round;stroke-miterlimit:100;stroke-dasharray:none;stroke-opacity:1"/><g style="fill:url(#s);fill-opacity:1;stroke-width:.966857" transform="translate(-26.131 -32.91)"><path d="M895.037 373.302c0 6.522-3.4 11.81-7.594 11.81-4.194 0-7.594-5.288-7.594-11.81s4.983-9.87 7.524-23.02c2.461 13.214 7.664 16.498 7.664 23.02z" style="fill:url(#t);fill-opacity:1;stroke-width:2.90057;stroke-miterlimit:100"/></g><g style="fill:url(#u);fill-opacity:1;stroke-width:.966857" transform="translate(174.174 -18.354)"><path d="M895.037 373.302c0 6.522-3.4 11.81-7.594 11.81-4.194 0-7.594-5.288-7.594-11.81s4.983-9.87 7.524-23.02c2.461 13.214 7.664 16.498 7.664 23.02z" style="fill:url(#v);fill-opacity:1;stroke-width:2.90057;stroke-miterlimit:100"/></g></g></svg>