<svg xmlns="http://www.w3.org/2000/svg" xmlns:xlink="http://www.w3.org/1999/xlink" viewBox="0 0 640 960">
  <defs>
    <linearGradient id="b">
      <stop offset="0" stop-color="#2472ff"/>
      <stop offset="1" stop-color="#2472ff" stop-opacity="0"/>
    </linearGradient>
    <linearGradient id="a" gradientTransform="matrix(.37 0 0 .266 235.958 -244.994)">
      <stop offset="0" stop-color="#aca700"/>
    </linearGradient>
    <linearGradient id="f" gradientTransform="matrix(.451 0 0 .324 201.902 -160.518)">
      <stop offset="0" stop-color="#ebebd5"/>
    </linearGradient>
    <linearGradient xlink:href="#a" id="m" x1="68.808" x2="525.71" y1="396.613" y2="396.613" gradientUnits="userSpaceOnUse"/>
    <linearGradient xlink:href="#b" id="n" x1="171.82" x2="173.947" y1="491.706" y2="440.533" gradientTransform="matrix(.788 0 0 1.248 293.35 -171.9)" gradientUnits="userSpaceOnUse"/>
    <clipPath id="k" clipPathUnits="userSpaceOnUse">
      <use xlink:href="#c"/>
    </clipPath>
    <clipPath id="h" clipPathUnits="userSpaceOnUse">
      <use xlink:href="#d"/>
    </clipPath>
    <clipPath id="g" clipPathUnits="userSpaceOnUse">
      <use xlink:href="#e"/>
    </clipPath>
    <filter id="l" width="1.428" height="1.35" x="-.214" y="-.175" color-interpolation-filters="sRGB">
      <feGaussianBlur stdDeviation="5.26 11.874"/>
    </filter>
    <filter id="i" width="1.207" height="3.231" x="-.104" y="-1.096" color-interpolation-filters="sRGB">
      <feGaussianBlur stdDeviation="13.334"/>
    </filter>
  </defs>
  <path fill="url(#f)" stroke="#aca700" stroke-miterlimit="100" stroke-width="3" d="m186.814 659.568-40.57 212.292 10.815-210.2-66.812 132.424 37.358-164.812L19.37 892.166l125.28-428.37L69.205 626.22l31.43-242.04-62.677 221.386 79.971-361.921-87.245 116.65 94.453-185.384-101.573 49.343 109.157-89.897-90.623 28.97 123.924-71.161-87.92-3.361L334.76 59.947l-20.69-25.532 100.551 36.21 96.617-16.661-70.957 17.297 133.16 64.584-63.331-15.622 73.546 90.125-60.067-47.132 76.849 186.353-68.5-84.168 67.609 253.417-79.004-115.159 68.895 208.698-72.787-91.626 44.38 185.685-61.9-109.85 110.696 283.34L504.721 667.57l-32.957 231.114-3.13-135.188-77.494 159.502-4.387-142.764-43.7 161.84-10.19-30.914-12.2 32.249-76.733-125.464-13.364 78.355Z"/>
  <g clip-path="url(#g)">
    <path id="e" fill="#e1e1e1" stroke-miterlimit="100" stroke-width="3" d="M286.44 378.594 188.82 994.86l246.848-14.164-46.8-606.148Z"/>
    <ellipse cx="351.096" cy="856.522" fill="#fff" rx="19.477" ry="34.742"/>
    <ellipse cx="283.54" cy="753.276" fill="#fff" rx="9.313" ry="21.727"/>
    <ellipse cx="352.875" cy="726.978" fill="#fff" rx="11.503" ry="20.994"/>
    <ellipse cx="313.308" cy="816.625" fill="#fff" rx="7.003" ry="15.691"/>
    <ellipse cx="263.688" cy="874.186" fill="#fff" rx="18.381" ry="35.115"/>
    <ellipse cx="292.518" cy="907.695" fill="#fff" rx="24.243" ry="29.599"/>
    <ellipse cx="279.069" cy="969.259" fill="#fff" rx="23.448" ry="32.117"/>
    <ellipse cx="324.79" cy="961.206" fill="#fff" rx="31.782" ry="37.982"/>
    <ellipse cx="383.357" cy="921.009" fill="#fff" rx="9.123" ry="23.293"/>
    <ellipse cx="408.549" cy="863.595" fill="#fff" rx="9.343" ry="22.682"/>
    <ellipse cx="400.698" cy="968.964" fill="#fff" rx="12.641" ry="14.171"/>
    <ellipse cx="430.568" cy="956.13" fill="#fff" rx="8.402" ry="16.867"/>
    <ellipse cx="232.003" cy="962.989" fill="#fff" rx="17.877" ry="24.033"/>
    <ellipse cx="225.024" cy="896.398" fill="#fff" rx="11.475" ry="16.067"/>
  </g>
  <path fill="#ccbdb4" stroke="#9e644a" stroke-dasharray="5,5" stroke-miterlimit="100" stroke-width="5" d="M379.332 404.729c-5.667-.122-11.514.351-16.936.351-6.329 0-15.305-1.222-21.302 1.022-4.576 1.711-34.474-.9-36.418-1.022-11.26-.704-22.01 3.063-33.315 3.063-3.905 0-7.058-1.064-8.683 3.025-.377.948.247 2.073 0 3.062-.445 1.778-1.597 3.325-2.041 5.102-.805 3.218-.475 6.938-1.02 10.205-.6 3.598-4 7.426-5.068 10.629-.66 1.98 1.887 7.7 2.058 9.219.372 3.304-.581 9.825-1.021 12.244-1.527 8.395-13.758 10.836-12.244 21.43 1.146 8.023 8.676 10.209 12.262 17.38 2.221 4.444-2.128 10.544-3.063 14.286-.814 3.254-3.466 6.885-4.02 10.205-1.365 8.191-13.729 15.492-12.373 27.699.635 5.715 5.125 9.853 6.163 15.389 1.981 10.57.253 21.03 1.021 31.632.46 6.354 1.963 12.94 1.037 19.42-.972 6.802-12.063 16.066-14.285 23.471-1.438 4.793.791 18.975 2.05 23.49 1.516 5.432 8.492 10.937 7.124 16.408-.677 2.708-4.485 6.198-6.123 8.165-5.544 6.652-9.319 15.15-11.27 23.568-2.456 10.597-3.835 21.24-2.09 31.709 1.001 6.003 5.744 11.313 5.12 17.38-.716 6.95-3.991 23.285-7.165 29.63-3.001 6-7.794 11.354-10.197 17.361-1.472 3.68-1.014 7.37-2.039 11.225-1.983 7.457-4.88 15.843-6.166 23.554-.168 1.007.28 2.08 0 3.06-.418 1.463-1.56 2.64-2.04 4.083-2.025 6.073-1.704 12.623-2.968 18.805 7.285 7.137-11.799 57.386-11.797 83.843-.003 22.094 20.586 15.303 14.97 25.416.975.088 1.926.128 2.769-.04 3.433-.687 6.586-2.668 10.238-3.079.313-.035 3.196-.368 6.113-.654-2.759-5.816-4.279-12.849-4.343-20.098 0-19.041 9.84-34.477 21.978-34.476 10.245.002 19.131 11.108 21.42 26.773 2.987-11.463 9.354-20.78 17.611-25.773-2.165-5.834-3.543-12.496-4.025-19.457-1.152.593-2.323.91-3.498.943-10.314 0-18.676-21.283-18.676-47.537 0-26.255 8.361-47.539 18.676-47.54 10.255.006 18.59 21.058 18.672 47.161 3.06-2.31 6.345-3.5 9.664-3.504 13.826 0 25.035 20.176 25.035 45.064a79.65 79.65 0 0 1-.756 10.797c5.038-5.72 11.058-8.809 17.234-8.84 16.537.001 29.942 21.456 29.942 47.922-.006 9.595-1.811 18.966-5.182 26.9 1.23.069 2.458.143 3.676.014 2.553-.268 15.23-2.722 19.445-3.078 2.706-.228 5.484-.053 8.258.086a38.87 38.87 0 0 1-.605-6.539c0-12.898 6.109-23.354 13.646-23.355 7.538-.001 13.649 10.456 13.649 23.355a38.912 38.912 0 0 1-.504 5.436c.05 0 .097-.004.148-.004 3 0 5.97.042 8.926.172-1.654-6.127-2.562-13.462-2.6-21.01 0-20.33 6.183-36.81 13.809-36.81 5.367.122 10.221 8.523 12.447 21.542.659-1.46 1.136-2.391.725-4.445-.761-3.805-3.109-7.47-4.082-11.225-.878-3.386 1.409-11.435 0-14.103-2.883-5.457 1.317 11.388-3.06-6.123-1.127-4.505 1.469-10.35 0-14.758-1.319-3.954-5.505-7.985-8.067-11.225-1.441-1.821-3.742-17.543-3.987-19.748-.686-6.174-.417-13.449 1.022-19.388.638-2.632 3.848-8.64 3.02-11.116-1.265-3.776-7.807-14.968-9.235-17.414-.618-1.059-1.704-1.881-2.04-3.06-1.774-6.206 3.264-7.15 4.817-11.069.71-1.788.204-8.404 0-10.177-.272-2.373-2.862-12.598-3.187-13.498-.79-2.19-2.352-4.046-3.139-6.237-.989-2.752-1.23-5.73-2.158-8.504-.83-2.482-2.509-4.665-3.101-7.214-1.156-4.972 1.097-9.57 2.04-14.286.973-4.864 2.042-13.075 2.042-17.347 0-1.403-.867-2.688-1.022-4.082-.188-1.69.368-3.441 0-5.102-.796-3.589-3.24-6.663-4.098-10.238-1.221-5.095-2.36-10.223-3.109-15.408-1.334-9.242 3.02-18.211 6.166-26.59.648-1.727 1.752-3.318 2.057-5.137.393-2.348-.198-4.77 0-7.142.144-1.729.681-3.401 1.021-5.102l1.02-12.244c.309-5.567.926-12.81 0-18.367-1.377-8.258-3.114-16.93-2.041-25.512.63-5.046 7.244-9.59 5.101-15.305-2.436-6.496-3.2-5.383-6.12-11.224-1.16-2.317-1.905-4.826-3.063-7.143-2.086-4.171-5.406-6.218-6.121-11.225-.627-4.385-.906-12.82 0-17.347 1.037-5.19 3.817-10.171 5.101-15.307.81-3.242 0-7.893 0-11.224 0-5.443.432-10.902 0-16.327-.545-6.855-2.729-14.07-4.197-20.597-3.036-13.496-5.758-26.97-11.774-39.662-1.453-1.815-2.786-3.734-4.36-5.444-.373-.404-1.16.248-1.65 0-4.696-2.377-10.182-3.093-15.849-3.215zm-29.195 288.064c7.082-.002 12.824 9.982 12.824 22.299 0 12.315-5.742 22.298-12.824 22.297-7.081 0-12.822-9.983-12.823-22.297 0-12.315 5.741-22.299 12.823-22.299zm-66.158 17.797c5.71 0 10.34 10.695 10.34 23.889 0 13.194-4.63 23.89-10.34 23.89-5.711 0-10.34-10.696-10.34-23.89s4.63-23.89 10.34-23.89zm29.402 74.748c3.407 0 6.17 8.868 6.17 19.807 0 10.94-2.762 19.808-6.17 19.808s-6.17-8.869-6.17-19.808c0-10.94 2.762-19.807 6.17-19.807zm36.924 12.754c11.943 0 21.625 17.947 21.625 40.088 0 22.14-9.682 40.086-21.625 40.086s-21.625-17.947-21.625-40.086c0-22.14 9.681-40.089 21.625-40.088zm59.63 25.187c4.426.002 8.014 10.471 8.014 23.385 0 12.915-3.587 23.385-8.013 23.387-4.427 0-8.016-10.47-8.016-23.387 0-12.916 3.589-23.386 8.016-23.385zm-182.443 41.45c4.572.002 8.278 9.306 8.278 20.783 0 11.476-3.706 20.779-8.278 20.781-4.572 0-8.279-9.303-8.28-20.781 0-11.479 3.708-20.784 8.28-20.783zm155.488 15.398c4.923.002 8.913 10.661 8.913 23.809 0 13.147-3.99 23.806-8.913 23.808-4.923 0-8.914-10.659-8.914-23.808 0-13.15 3.991-23.81 8.914-23.81zm68.858 73.453c-.313 8.663-1.768 16.75-4.106 22.826 2.815 1.477 5.653 2.89 5.866 2.553.183-.291.401-17.678 0-19.666-.387-1.915-1.086-3.812-1.76-5.713zm-197.58 16.916a40.788 40.788 0 0 1-2.627 6.49c1.332-.034 2.663-.056 4.006-.1a56.327 56.327 0 0 1-1.38-6.39z"/>
  <path fill="#ccbdb4" stroke="#9e644a" stroke-miterlimit="100" stroke-width="7" d="M285.129 453.01c.018 10.112 2.602 19.715 5.433 29.329 3.414 11.596 6.278 24.095 11.43 35.073 4.296 9.157 10.92 19.197 16.176 28.007 1.028 1.724 2.59 3.118 3.474 4.921 2.482 5.067 5.691 19.238 6.972 25.102.58 2.658.1 5.466.597 8.141.946 5.087 2.878 10.866 2.21 16.209-.684 5.482-11.658 21.96-8.341 26.222 1.207 1.552 10.547 5.294 12.808 7.247 1.649 1.423 2.878 3.276 4.444 4.79.135.13 8.67 7.384 8.82 7.578 2.618 3.364 5.4 9.673 6.133 13.874 2.378 13.62-12.69 22.538-11.725 35.701.1 1.357-.315 2.857.299 4.07 5.419 10.724 20.61 20.675 29.254 28.147 1.82 1.573 4.408 2.554 5.462 4.716.447.917.149 2.035.224 3.053 1.578 21.554 1.465 1.727-1.755 19.767-1.247 6.988-2.026 18.961.79 25.716 2.857 6.856 1.385 1.32 5.61 6.751.66.849.562 2.145 1.241 2.979 7.843 9.622 22.66 17.388 26.737 29.758 1.196 3.63 3.007 7.28 2.877 11.1-.227 6.622-13.77 16.854-9.754 23.603.492.827 1.516 1.194 2.184 1.886 1.182 1.224 1.993 2.824 3.352 3.847 6.388 4.81 14.835 6.103 21.403 10.807 7.743 5.547 6.92 8.943 8.466 17.796.241 1.382 1.017 2.626 1.316 3.996.833 3.812.61 8.317.895 12.212.164 2.242 1.632 7.894.718 9.802-.18.376-.83.061-1.246.092-1.357.1-2.71.265-4.071.298-9.68.237-20.176-.29-29.927 1.13-7.8 1.134-15.5 2.468-23.257 3.75-3.02.5-6.137.186-9.16.671-14.044 2.253-27.794 5.791-41.256 10.225-1.567.516-3.52-.144-5.088.372-6.156 2.028-12.698 2.32-19.187 3.453-5.564.971-10.612 2.358-16.133 3.229-2.376.374-4.691 1.067-7.05 1.54-.333.066-.782-.172-1.017.074-.213.222.233.66.067.92-.293.458-1.112-.054-1.628.119-1.81.605-5.732 2.58-7.81 1.595-3.935-1.864 1.226-8.634 2.209-12.877.47-2.028.18-4.175.567-6.22.874-4.635 2.17-9.18 3.204-13.78 2.364-10.517.815-21.266.822-31.998.007-10.914.993-21.75.812-32.72-.093-5.635-.918-13.303-2.36-18.244-2.86-9.797-9.684-18.848-13.62-28.283-2.567-6.152-4.311-12.745-6.525-19.012-1.325-3.754-3.827-7.06-4.89-10.896-.902-3.25-1.353-17.823-.55-21.446 1.37-6.17 2.52-6.488 4.269-11.567 1.52-4.413 1.188-8.95 2.083-13.454.363-1.826 1.477-3.468 1.715-5.315.594-4.624-.185-12.851-1.27-17.317-1.977-8.142-6.027-14.02-10.799-20.795-1.152-1.636-2.689-3.06-3.46-4.907-1.093-2.615-1.043-9.38-.897-12.234.236-4.61.992-3.97 2.456-8.365 3.689-11.069 7.808-23.488 5.62-35.258-1.17-6.285-1.713-4.408-3.874-10.971-1.085-3.295-1.49-6.808-2.781-10.028-3.429-8.545-10.156-16.263-9.216-26.194.236-2.487 1.162-4.864 1.55-7.332.438-2.8.557-8.41 1.214-11.344 2.163-9.65.996-1.205 3.438-9.52 1.596-5.435.525-11.248 1.86-16.506.118-.467.86-.619.943-1.093 1.353-7.796-4.042-15.511-3.751-23.257.282-7.521 4.891-14.672 5.558-21.893.565-6.127.943-12.4 1.71-18.542.237-1.899-.916-4.259-.447-6.106 1.147-4.52 4.662-3.417 5.68-4.484 1.603-1.678 3.09-10.841 3.285-11.023.637-.59 2.37-.742 2.72-2.152.163-.66-.317-1.376-.15-2.035 1.21-4.767 1.124 4.252 1.812-3.202.115-1.244-.1-5.75.496-7.199.13-.314.795.183 1.017-.074.802-.928 1.208-2.135 1.812-3.202.972-1.718 2.538-8.505 3.288-9.396 2.422-2.877 5.286 5.448 7.21 8.68 6.06 10.185 10.003 20.468 6.253 31.893z"/>
  <path fill="#ccbdb4" stroke="#9e644a" stroke-dasharray="5,5" stroke-miterlimit="100" stroke-width="5" d="M336.915 387.272c14.956 15.213 30.867 29.998 44.87 45.638 5.31 5.933 4.8 27.643 6.383 35.73 1.043 5.33 3.251 10.593 4.217 15.928.639 3.532-.38 7.28 0 10.823.666 6.216 2.013 4.28 1.088 10.883-.809 5.773-2.338 11.585-3.177 17.377-.562 3.883-2.62 7.64-3.134 11.544-.157 1.198.216 2.415 0 3.608-.88 4.86-.409.566-2.089 2.886-.492.68-.98 4.174-1.044 4.292-1.385 2.543-3.712 4.78-5.223 7.216-.7 1.127.193 2.728-1.045 3.607-1.274.905-2.62-1.24-2.688-1.343-11.5-17.511 5.805 8.47-6.524-11.082-2.1-3.328-5.4-6.253-7.473-9.589-1.01-1.623-1.216-3.441-2.13-5.091-3.686-6.648-9.61-15.322-10.689-22.78-.664-4.585-.981-9.116-2.09-13.71-.76-3.152-2.483-6.233-3.134-9.38-.295-1.429.41-2.914 0-4.33-.152-.527-.916-.912-1.044-1.442-.573-2.373.27-4.818 0-7.216-2.07-18.375.006 3.695-2.106-7.975-.388-2.147.265-4.336 0-6.493-.17-3.19-1.69-6.256-2.106-9.42-.157-1.198.192-2.412 0-3.608-1.559-9.69-.17 5.433-2.09-6.493-.153-.957.198-1.934 0-2.887-.155-.753-.696-1.443-1.044-2.164-.348-1.203-.824-2.391-1.044-3.608-1.009-5.571-1.362-11.056-3.152-16.622-.804-2.503-1.782-5.393-2.089-7.937-.231-1.917.277-3.857 0-5.772-.077-.535-.798-.933-1.044-1.443-.693-1.436 0-4.233 0-5.63 0-.914 3.32-5.976 4.178-5.772 1.996.473 3.615 1.503 5.423 2.255z"/>
  <path fill="#ccbdb4" stroke="#9e644a" stroke-dasharray="5,5" stroke-miterlimit="100" stroke-width="5" d="m431.676 365.909 50.01 84.764-47.292-17.001 21.348 64.551L322.41 383.54l-86.782 129.907 4.358-75.086-73.193 32.05 61.332-117.327z"/>
  <path fill="#fff" stroke="#cdcdcd" stroke-miterlimit="100" stroke-width="4" d="m482.548 351.005 60.47 498.67-91.19-16.82 10.846-467.236ZM177.79 361.348 120.387 828.62l91.831-26.814-18.055-441.61Z"/>
  <path fill="#ccbdb4" stroke="#9e644a" stroke-dasharray="5,5" stroke-miterlimit="100" stroke-width="5" d="M320.574 392.952c3.585 26.105 3.354 52.258 3.354 78.465 0 5.472.55 11.296 0 16.775-1.12 11.176-.66 1.339-2.137 9.446-3.045 16.71.198.305-1.061 13.775-1 10.697-4.136 21.678-7.642 32.094-.499 1.482-1.612 2.844-2.09 4.33-.226.704.33 1.48 0 2.164-.397.823-1.622 1.36-2.089 2.165-1.654 2.857-1.627 6.092-2.745 5.763-1.797-.53-5.01-2.445-5.969-2.887-16.131-7.428-11.607-9.398-15.767-22.595-.475-1.504-1.425-2.917-2.137-4.375-.716-1.947-1.567-3.871-2.146-5.839-1.345-4.565-2.093-9.39-4.238-13.834-3.835-7.947-1.82 4.814-4.226-10.869-.596-3.886 0-7.816 0-11.725 0-3.324-.816-7.482 0-10.823 2.844-11.648 6.71-22.94 11.615-34.232.764-1.76 2.313-3.32 3.15-5.063 1.559-3.241 2.151-7.007 4.18-10.158l3.133-4.33c.696-.72 1.526-1.389 2.09-2.164.382-.527 6.905-9.162 7.399-10.186.33-.684-.172-1.452 0-2.164.493-2.042 1.116-1.932 2.09-3.608 3.277-5.647 1.187-4.532 8.133-9.33.697-.48 1.538-.88 2.09-1.443.186-.19-.329-.734 0-.692 1.76.228 3.342.893 5.013 1.34z"/>
  <ellipse cx="328.101" cy="401.544" fill="#ccbdb4" stroke="#9e644a" stroke-dasharray="5,5" stroke-miterlimit="100" stroke-width="5" rx="32.065" ry="24.102"/>
  <g stroke-width="1.22" clip-path="url(#h)" transform="matrix(.82 0 0 .82 63.754 13.76)">
    <path id="d" fill="#fff" stroke-width="1.22" d="M118.839 219.41c6.251-17.487 13.646-34.817 23.336-51.018 4.3-7.19 8.654-13.484 16.187-18.271 1.588-1.009 3.018-2.308 4.83-2.938 12.425-4.323 28.006-5.08 40.932-6.241 15.221-1.369 30.532-2.494 45.727-3.969.093-.009 20.444-2.04 21.842-3.03.154-.11-.183-.468 0-.53 3.407-1.14 8.462-.505 11.983-.721 2.206-.136 4.373-.668 6.582-.75 13.266-.493 26.674-.05 39.884.733 3.207.19 6.436-.207 9.642 0 3.84-.164 7.46 1.205 11.232 1.47 1.93.137 3.874-.11 5.806 0 4.65.267 9.23 1.245 13.88 1.49 2.464.131 4.938-.104 7.402 0 7.883.335 15.565 1.58 23.391 2.222 5.483.45 1.458-.936 8.828.733.366.083.463.57.8.723.038.017 1.46-.016 1.53 0 5.656 1.304 11.25 1.873 16.966 2.898 2.764.495 5.306 1.835 8.095 2.194 1.056.136 2.175-.264 3.2 0 .925.238 1.508 1.121 2.401 1.443.495.179 1.094-.153 1.6 0 1.956.59 3.74 1.584 5.685 2.201 8.815 2.797 17.044 3.484 24.445 7.297 4.888 2.519 8.584 6.842 12.802 10.102 1.012.782 2.333 1.251 3.2 2.164.777.817.969 1.974 1.6 2.886 1.105 1.593 2.93 2.719 4.001 4.33 1.173 1.762 1.554 3.864 2.4 5.772.958 2.159 2.059 7.628 4.001 9.38.189.17.603-.162.8 0 .359.293-.182.904 0 1.308 1.16 2.566 2.474 5.527 4.001 7.937.954 1.506 2.34 2.778 3.2 4.329 1.367 2.465 1.352 5.41 2.414 7.961.95 2.278 2.754 4.795 3.201 7.215.475 2.569.324 5.36.8 7.937.277 1.5 1.323 2.83 1.6 4.33.814 4.402-.3 13.529-2.4 17.316L492.447 443.67c-57.749 41.471-294.214 39.701-336.115-1.732z"/>
    <path fill="none" stroke="#000" stroke-miterlimit="100" stroke-width="8.542" d="M156.332 441.938c41.901 41.433 278.366 43.203 336.115 1.732" filter="url(#i)" style="mix-blend-mode:normal"/>
    <path fill="#d7d7d7" d="m416.968 169.344-37.411 289.122-8.502-165.505-60.236 288.265 20.256-235.505-64.835 242.145 15.384-162.584-51.418 144.765-9.213-15.167 69.04-267.998-74.43-119.803 192.602-31.855Z"/>
  </g>
  <path fill="url(#f)" stroke="url(#a)" stroke-miterlimit="100" stroke-width="2" d="m201.313 354.307 19.806 168.214-20.507-95.267-12.865 113.635.394-108.497-28.547 104.32 19.79-172.363"/>
  <ellipse cx="391.976" cy="349.602" fill="none" stroke="#000" stroke-dasharray="2,1" stroke-miterlimit="100" opacity=".151" rx="15.568" ry="19.471"/>
  <use xlink:href="#j" stroke-width="1.22" transform="translate(208.192 5.484)"/>
  <path fill="url(#f)" d="M113.548 151.908c34.367-33.459 45.125-35.329 75.662-45.574 2.863-.96 5.694-2.31 8.68-2.907 11.268-2.254 22.917-1.443 34.55-1.443 6.96 0 14.16-.513 21.104 0 6.77.5 5.272 1.123 12.379 1.5 2.521.134 5.054-.132 7.576 0 2.55.133 5.067.684 7.618.794 3.62.155 7.258-.272 10.871 0 3.446.259 6.805 1.263 10.246 1.587 31.689 2.988 63.465 2.858 95.17 5.556 19.311 1.643 38.63 3.15 57.94 4.762 6.948.58 17.508-.234 24.472 2.336 3.848 1.42 8.139 2.76 12.21 3.631 1.662.356 3.401.305 5.05.722 7.439 1.88 13.314 6.747 18.9 11.666 4.854 4.275 10.759 7.748 13.77 13.77.742 1.484 3.812 9.083 4.34 10.846.352 1.175.301 2.456.722 3.608.559 1.53 1.563 2.865 2.191 4.368 1.185 2.834 1.875 5.853 2.927 8.74 2.082 5.71 6.518 13.55 6.518 19.548l-24.679 242.15 2.226 177.59-16.87-103.933-14.538 107.613-1.6-104.602-17.585 86.294 14.74-336.34-17.888 94.358-6.918-149.623-7.172 148.848-18.33-153.4-1.353 142.294-19.34-184.952-73.924 235.75 30.22-153.761-79.441 221.531 45.09-196.229L231 507.436l53.569-156.755-72.51 141.19 58.167-192.998-39.46 85.931 30.297-129.443-55.123 119.247 27.455-121.194-104.105 290.33 27.444-120.87-33.02 74.17 14.326-72.762-66.093 143.273 36.483-233.779Z" transform="matrix(.82 0 0 .82 63.754 13.76)"/>
  <g id="j" stroke-miterlimit="100" stroke-width="3.661" clip-path="url(#k)" transform="matrix(.82 0 0 .82 63.737 28.458)">
    <ellipse id="c" cx="187.6" cy="320.211" fill="#a57561" rx="34.461" ry="114.578"/>
    <ellipse cx="182.187" cy="347.919" fill="#fb0022" filter="url(#l)" rx="29.475" ry="81.331" style="mix-blend-mode:normal"/>
  </g>
  <path fill="none" stroke="url(#m)" stroke-miterlimit="100" stroke-width="2.441" d="m108.43 333.776-36.483 233.78 66.093-143.274-14.327 72.762 33.021-74.17-27.444 120.87 104.105-290.33-27.455 121.194 55.123-119.247-30.297 129.443 39.46-85.931-58.167 192.997 72.51-141.19L231 507.437l108.083-238.43-45.091 196.23 79.44-221.532-30.219 153.76 73.924-235.75 19.34 184.953 1.353-142.293 18.33 153.4 7.172-148.85 6.918 149.624 17.889-94.357-14.741 336.34 17.585-86.295 1.6 104.602 14.539-107.613 16.87 103.933-2.227-177.59" transform="matrix(.82 0 0 .82 63.754 13.76)"/>
  <path fill="none" stroke="#000" stroke-dasharray="2,1" stroke-miterlimit="100" d="m441.079 356.507 29.202 1.187-4.595 26.735" opacity=".15"/>
  <path fill="none" d="M170.702 265.689c0-2.055.278-1.307.571-2.52.731-3.02 0-15.025 0-18.846 0-3.244-1.112-6.75-.59-9.875.102-.615.488-1.16.59-1.775.319-1.909-.217-2.842.592-4.73 1.004-2.343 2.529-5.121 2.956-7.686.356-2.135.826-4.367 1.183-6.505.097-.582-.162-1.204 0-1.773.242-.848.903-1.529 1.182-2.366.32-.96.225-2.036.601-2.975.434-1.081 1.312-1.937 1.795-2.996 1.994-4.385 2.4-10.302 5.328-14.207 2.81-3.746 9.36-6.76 13.1-10.129 4.048-3.646 7.791-7.776 11.93-11.32 1.851-1.586.503-.159 1.759-.577 4.156-1.386 8.817-3.619 12.562-5.988 5.305-3.354 11.58-8.176 17.603-9.683 10.243-2.56 20.81-5.73 31.248-7.836 4.09-.826 8.332-.977 12.44-1.775 2.998-.581 5.999-1.157 8.973-1.843 2.749-.635 6.03-2.107 8.871-2.366 3.19-.29 6.41.175 9.609 0 5.765-.316 11.653-1.334 17.356-1.95 4.851-.527 9.726-.795 14.581-1.266 4.985-.485 9.518-1.766 14.433-2.475 4.23-.611 10.597 0 14.221 0 15.281 0 30.78-.486 45.752 3.102 2.016.213 3.728 2.037 5.788 2.332.78.112 1.586-.12 2.366 0 .064.01 7.081 1.178 8.297 1.783.637.318 1.117.924 1.78 1.183 1.386.54 2.916.65 4.302 1.192 2.286.894 10.158 6.396 12.417 8.279.739.615 2.34 2.525 2.956 2.956 2.775 1.942 5.855 3.489 8.278 5.913 3.466 3.466 4.284 8.5 6.566 12.61 3.772 6.796 9.749 14.717 12.464 21.958 1.926 5.135 1.774 10.602 1.774 15.965 0 1.467-.005 9.301 0 9.306.317.287.84.285 1.14.591 2.848 2.899 1.953 15.382 2.366 19.512.006.063.142 4.716 1.15 4.716"/>
  <path fill="#fff" d="m158.229 126.642 336.017 2.384"/>
  <ellipse cx="254.524" cy="348.543" fill="none" stroke="#000" stroke-dasharray="2,1" stroke-miterlimit="100" opacity=".151" rx="15.834" ry="17.452"/>
  <ellipse cx="324.008" cy="215.295" fill="none" stroke="#000" stroke-dasharray="2,1" stroke-miterlimit="100" opacity=".151" rx="16.713" ry="19.646"/>
  <path fill="none" d="M161.14 193.562c5.123-14.33 11.183-28.532 19.123-41.808 3.524-5.892 7.092-11.05 13.265-14.973 1.302-.827 2.473-1.891 3.958-2.407 10.182-3.543 22.95-4.163 33.543-5.115 12.474-1.122 25.02-2.044 37.472-3.252.078-.008 16.754-1.672 17.9-2.483.127-.09-.15-.384 0-.435 2.791-.934 6.934-.414 9.82-.59 1.808-.112 3.583-.548 5.393-.615 10.871-.404 21.859-.041 32.684.6 2.628.156 5.274-.17 7.901 0 3.147-.134 6.114.988 9.206 1.205 1.581.112 3.174-.09 4.757 0 3.81.219 7.563 1.02 11.375 1.221 2.018.108 4.045-.085 6.066 0 6.46.275 12.755 1.295 19.168 1.821 4.492.369 1.195-.767 7.234.6.3.069.38.468.656.593.03.014 1.197-.013 1.253 0 4.635 1.069 9.219 1.535 13.904 2.375 2.265.406 4.347 1.504 6.634 1.798.865.111 1.781-.216 2.622 0 .758.195 1.236.919 1.967 1.183.406.146.897-.126 1.311 0 1.603.483 3.065 1.298 4.66 1.803 7.224 2.292 13.967 2.855 20.032 5.98 4.005 2.064 7.033 5.607 10.49 8.278.83.641 1.912 1.025 2.623 1.774.636.67.793 1.617 1.311 2.365.905 1.305 2.401 2.228 3.279 3.548.96 1.444 1.273 3.167 1.967 4.73.785 1.77 1.686 6.251 3.278 7.687.155.14.494-.133.656 0 .294.24-.15.74 0 1.072.95 2.102 2.027 4.529 3.279 6.504.781 1.234 1.917 2.276 2.623 3.547 1.12 2.02 1.106 4.434 1.977 6.524.778 1.867 2.256 3.93 2.624 5.913.388 2.105.264 4.392.655 6.504.227 1.23 1.084 2.32 1.311 3.548.667 3.608-.245 11.087-1.966 14.19"/>
  <path fill="none" d="M156.804 138.246c28.163-27.42 36.98-28.952 62.004-37.347 2.346-.787 4.666-1.893 7.113-2.383 9.234-1.847 18.78-1.182 28.313-1.182 5.704 0 11.604-.42 17.294 0 5.548.41 4.32.92 10.145 1.23 2.065.109 4.141-.11 6.208 0 2.09.108 4.152.56 6.243.65 2.966.127 5.948-.223 8.908 0 2.824.212 5.577 1.035 8.397 1.3 25.968 2.449 52.008 2.342 77.99 4.553 15.825 1.347 31.656 2.582 47.48 3.903 5.694.475 14.348-.192 20.055 1.914 3.153 1.164 6.67 2.262 10.005 2.975 1.362.292 2.788.25 4.139.592 6.096 1.54 10.91 5.53 15.488 9.56 3.978 3.503 8.817 6.35 11.284 11.284.608 1.217 3.124 7.444 3.557 8.889.288.962.246 2.012.591 2.956.459 1.254 1.281 2.348 1.796 3.58.971 2.322 1.536 4.796 2.399 7.162 1.706 4.68 5.34 11.104 5.34 16.02"/>
  <path fill="none" stroke="#000" stroke-dasharray="2,1" stroke-miterlimit="100" d="m213.251 355.57-32.139 1.783-7.152 34.185" opacity=".15"/>
  <ellipse cx="424.939" cy="406.347" fill="url(#n)" rx="5.994" ry="45.872" style="mix-blend-mode:normal"/>
  <path fill="#fff" d="m465.276 233.555 10.096 48.384 11.23-126.003 10.307 132.28 8.325-107.886 13.597 76.398 3.025-54.932 15.176 42.95 1.727-35.154 35.524 78.062-31.847-47.877 2.044 38.228-18.802-37.252-7.76 98.872-9.188-80.534-13.75 105.59-12.261-75.203-12.408 48.147-8.522-59.912z"/>
  <g stroke="#cdcdcd" stroke-miterlimit="100">
    <path fill="#fdfdfd" stroke-width="4" d="M465.263 129.82 526.778 8.753l93.806 496.058-35.136 3.17-65.241-450.196Z"/>
    <path fill="none" stroke-width="10" d="m578.542 458.447 33.671-1.084m-29.927 22.417 32.99-.173"/>
  </g>
  <path fill="#fff" d="m114.926 193.867 2.517 30.458 39.34-95.272-12.78 117.957 27.1-45.845-4.389 45.587 21.027-28.89-5.784 36.665 70.04-47.503-79.07 82.7 1.64-35.86-45.088 65.738 4.867-88.674-20.711 32.923 6.839-25.683-18.13 24.172-8.308-32.971z"/>
  <g stroke="#cdcdcd" stroke-miterlimit="100">
    <path fill="#fdfdfd" stroke-width="4" d="M187.198 133.126 125.682 12.059 31.876 508.118l35.136 3.17 65.241-450.196Z"/>
    <path fill="none" stroke-width="10" d="m42.681 451.528 32.017 3.913m-35.593 19.628 31.222 3.386"/>
  </g>
  <path fill="#fff" d="m261.84 79.247-45.453 20.294 28.977-4.31-38.684 52.186 57.017-28.62-9.22 22.257 80.153-41.672-11.966 21.063 34.535-24.3 13.228 47.938 9.437-34.47 57.526 22.662-14.312-33.083 47.625 6.445-37.9-25.725 5.265 14.464-26.988-1.064 16.797 28.717-41.773-31.653-14.77 28.953-7.926-43.888-25.979 28.56 6.494-20.653-69.294 37.606 13.803-32.796-39.348 21.601z"/>
  <path fill="#ccbdb4" stroke="#9e644a" stroke-miterlimit="100" stroke-width="7" d="M406.195 447.577c-.652 17.161-2.495 34.352-4.427 51.427-3.331 29.448-1.768 20.13-6.65 42.891-3.332 15.536-5.404 24.272-12.1 38.577-.17.363-2.116 5.724-3.061 7.143-.88 1.32-2.338 2.658-3.036 4.056-.153.304.22.762 0 1.02-1.465 1.714-24.249-12.952-28.544-15.816-.8-.533-1.18-1.61-2.041-2.04-6.944-3.472 1.35 2.247-7.143-3.062-1.442-.901-2.605-2.217-4.081-3.06-4.993-2.853-12.028-3.773-17.347-5.103-4.112-1.028-9.054.527-13.266 0-11.479-1.435-22.027-3.419-33.88-4.269-9.547-.684-19.431-.153-28.843 1.038-1.018.129-2.125-.38-3.078 0-3.776 1.505-13.428 13.93-17.463 17.463-1.28 1.12-2.938 1.803-4.082 3.061-2.288 2.517-3.824 5.656-6.122 8.164-1.472 1.605-3.562 2.541-5.102 4.081-14.234 14.234-16.39 35.815-17.734 54.646-.719 10.057-3.806 19.534-1.063 29.689 2.688 9.954 10.284 18.47 11.445 28.927 1.442 13.004-1.02 25.883-1.02 38.776 0 .463-.456 12.13 0 12.706 1.776 2.243 17.752 2.935 19.722 3.06 10.355.665 20.421 3.627 30.735 4.143 12.835.642 25.909 0 38.775 0 2.045 0 20.257-.265 21.395-1.02 4.368-2.902 15.19-1.676 21.315-1.676 2.604 0 5.958 1.88 5.92 1.02-.152-3.44-2.758-6.353-3.544-9.706-.633-2.697-.634-5.505-1.06-8.242-1.36-8.727-4.235-17.324-4.238-26.157-.003-9.46 4.673-17.561 6.197-26.655.506-3.02-.28-6.136 0-9.184.825-8.973 2.053-17.71 3.135-26.727.122-1.013-.247-2.072 0-3.062.49-1.961 3.732-2.604 5.102-3.06 8.056-2.686 15.522.813 22.45 4.08 1.075.508.951 1.44 2.016 1.972 4.12 2.06 8.91 3.519 13.265 5.102 6.084 2.213 10.63 4.119 11.015 3.062 2.26-6.212.578-14.876 4.171-20.509.925-1.45 5.533-.428 7.06-.936.455-.153.573-.842 1.02-1.02 2.223-.89 6.053-.987 8.163-2.042.85-.425 1.165-1.593 2.016-2.016 6.012-2.987 11.999-7.856 16.326-13.265 4.678-5.847-.014-15.692 2.041-19.388 8.845-15.904 7.658-3.659 16.65-21.996 1.872-3.818 2.27-8.204 3.111-12.373.847-4.2-2.31-7.464-3.061-11.224-.444-2.217.548-4.95 0-7.143-2.075-8.298-8.891-14.27-11.227-22.453-2.64-9.251-2.507-19.478-5.119-28.619-1.515-5.303-3.517-6.668-6.122-11.224-1.905-3.331-3.44-6.861-5.159-10.293-4.243-8.47 5.665-14.439 3.036-17.067-.082-.083-3.972-1.985-4.047-2.041-1.154-.866-1.77-2.416-3.061-3.061-1.058-.53-7.556-3.896-8.15-5.09-.839-1.681-.807-3.67-1.21-5.505z"/>
</svg>
