<svg xmlns="http://www.w3.org/2000/svg" viewBox="0 0 72 72"><defs><style>.cls-1{fill:none;}.cls-2{fill:#ff3000;}</style></defs><g id="Layer_2" data-name="Layer 2"><g id="Layer_2-2" data-name="Layer 2"><rect class="cls-1" width="72" height="72"/><path class="cls-2" d="M50.62,27.64a1.88,1.88,0,0,0,.2.94,1.56,1.56,0,0,0,.44.5,1.26,1.26,0,0,0,.56.2,4.47,4.47,0,0,0,.47,0c.37,0,.81,0,1.31,0a6.36,6.36,0,0,0,1.19-.14v5.39c-.74.15-1.51.3-2.3.44a17.63,17.63,0,0,1-3.14.23,8.19,8.19,0,0,1-3-.45,4.89,4.89,0,0,1-1.69-1,3.25,3.25,0,0,1-.81-1.22,7.59,7.59,0,0,1-.24-1.25,10.1,10.1,0,0,1-1.38,1.54,10.21,10.21,0,0,1-2.91,1.54,21.23,21.23,0,0,1-4,1.06,32.43,32.43,0,0,1-5.59.42c-3.85,0-6.82-.82-8.89-2.45a8.13,8.13,0,0,1-3.12-6.78,7.58,7.58,0,0,1,1.39-4.81,9.45,9.45,0,0,1,3.39-2.7,15.38,15.38,0,0,1,4.31-1.28c1.54-.22,2.92-.38,4.14-.5,2.75-.25,4.92-.49,6.54-.69a23.77,23.77,0,0,0,3.67-.69A2.93,2.93,0,0,0,42.76,15a2.5,2.5,0,0,0,.36-1.39,3.11,3.11,0,0,0-.67-2.08,4.4,4.4,0,0,0-1.83-1.28A10.64,10.64,0,0,0,38,9.54a24.67,24.67,0,0,0-3.17-.19q-7.66,0-8.06,4.89H19.21A11.55,11.55,0,0,1,20.88,9.4a9.76,9.76,0,0,1,3.28-3.11,14.66,14.66,0,0,1,4.67-1.67,32.72,32.72,0,0,1,6-.5,31.73,31.73,0,0,1,9,1,11.72,11.72,0,0,1,4.72,2.5,6,6,0,0,1,1.84,3.23,18.53,18.53,0,0,1,.3,3.16ZM43,20a15,15,0,0,1-1.75.58,20.66,20.66,0,0,1-2.08.45q-1.17.19-2.67.39c-1,.13-2.19.27-3.56.41a30.57,30.57,0,0,0-3.56.64,7.53,7.53,0,0,0-2.2.89A2.91,2.91,0,0,0,26,24.63a4.36,4.36,0,0,0-.3,1.67,4.32,4.32,0,0,0,.58,2.36,4.08,4.08,0,0,0,1.5,1.42,6.13,6.13,0,0,0,2,.67,14,14,0,0,0,2.09.16,20.6,20.6,0,0,0,3.47-.33A11.79,11.79,0,0,0,39,29.33a8.51,8.51,0,0,0,2.83-2.47,6.63,6.63,0,0,0,1.14-4Z"/><path class="cls-2" d="M8.87,57.88a4.06,4.06,0,0,0,1,2.67A6.07,6.07,0,0,0,12,62.11a9,9,0,0,0,2.61.72A20.57,20.57,0,0,0,17,63a20.93,20.93,0,0,0,2.86-.2,11,11,0,0,0,2.56-.64A5.22,5.22,0,0,0,24.27,61,2.44,2.44,0,0,0,25,59.22a3,3,0,0,0-.33-1.45,2.84,2.84,0,0,0-1.33-1.08,12.82,12.82,0,0,0-2.89-.84c-1.26-.24-2.93-.5-5-.8q-3.45-.45-6-1A16.18,16.18,0,0,1,5.06,52.6a6.58,6.58,0,0,1-2.64-2.5A8.17,8.17,0,0,1,1.53,46a7.4,7.4,0,0,1,1.62-5A10.84,10.84,0,0,1,7,38.15a17.07,17.07,0,0,1,4.84-1.31,38.3,38.3,0,0,1,4.39-.3c.74,0,1.65,0,2.72.08a25.2,25.2,0,0,1,3.34.42,19.65,19.65,0,0,1,3.44,1,11.49,11.49,0,0,1,3.11,1.78,9,9,0,0,1,2.31,2.8,9.19,9.19,0,0,1,1,4h-8A4.45,4.45,0,0,0,23,44a6.67,6.67,0,0,0-2.22-1.47,9.73,9.73,0,0,0-2.59-.64c-.89-.09-1.67-.14-2.33-.14a9.14,9.14,0,0,0-5,1.11c-1.13.75-1.69,1.51-1.69,2.28a3.91,3.91,0,0,0,.22,1.45,2,2,0,0,0,1.06,1,9.49,9.49,0,0,0,2.44.72c1.08.21,2.54.44,4.39.7q3.62.49,6.59,1A22.73,22.73,0,0,1,29,51.55a7.92,7.92,0,0,1,3.22,2.5,6.81,6.81,0,0,1,1.14,4.11,8.44,8.44,0,0,1-1.25,4.75A9.08,9.08,0,0,1,28.61,66a17.85,17.85,0,0,1-5.2,1.69,35.7,35.7,0,0,1-6.37.53c-1,0-2.16,0-3.39-.14A26.61,26.61,0,0,1,10,67.55a17.33,17.33,0,0,1-3.47-1.11,11.35,11.35,0,0,1-3-1.86A9.14,9.14,0,0,1,1.42,61.8a9.17,9.17,0,0,1-.89-3.92Z"/><path class="cls-2" d="M35.06,52.38a17.48,17.48,0,0,1,1-5.89,13.56,13.56,0,0,1,3.17-5.06,15.45,15.45,0,0,1,5.64-3.56,23.54,23.54,0,0,1,8.42-1.33,23.5,23.5,0,0,1,8.42,1.33,15.58,15.58,0,0,1,5.65,3.56,13.82,13.82,0,0,1,3.17,5.06,17.73,17.73,0,0,1,1,5.89,18,18,0,0,1-1,5.92,13.58,13.58,0,0,1-3.17,5.06,15.81,15.81,0,0,1-5.65,3.53,23.5,23.5,0,0,1-8.42,1.33,23.54,23.54,0,0,1-8.42-1.33,15.67,15.67,0,0,1-5.64-3.53,13.33,13.33,0,0,1-3.17-5.06A17.74,17.74,0,0,1,35.06,52.38Zm8,0a12.36,12.36,0,0,0,.56,3.72,8.5,8.5,0,0,0,1.78,3.17,8.66,8.66,0,0,0,3.17,2.23,12,12,0,0,0,4.72.83A12.13,12.13,0,0,0,58,61.5a8.84,8.84,0,0,0,3.17-2.23A8.62,8.62,0,0,0,63,56.1a12.06,12.06,0,0,0,.56-3.72,12.25,12.25,0,0,0-.56-3.7,8.62,8.62,0,0,0-1.77-3.19A8.84,8.84,0,0,0,58,43.26a12.13,12.13,0,0,0-4.73-.83,12,12,0,0,0-4.72.83,8.66,8.66,0,0,0-3.17,2.23,8.5,8.5,0,0,0-1.78,3.19A12.57,12.57,0,0,0,43.06,52.38Z"/></g></g></svg>