<svg xmlns="http://www.w3.org/2000/svg" viewBox="0 0 273.54 65.91"><defs><style>.cls-1{isolation:isolate;}.cls-2{mix-blend-mode:color-burn;}.cls-3{fill:#f3a;}</style></defs><g class="cls-1"><g id="Layer_2" data-name="Layer 2"><g id="Layer_1-2" data-name="Layer 1"><g class="cls-2"><path class="cls-3" d="M257.24,13.46a15.94,15.94,0,0,0-12.75,6.38V14.17H233.86v4.26h0l0,10.56c-2.66-10.93-12.1-15.53-20.52-15.53-7.31,0-15.39,3.47-19.14,11.52V14.17H183.54v32.6S181.42,51,174.33,51c-5,0-9.21-2.12-9.21-9.92V14.17H154.49v7.37c-4.18-5.61-10.84-8.08-17-8.08-8.1,0-17.15,4.26-20.2,14.32-3-10.06-12.09-14.32-20.19-14.32-7.13,0-15,3.3-18.85,10.94C76.17,18,71.15,14.17,62.36,14.17H45.08C43.51,4.56,35.31,0,22,0H0V56.69H10.63V35.43H22c11.75,0,19.08-3.22,22-10V56.69H54.57V18.43H57.4c8.51,0,9.92,5,9.92,14.17H76c-.09.91-.13,1.85-.13,2.83,0,15.59,11.34,22,21.26,22,8.1,0,17.15-4.26,20.19-14.31,3,10,12.1,14.31,20.2,14.31,6.72,0,14-2.93,18.07-9.66,2.51,7,9.09,9.66,15.24,9.66A15.94,15.94,0,0,0,183.54,51v1.42c0,7.8-1.41,9.21-7.79,9.21H157.32v4.26h18.43c14.88,0,18.42-5,18.42-14.89V45.88C197.92,53.94,206,57.4,213.31,57.4c8.38,0,17.79-4.56,20.49-15.39l0,14.68h10.72V24.09s2.12-4.25,9.21-4.25c5,0,9.21,2.13,9.21,9.92V56.69h10.63V29.76C273.54,17.72,265,13.46,257.24,13.46ZM22,30.47H10.63V5H22c9.21,0,12.75,5.67,12.75,12.76S31.18,30.47,22,30.47ZM97.09,55.84c0-11.28-8.56-20.41-19.14-20.41,10.58,0,19.14-9.13,19.14-20.41,0,11.28,8.55,20.41,19.13,20.41h0C105.64,35.43,97.09,44.56,97.09,55.84Zm49.6-11.9q-2.44,8.49-9.21,8.5c-6.38,0-10.63-5.67-10.63-17s4.25-17,10.63-17q6.77,0,9.21,8.5h7.8V41.1a23.31,23.31,0,0,0,.17,2.84Zm66.62,11.9c0-11.28-8.56-20.41-19.14-20.41,10.58,0,19.14-9.13,19.14-20.41,0,11.28,8.55,20.41,19.13,20.41C221.86,35.43,213.31,44.56,213.31,55.84Z"/></g></g></g></g></svg>