<svg xmlns="http://www.w3.org/2000/svg" viewBox="0 0 439.37 116.22"><defs><style>.cls-1{fill:#f30;}</style></defs><g id="Layer_2" data-name="Layer 2"><g id="Layer_1-2" data-name="Layer 1"><path class="cls-1" d="M412.8,61.65H368.15a5.32,5.32,0,1,1,0-10.63H438V29.76h-69.8a26.58,26.58,0,1,0,0,53.15H412.8a5.32,5.32,0,0,1,0,10.63H343V114.8H412.8a26.58,26.58,0,0,0,0-53.15Z"/><path class="cls-1" d="M120.82,29.76h-23V51h23a12.41,12.41,0,0,1,12.41,12.41V114.8h21.26V63.43A33.66,33.66,0,0,0,120.82,29.76Z"/><path class="cls-1" d="M157.32,63.43V114.8h21.26V63.43A12.41,12.41,0,0,1,191,51h23V29.76H191A33.66,33.66,0,0,0,157.32,63.43Z"/><rect class="cls-1" x="216.85" y="29.76" width="21.26" height="85.04"/><path class="cls-1" d="M75.47,61.65H26.57a5.32,5.32,0,0,1,0-10.63H95V29.76H26.57a26.58,26.58,0,0,0,0,53.15h48.9a5.32,5.32,0,1,1,0,10.63h-74V114.8H75.47a26.58,26.58,0,1,0,0-53.15Z"/><path class="cls-1" d="M317.48,29.06A22.68,22.68,0,0,0,294.8,51.73V78.66a16.3,16.3,0,1,1-32.6,0V29.76H240.94v48.9a37.56,37.56,0,1,0,75.12,0V51.73a1.42,1.42,0,1,1,2.84,0V114.8h21.26V51.73A22.68,22.68,0,0,0,317.48,29.06Z"/><circle class="cls-1" cx="155.9" cy="19.13" r="19.13"/></g></g></svg>