<svg xmlns="http://www.w3.org/2000/svg" viewBox="0 0 315.2 155.91"><defs><style>.cls-1{fill:#4a4;}</style></defs><g id="Layer_2" data-name="Layer 2"><g id="Layer_11" data-name="Layer 11"><path class="cls-1" d="M22.63,0,.77,65.57A14.79,14.79,0,0,0,14.8,85h0a14.78,14.78,0,0,0,14-10.11L53.81,0Z"/><path class="cls-1" d="M22.63,28.35V56.69H68V96.38a28.34,28.34,0,0,1-28.34,28.34H25.46A14.17,14.17,0,0,0,11.29,138.9h0a14.16,14.16,0,0,0,14.17,14.17H39.64A56.69,56.69,0,0,0,96.33,96.38v-68Z"/><rect class="cls-1" x="107.67" width="28.35" height="153.07"/><path class="cls-1" d="M147.35,0h102a14.17,14.17,0,0,1,14.17,14.17v0A14.17,14.17,0,0,1,249.4,28.35h-102a0,0,0,0,1,0,0V0A0,0,0,0,1,147.35,0Z"/><path class="cls-1" d="M212.55,0H240.9a0,0,0,0,1,0,0V141.73a14.17,14.17,0,0,1-14.17,14.17h0a14.17,14.17,0,0,1-14.17-14.17V0a0,0,0,0,1,0,0Z"/><path class="cls-1" d="M82.16,62.36H249.4a14.17,14.17,0,0,1,14.17,14.17v0A14.17,14.17,0,0,1,249.4,90.71H82.16a0,0,0,0,1,0,0V62.36A0,0,0,0,1,82.16,62.36Z"/><path class="cls-1" d="M141.68,141.66a14.14,14.14,0,0,0,18.62,13.47,56.7,56.7,0,0,0,38.08-53.56V5.19H170v96.38a28.35,28.35,0,0,1-18.82,26.7,14.24,14.24,0,0,0-9.53,13.39Z"/><path class="cls-1" d="M301.08,0a14.11,14.11,0,0,0-13.5,9.6A31.2,31.2,0,0,1,257.9,31.18H243.73V59.53H257.9a59.56,59.56,0,0,0,56.59-41A14.13,14.13,0,0,0,301.08,0Z"/><path class="cls-1" d="M301.08,62.36a14.11,14.11,0,0,0-13.5,9.6A31.2,31.2,0,0,1,257.9,93.54H243.73v28.35H257.9a59.55,59.55,0,0,0,56.59-41,14.13,14.13,0,0,0-13.41-18.53Z"/><path class="cls-1" d="M243.73,124.72H301A14.17,14.17,0,0,1,315.2,138.9v0A14.17,14.17,0,0,1,301,153.07h-57.3a0,0,0,0,1,0,0V124.72a0,0,0,0,1,0,0Z"/></g></g></svg>