<svg xmlns="http://www.w3.org/2000/svg" xmlns:xlink="http://www.w3.org/1999/xlink" xml:space="preserve" viewBox="0 0 768 768">
  <defs>
    <linearGradient id="g">
      <stop offset="0" stop-color="#292e04"/>
      <stop offset="1" stop-color="#292e04" stop-opacity="0"/>
    </linearGradient>
    <linearGradient id="f">
      <stop offset="0" stop-color="#153304"/>
      <stop offset="1" stop-color="#153304" stop-opacity="0"/>
    </linearGradient>
    <linearGradient id="e">
      <stop offset="0" stop-color="#05341e"/>
      <stop offset="1" stop-color="#05341e" stop-opacity="0"/>
    </linearGradient>
    <linearGradient id="d">
      <stop offset="0" stop-color="#d5fe87"/>
      <stop offset="1" stop-color="#fbbef9" stop-opacity="0"/>
    </linearGradient>
    <linearGradient id="b">
      <stop offset="0" stop-color="#141314"/>
      <stop offset="1" stop-color="#e7dee4"/>
    </linearGradient>
    <linearGradient xlink:href="#b" id="a" x1="29.265" x2="166.955" y1="399.354" y2="377.55" gradientUnits="userSpaceOnUse"/>
    <linearGradient xlink:href="#d" id="m" x1="323.368" x2="313.905" y1="80.534" y2="91.158" gradientTransform="matrix(1.127 0 0 1.127 1.49 13.26)" gradientUnits="userSpaceOnUse"/>
    <linearGradient xlink:href="#e" id="j" x1="411.891" x2="412.912" y1="507.538" y2="484.069" gradientUnits="userSpaceOnUse"/>
    <linearGradient xlink:href="#f" id="i" x1="485.361" x2="489.953" y1="507.028" y2="540.702" gradientTransform="translate(-12.841 -11.632)" gradientUnits="userSpaceOnUse"/>
    <linearGradient xlink:href="#g" id="h" x1="578.728" x2="574.646" y1="482.538" y2="447.844" gradientTransform="translate(-17.427 9.842)" gradientUnits="userSpaceOnUse"/>
    <filter id="l" width="2.066" height="2.066" x="-.533" y="-.533" color-interpolation-filters="sRGB">
      <feGaussianBlur stdDeviation="1.315"/>
    </filter>
    <filter id="n" width="1.529" height="1.529" x="-.264" y="-.264" color-interpolation-filters="sRGB">
      <feGaussianBlur stdDeviation="2.346"/>
    </filter>
    <clipPath id="k" clipPathUnits="userSpaceOnUse">
      <use xlink:href="#c"/>
    </clipPath>
  </defs>
  <g fill="#05341e" stroke="#2f764d" stroke-width=".887">
    <path stroke-miterlimit="100" stroke-width="4.437" d="M136.885 664.982a119.124 55.612 0 0 1-21.796-74.012 119.124 55.612 0 0 1 155.65-17.356 119.124 55.612 0 0 1 52.201 70.622Z" style="font-variation-settings:normal" transform="matrix(1.124 -.083 .083 1.124 -70.5 2.803)"/>
    <path d="M314.386 462.068a69.54 64.036 0 0 1 30.717 71.103 69.54 64.036 0 0 1-65.203 47.44l9.127-8.419a78.061 114.638 66.86 0 1-127.417 38.541l-21.07-5.926a78.061 114.638 66.86 0 1 26.411-98.477 78.061 114.638 66.86 0 1 126.97-38.14z" transform="matrix(1.127 0 0 1.127 -70.5 2.803)"/>
    <path stroke-miterlimit="100" stroke-width="4.437" d="M314.386 462.068a69.54 64.036 0 0 1 30.717 71.103 69.54 64.036 0 0 1-65.203 47.44" style="font-variation-settings:normal" transform="matrix(1.127 0 0 1.127 -70.5 2.803)"/>
    <path stroke="#568667" stroke-miterlimit="100" stroke-width="5.324" d="M-108.454 611.376a114.638 78.061 0 0 1 62.988-80.174 114.638 78.061 0 0 1 131.743 14.826" style="font-variation-settings:normal" transform="matrix(1.036 -.443 .443 1.036 -70.5 2.803)"/>
    <path stroke="#2b66ae" stroke-miterlimit="100" stroke-width="4.437" d="M228.256 639.348a64.036 64.036 0 0 1-78.1.565 64.036 64.036 0 0 1-20.557-75.348" style="font-variation-settings:normal" transform="matrix(1.127 0 0 1.127 -70.5 2.803)"/>
    <path stroke="#335c20" stroke-miterlimit="100" stroke-width="5.324" d="M-43.25-640.742A114.638 78.061 0 0 1 89.062-626.11" style="font-variation-settings:normal" transform="matrix(-1.036 .443 -.443 -1.036 -73.376 2.803)"/>
  </g>
  <g fill="#37644b" stroke-width=".887" transform="matrix(1.127 0 0 1.127 -14.096 8.608)">
    <ellipse cx="131.122" cy="508.673" rx="7.653" ry="4.592" style="font-variation-settings:normal"/>
    <ellipse cx="155.102" cy="502.551" rx="5.612" ry="3.061" style="font-variation-settings:normal"/>
    <ellipse cx="124.745" cy="532.143" rx="6.378" ry="2.041" style="font-variation-settings:normal"/>
    <ellipse cx="106.633" cy="552.551" rx="6.122" ry="5.102" style="font-variation-settings:normal"/>
    <ellipse cx="101.786" cy="535.204" rx="6.888" ry="3.061" style="font-variation-settings:normal"/>
  </g>
  <g stroke-miterlimit="100" stroke-width="1.273">
    <path fill="#bdaedd" fill-opacity=".5" stroke="#e8e9eb" stroke-width="3.82" d="M417.09 484.656c-14.225-101.287-50.526-116.428-87.695-123.706l101.079-122.004Z" stop-color="#231c20" style="font-variation-settings:normal;-inkscape-stroke:none" transform="matrix(-.594 -.076 -.167 1.017 447.998 85.007)"/>
    <path fill="#97d4cf" fill-opacity=".5" stroke="#efeded" stroke-width="3.82" d="M417.77 463.227c23.92-78.327 63.792-102.652 154.533-89.012L441.122 227.722Z" stop-color="#1c171e" style="font-variation-settings:normal;-inkscape-stroke:none" transform="matrix(-.594 -.076 -.167 1.017 447.998 85.007)"/>
    <path fill="#413904" stroke="#2e79b3" stroke-width="5.093" d="m285.729 272.02 49.064 57.001 116.168-128.434 134.206 187.6-142.143-150.08-25.975 241.715 3.607-220.068-86.584 106.066-64.938-59.888" stop-color="#161314" style="font-variation-settings:normal" transform="matrix(-.594 -.076 -.167 1.017 447.998 85.007)"/>
  </g>
  <g fill-rule="evenodd" stroke-miterlimit="100" stroke-width=".898">
    <path fill="#fce5ed" stroke="#f192f7" stroke-width="1.797" d="m650.365 429.338-40.988-56.1 21.352 13.449-41.174-75.01 27.205 28.692-27.758-101.46 27.773 57.844-21.307-97.935 50.366 119.544 13.498-54.453.197 84.575 22.445-43.758-6.14 75.226 11.185-35.294-7.938 87.27" stop-color="#121411" style="font-variation-settings:normal;-inkscape-stroke:none" transform="matrix(1.1 0 0 1.127 -15.76 45.805)"/>
    <path fill="#432204" stroke="#814d4f" stroke-width="5.39" d="M382.506 470.248c2.454-38.72 30.444-114.131 50.85-127.735 4.836-3.224 31.7-.156 35.597 0 36.664 1.467 82.549 3.333 115.436 23.818 2.443 1.521 16.847 35.805 18.877 39.769 22.69 44.297 21.265 39.17 21.265 79.35 9.083-15.86 14.477-33.952 19.025-51.584 8.667-33.598 8.743-66.657 8.743-100.766 11.688 26.867 20.026 55.395 25.386 84.325 4.945 30.494-1.833 60.704-7.937 90.48-2.223 10.847-3.22 21.746-6.997 32.216-3.85 10.672-10.31 20.882-17.871 29.264-6.87 7.615-34.216 35.464-48.534 26.479-15.067-9.455-25.642-45.152-29.202-62.952" style="font-variation-settings:normal" transform="matrix(1.1 0 0 1.127 -15.76 45.805)"/>
    <path fill="url(#h)" stroke="#324485" stroke-width="5.39" d="M594.999 440.606c-2.001 21.51-2.334 43.117-3.151 64.702-2.719 71.832-29.776 83.141-93.226 89.526-20.526 2.066-64.057-.751-82.193-9.82-31.5-15.749-39.223-91.09-27.58-121.494" style="font-variation-settings:normal" transform="matrix(1.1 0 0 1.127 -15.76 45.805)"/>
    <path fill="url(#i)" stroke="#2d5e54" stroke-width="5.39" d="M501.382 536.445c-4.631-13.893-7.304-67.152-11.521-81.824-4.6-16-15.842-32.59-26.1-45.227-10.76-13.256-25.463-22.249-38.967-32.232-2.659-1.965-6.592-.522-9.89-.744-12.696-.85-25.385-1.851-38.098-2.38-34.386-1.433-47.546-5.093-73.02 14.447-14.693 11.27-24.91 24.243-30.302 42.245-11.014 21.435-13.212 46.812-19.076 69.573" style="font-variation-settings:normal" transform="matrix(1.1 0 0 1.127 -15.76 45.805)"/>
    <path fill="url(#j)" stroke="#2b7070" stroke-width="5.39" d="M252.986 523.082c.31 4.942-.785 10.2.749 15.035 3.42 10.781 39.846 48.284 49.051 51.345 23.061 7.668 52.97-2.139 76.385-3.281 13.987-.682 32.415 2.521 45.975-1.542 2.162-.647.991-4.405 1.564-6.588 1.253-4.782 2.345-9.608 3.755-14.346 9.678-32.527 25.557-64.223 25.557-98.834" style="font-variation-settings:normal" transform="matrix(1.1 0 0 1.127 -15.76 45.805)"/>
  </g>
  <g fill="#2d5e54" stroke-width=".887" transform="matrix(1.127 0 0 1.127 -36.682 2.09)">
    <ellipse cx="367.347" cy="433.418" rx="8.673" ry="4.847" style="font-variation-settings:normal"/>
    <ellipse cx="376.02" cy="457.908" rx="12.245" ry="5.357" style="font-variation-settings:normal"/>
    <ellipse cx="452.806" cy="451.531" rx="9.949" ry="5.102" style="font-variation-settings:normal"/>
    <ellipse cx="436.224" cy="479.337" rx="10.204" ry="5.867" style="font-variation-settings:normal"/>
    <ellipse cx="404.847" cy="433.418" rx="10.969" ry="6.378" style="font-variation-settings:normal"/>
    <ellipse cx="367.092" cy="486.48" rx="8.418" ry="4.847" style="font-variation-settings:normal"/>
    <ellipse cx="341.071" cy="453.827" rx="10.459" ry="5.357" style="font-variation-settings:normal"/>
  </g>
  <g fill="#814d4f" stroke-width=".887" transform="matrix(1.127 0 0 1.127 -25.59 36.377)">
    <ellipse cx="530.612" cy="417.092" rx="9.184" ry="8.929" style="font-variation-settings:normal"/>
    <ellipse cx="501.786" cy="400.51" rx="15.051" ry="3.061" style="font-variation-settings:normal"/>
    <ellipse cx="573.724" cy="405.357" rx="6.888" ry="8.929" style="font-variation-settings:normal"/>
    <ellipse cx="571.939" cy="444.643" rx="7.653" ry="14.031" style="font-variation-settings:normal"/>
    <ellipse cx="498.724" cy="428.571" rx="9.439" ry="6.633" style="font-variation-settings:normal"/>
    <circle cx="549.49" cy="387.245" r="6.633" style="font-variation-settings:normal"/>
    <ellipse cx="508.929" cy="377.041" rx="12.5" ry="7.143" style="font-variation-settings:normal"/>
    <ellipse cx="450" cy="375" rx="13.265" ry="7.653" style="font-variation-settings:normal"/>
    <ellipse cx="467.857" cy="398.469" rx="7.143" ry="4.082" style="font-variation-settings:normal"/>
  </g>
  <g stroke-miterlimit="100" stroke-width=".887">
    <path fill="#b981d0" fill-opacity=".5" stroke="#fdfefd" stroke-width="2.662" d="M417.09 484.656c-14.225-101.287-50.526-116.428-87.695-123.706l101.079-122.004Z" stop-color="#2c2c29" style="font-variation-settings:normal;-inkscape-stroke:none" transform="matrix(1.127 0 0 1.127 -1.26 12.174)"/>
    <path fill="#d1aeb6" fill-opacity=".5" stroke="#f5f8f7" stroke-width="2.662" d="M417.77 463.227c23.92-78.327 63.792-102.652 154.533-89.012L441.122 227.722Z" stop-color="#232720" style="font-variation-settings:normal;-inkscape-stroke:none" transform="matrix(1.127 0 0 1.127 -1.26 12.174)"/>
    <path fill="#21013c" stroke="#78307f" stroke-width="3.549" d="m285.729 272.02 49.064 57.001 116.168-128.434 134.206 187.6-142.143-150.08-25.975 241.715 3.607-220.068-86.584 106.066-64.938-59.888" stop-color="#282d26" style="font-variation-settings:normal" transform="matrix(1.127 0 0 1.127 -1.26 12.174)"/>
  </g>
  <path fill="#86a67d" fill-rule="evenodd" stroke="#3a442f" stroke-miterlimit="100" stroke-width="3" d="m409.082 109.06 87.917 52.18-32.467-2.084 74.387 67.205-133.18 42.533 59.77 46.76-64.297-25.918 38.469 36.172-48.257-33.07 67.62 93.642-64.13-47.24 66.078 73.638-64.046-16.508 15.313 66.882-37.14-54.28 2.285 77.931-30.261-86.394 1.236 54.06 40.655 72.376-31.711-36.595 17.075 53.673-93.285-84.01"/>
  <path fill="#390600" stroke="#3d6e54" stroke-miterlimit="100" stroke-width="4" d="M203.531 541.604 231.73 318.18l78.75 9.702 9.86 160.368c17.614 16.304 29.837 45.685 32.213 76.011" stop-color="#040303" style="font-variation-settings:normal"/>
  <path fill="#939588" fill-rule="evenodd" stroke="#585d44" stroke-miterlimit="100" stroke-width="2" d="m174.972 110.157-88.04 37.481 36.78 2.262-70.719 65.813 68.043 41.806-37.023 29.304L136.4 273.8l-28.645 24.32 66.9-21.392-47.11 81.047 58.925-30.291-46.572 69.595 40.59-26.715-33.935 58.963 34.932-41.642-20.333 57.19L264.314 308.12" stop-color="#080807" style="font-variation-settings:normal;-inkscape-stroke:none"/>
  <ellipse cx="313.371" cy="311.783" fill="#042a01" fill-rule="evenodd" stroke="#853c52" stroke-miterlimit="100" stroke-width="3" rx="22.957" ry="79.146" stop-color="#18211e" style="font-variation-settings:normal" transform="rotate(14.943) skewX(.003)"/>
  <path fill="#c2d1bc" stroke="#384947" stroke-miterlimit="100" stroke-width="3" d="M281.94 555.113c22.431-23.713 30.626-72.293 26.155-107.657l22.772-145.967-90.416-6.688-39.571 184.476c-17.647 26.24-23.811 73.74 6.92 88.113" style="font-variation-settings:normal"/>
  <path fill="none" stroke="#494648" stroke-dasharray="6,2" stroke-miterlimit="100" stroke-width="2" d="m296.132 531.896-109.509-16.541"/>
  <path stroke="#4c457a" stroke-miterlimit="100" stroke-width="2" d="m221.459 557.836-8.116-65.7-9.537 46.028-41.337-43.797 23.875 37.973-45.504-16.995 51.7 43.94-47.657-11.38 56.178 29.265" style="font-variation-settings:normal;-inkscape-stroke:none"/>
  <path fill-rule="evenodd" stroke="#4c457a" stroke-miterlimit="100" stroke-width="2" d="m359.142 278.5 32.236 34.834-32.891-9.584 25.86 62.108-46.548-42.4 7.385 37.15-27.38-36.754-17.142 36.173-4.856-47.392-42.367 42.65 9.217-41.21-25.847 35.976 6.299-41.36-60.17 36.872 25.581-35.074-47.04 4.945 35.48-31.844" style="font-variation-settings:normal;-inkscape-stroke:none"/>
  <ellipse cx="259.947" cy="298.539" fill="#033622" fill-rule="evenodd" stroke="#6f3c47" stroke-miterlimit="100" stroke-width="4" rx="41.495" ry="29.743" stop-color="#171b20" style="font-variation-settings:normal;-inkscape-stroke:none" transform="rotate(4)"/>
  <g stroke-width=".592" clip-path="url(#k)" transform="matrix(1.69 0 0 1.69 3.082 15.432)">
    <path id="c" fill="#bfccc2" stroke-width=".592" d="m106.822 76.734 132.258 1.713-5.005 58.725-7.206 14.757c-33.644 15.464-99.382 18.354-138.363-5.68 11.795-8.859 13.667-30.156 14.293-54.745Z"/>
    <circle cx="163.443" cy="147.998" r="2.96" fill="#e9baf7" fill-rule="evenodd" filter="url(#l)" style="font-variation-settings:normal;mix-blend-mode:normal" transform="matrix(13.808 0 0 4.813 -2164.654 -561.978)"/>
    <circle cx="163.443" cy="147.998" r="2.96" fill="#e8fe9d" fill-rule="evenodd" filter="url(#l)" style="font-variation-settings:normal;mix-blend-mode:normal" transform="matrix(13.808 0 0 4.813 -2035.389 -564.495)"/>
  </g>
  <path fill="none" stroke="#2e9c9b" stroke-miterlimit="100" stroke-width="2.366" d="M226.869 151.568c-33.644 15.464-99.382 18.354-138.363-5.68 11.795-8.859 13.667-30.156 14.293-54.745" transform="matrix(1.69 0 0 1.69 3.082 16.042)"/>
  <path fill="none" d="m183.652 145.16 223.566 2.896-8.46 99.28"/>
  <g fill="#3b28f3" fill-rule="evenodd" stroke="#282f65" stroke-miterlimit="100" stroke-width=".592" style="font-variation-settings:normal">
    <path fill="#370e02" stroke="#663a73" stroke-width="1.183" d="m144.243 67.145-.446 73.6 23.86 1.232 16.564-74.497" stop-color="#dee5e5" style="font-variation-settings:normal" transform="matrix(1.689 -.08 .08 1.689 -2.853 28.207)"/>
    <path fill="#19fe85" stroke="#823f46" stroke-dasharray="1.18308,.591542" d="m143.987 125.048 26.838 1.39" stop-color="#f2eef0" style="font-variation-settings:normal" transform="matrix(1.689 -.08 .08 1.689 -2.853 28.207)"/>
    <path fill="#3dd20f" stroke="#558538" stroke-dasharray="1.18308,.591542" d="m144.27 105.928 30.714 2.488" stop-color="#f6f6f5" style="font-variation-settings:normal" transform="matrix(1.689 -.08 .08 1.689 -2.853 28.207)"/>
    <path fill="#08a2db" stroke="#5f3757" stroke-dasharray="1.18308,.591542" d="m142.53 84.043 35.972 2.193" stop-color="#dfe0df" style="font-variation-settings:normal" transform="matrix(1.689 -.08 .08 1.689 -2.853 28.207)"/>
  </g>
  <path fill="#a8f9f8" fill-rule="evenodd" stroke="#3b8a6d" stroke-miterlimit="100" stroke-width="4" d="m231.852 103.68-69.355-82.43-21.28 78.978L103.8 34.164l-9.637 62.513L25.344 28.62l82 113.02 4.112-48.097 37.297 58.226 24.227-61.43 24.954 44.706" style="font-variation-settings:normal"/>
  <path fill="#978e99" d="m147.922 176.474-27.255 119.249 64.984-117.777-23.321 109.418 50.612-131.813-6.588 115.397 28.045-102.828-7.974 75.86 36.265-87.689-20.287 69.508 41.852-78.01 10.328 69.645 2.974-55.078 17.235 86.636-.507-71.614 23.1 100.78 14.55-87.222 16.969 110.29 10.723-105.633-1.327 136.026 22.146-79.705 14.198-137.007a150.618 109.474 0 0 0-139.12-49.422 150.618 109.474 0 0 0-125.561 65.868Z"/>
  <path fill="#909091" fill-rule="evenodd" stroke="#504a37" stroke-miterlimit="100" stroke-width="2" d="m494.142 209.113 62.74-20.937-28.104 20.119 60.185-2.266-49.612 10.932 24.467 26.05-43.167-18.161" stop-color="#1a1919" style="font-variation-settings:normal"/>
  <path fill="none" stroke="#404a51" stroke-miterlimit="100" stroke-width=".592" d="M85.685 95.257 69.56 165.793l38.444-69.666-13.796 64.721 29.94-77.967-3.897 68.258 16.591-60.823-4.717 44.87 21.454-51.868-12.002 41.114 24.76-46.142 6.11 41.195 1.758-32.58 10.197 51.246-.3-42.36 13.665 59.612 8.608-51.592 10.038 65.237 6.344-62.482-.785 80.46 13.1-47.147" transform="matrix(1.69 0 0 1.69 3.082 15.432)"/>
  <path fill="none" stroke="#514b48" stroke-miterlimit="100" stroke-width=".592" d="M86.892 68.567a89.103 64.754 0 0 1 74.28-38.96 89.103 64.754 0 0 1 82.301 29.232" style="font-variation-settings:normal;-inkscape-stroke:none" transform="matrix(1.69 0 0 1.69 3.082 15.432)"/>
  <path fill="#717e88" fill-rule="evenodd" stroke="#3e3d3e" stroke-miterlimit="100" stroke-width="2" d="M204.872 95.852 78.107 84.846l62.764 20.189-59.141 13.592 106.66-5.253" stop-color="#030404" style="font-variation-settings:normal;-inkscape-stroke:none"/>
  <path fill="#7d8c94" fill-rule="evenodd" stroke="#454646" stroke-miterlimit="100" stroke-width="2" d="m303.925 94.127-87.357-65.324 52.858 49.639-82.686-32.176 90.192 50.185" stop-color="#020201" style="font-variation-settings:normal;-inkscape-stroke:none"/>
  <path fill="#eaf986" fill-rule="evenodd" stroke="#6f3851" stroke-miterlimit="100" stroke-width="2" d="m422.797 219.667 92.467 4.555-78.133 31.271 29.076 24.998-36.912-11.98 11.999 24.425-33.74-35.13 23.013 6.288-12.99-25.515 36.882.81z" stop-color="#0a090c" style="font-variation-settings:normal;-inkscape-stroke:none"/>
  <path fill="none" stroke="#6e6e6e" stroke-miterlimit="100" d="m249.266 260.88 6.285 7.505" style="font-variation-settings:normal"/>
  <path fill="none" stroke="#707b58" stroke-miterlimit="100" d="m295.363 261.03-8.072 7.65" style="font-variation-settings:normal"/>
  <path fill="#a19998" fill-rule="evenodd" stroke="#48533c" stroke-miterlimit="100" stroke-width="2" d="m78.388 205.513-42.644-20.275 24.784 21.02-44.334 1.734 24.633 6.11-18.274 24.266 43.212-19.74" stop-color="#15100e" style="font-variation-settings:normal;-inkscape-stroke:none"/>
  <path fill="#839d9e" fill-rule="evenodd" stroke="#6d6c6f" stroke-miterlimit="100" stroke-width="2" d="m421.716 145.587 49.422 37.204-29.435-10.425 20.596 23.528-53.87-27.912" stop-color="#d2cfd2" style="font-variation-settings:normal;-inkscape-stroke:none"/>
  <path fill="#9c9b97" fill-rule="evenodd" stroke="#6d5e6f" stroke-miterlimit="100" stroke-width="2" d="m398.55 176.191 26.107 35.6-29.428-17.766 10.4 25.163-19.067-19.193" stop-color="#cdcfca" style="font-variation-settings:normal;-inkscape-stroke:none"/>
  <path fill="url(#m)" fill-rule="evenodd" stroke="#66703f" stroke-miterlimit="100" stroke-width="4" d="m320.225 105.187 93.797-82.43 28.778 78.979 50.604-66.064 13.032 62.512 93.072-68.055-110.896 113.02-5.562-48.098-50.441 58.227-32.765-61.43-33.749 44.705" stop-color="#1c211a" style="font-variation-settings:normal"/>
  <ellipse cx="200.832" cy="215.207" fill="#8b96fa" fill-rule="evenodd" stroke="#4a6432" stroke-miterlimit="100" stroke-width="2" rx="17.954" ry="65.72" style="font-variation-settings:normal"/>
  <ellipse cx="205.837" cy="217.996" fill="#433d04" fill-rule="evenodd" stroke="#778536" stroke-miterlimit="100" rx="6.718" ry="41.31" style="font-variation-settings:normal"/>
  <path fill="none" stroke="#4d433a" stroke-dasharray="6,2" stroke-miterlimit="100" stroke-width="2" d="m214.08 422.176 94.33 8.998"/>
  <path fill="none" stroke="#575254" stroke-dasharray="6,2" stroke-miterlimit="100" stroke-width="2" d="M202.896 467.777 309.25 484.1"/>
  <ellipse cx="428.133" cy="253.386" fill="#350429" fill-rule="evenodd" stroke="#52743d" stroke-miterlimit="100" stroke-width="3" rx="23.957" ry="96.922" stop-color="#0d0c0f" style="font-variation-settings:normal" transform="rotate(20.077) skewX(.004)"/>
  <path fill="#350429" fill-rule="evenodd" stroke="#3d7e54" stroke-miterlimit="100" stroke-width="3" d="M388.073 381.463a22.957 79.146 0 0 1-15.957-84.318 22.957 79.146 0 0 1 20.96-70.1 22.957 79.146 0 0 1 23.963 57.545" stop-color="#131314" style="font-variation-settings:normal" transform="rotate(14.943) skewX(.003)"/>
  <path fill="#c2d1bc" stroke="#585655" stroke-miterlimit="100" stroke-width="6" d="M254.534 361.102a27.24 19.07 0 0 1-29.131-12.288 27.24 19.07 0 0 1 10.697-22.601 27.24 19.07 0 0 1 33.85 2.32" stop-color="#0e0f0c" style="font-variation-settings:normal" transform="rotate(4)"/>
  <path stroke="#4c457a" stroke-miterlimit="100" stroke-width="2" d="m276.652 293.822-50.264-3.899 30.801 20.074-32.396 8.755 26.374 7.538-27.163 33.166 27.698-11.527-20.455 42.192 37.737-32.84" style="font-variation-settings:normal;-inkscape-stroke:none"/>
  <path fill="#350429" fill-rule="evenodd" stroke="#38357c" stroke-miterlimit="100" stroke-width="4" d="M320.725 330.563a41.495 29.743 0 0 1-36.99-26.425 41.495 29.743 0 0 1 28.368-31.43 41.495 29.743 0 0 1 48.79 13.351 41.495 29.743 0 0 1-8.07 36.984" stop-color="#030304" style="font-variation-settings:normal;-inkscape-stroke:none" transform="rotate(4)"/>
  <path fill="#c2d1bc" stroke="#595d4e" stroke-miterlimit="100" stroke-width="6" d="M316.075-330.891a27.24 19.07 0 0 1-33.814 2.593 27.24 19.07 0 0 1-11.061-22.52 27.24 19.07 0 0 1 28.941-12.513" stop-color="#151e15" style="font-variation-settings:normal" transform="matrix(.998 .07 .07 -.998 0 0)"/>
  <ellipse cx="344.223" cy="215.207" fill="#a3f5bc" fill-rule="evenodd" stroke="#623970" stroke-miterlimit="100" stroke-width="2" rx="17.954" ry="65.72" stop-color="#1b1a1a" style="font-variation-settings:normal;-inkscape-stroke:none"/>
  <ellipse cx="346.876" cy="217.996" fill="#231d02" fill-rule="evenodd" stroke="#7a3d69" stroke-miterlimit="100" rx="6.718" ry="41.31" stop-color="#050506" style="font-variation-settings:normal;-inkscape-stroke:none"/>
  <g stroke-miterlimit="100" stroke-width=".887">
    <path fill="#e1dee1" fill-rule="evenodd" stroke="#645643" d="m279.507 240.542 1.02 11.187-5.47-10.157-.776 7.302-3.994-9.89" style="font-variation-settings:normal" transform="matrix(1.127 0 0 1.127 1.49 13.26)"/>
    <path fill="none" stroke="#5e4554" stroke-width="1.775" d="M283.059 242.997c-15.094-12.224-37.262 9.66-45.088-1.983" style="font-variation-settings:normal;-inkscape-stroke:none" transform="matrix(1.127 0 0 1.127 1.49 13.26)"/>
  </g>
  <circle cx="213.755" cy="176.596" r="10.643" fill="#ff0" filter="url(#n)" style="font-variation-settings:normal;mix-blend-mode:normal;-inkscape-stroke:none" transform="matrix(.852 0 0 3.114 7.073 -361.62)"/>
  <circle cx="213.755" cy="176.596" r="10.643" fill="#ff0" filter="url(#n)" style="font-variation-settings:normal;mix-blend-mode:normal;-inkscape-stroke:none" transform="matrix(.852 0 0 3.114 152.62 -364.466)"/>
  <g stroke-width=".887">
    <path fill="#390600" stroke="#54794f" stroke-miterlimit="100" stroke-width="4.437" d="M136.885 664.982a119.124 55.612 0 0 1-21.796-74.012 119.124 55.612 0 0 1 155.65-17.356 119.124 55.612 0 0 1 52.201 70.622Z" style="font-variation-settings:normal" transform="matrix(1.124 -.083 .083 1.124 -11.993 15.96)"/>
    <path fill="#390600" stroke="#7f6c31" stroke-miterlimit="100" stroke-width="3.549" d="m373.64 586.005 67.623 15.833 46.801-26.635c-.124 12.093-6.462 23.446-16.523 35.478l39.64-9.967c-5.706 13.484-17.234 29.049-32.276 31.595l30.093 10.384c-16.394 12.803-40.974 14.271-69.294 3.65l-78.972-29.62" style="font-variation-settings:normal" transform="matrix(1.127 0 0 1.127 -11.993 15.96)"/>
    <path fill="#390600" d="M342.294 536.745a78.366 72.174 0 0 1 34.616 80.138 78.366 72.174 0 0 1-73.479 53.469l10.285-9.49a87.979 129.19 66.851 0 1-143.588 43.44l-23.745-6.68a87.979 129.19 66.851 0 1 29.764-110.99 87.979 129.19 66.851 0 1 143.085-42.988z"/>
    <path fill="none" stroke="#995d30" stroke-miterlimit="100" stroke-width="4.437" d="M314.386 462.068a69.54 64.036 0 0 1 30.717 71.103 69.54 64.036 0 0 1-65.203 47.44" style="font-variation-settings:normal" transform="matrix(1.127 0 0 1.127 -11.993 15.96)"/>
    <path fill="none" stroke="#995d30" stroke-miterlimit="100" stroke-width="5.324" d="M-108.454 611.376a114.638 78.061 0 0 1 62.988-80.174 114.638 78.061 0 0 1 131.743 14.826" style="font-variation-settings:normal" transform="matrix(1.036 -.443 .443 1.036 -11.993 15.96)"/>
    <path fill="#390600" stroke="#b83f2f" stroke-miterlimit="100" stroke-width="4.437" d="M228.256 639.348a64.036 64.036 0 0 1-78.1.565 64.036 64.036 0 0 1-20.557-75.348" style="font-variation-settings:normal" transform="matrix(1.127 0 0 1.127 -11.993 15.96)"/>
    <path fill="none" stroke="#796f31" stroke-miterlimit="100" stroke-width="5.324" d="M-43.25-640.742A114.638 78.061 0 0 1 89.062-626.11" style="font-variation-settings:normal" transform="matrix(-1.036 .443 -.443 -1.036 -14.868 15.96)"/>
  </g>
  <g fill="#6c3d32" stroke-width=".887" transform="matrix(1.127 0 0 1.127 -14.693 15.072)">
    <ellipse cx="319.388" cy="486.735" rx="6.122" ry="4.592" style="font-variation-settings:normal"/>
    <ellipse cx="307.653" cy="513.01" rx="9.184" ry="4.847" style="font-variation-settings:normal"/>
    <ellipse cx="286.99" cy="486.735" rx="8.418" ry="4.082" style="font-variation-settings:normal"/>
    <ellipse cx="332.398" cy="511.224" rx="6.888" ry="4.082" style="font-variation-settings:normal"/>
    <ellipse cx="322.704" cy="536.48" rx="5.867" ry="4.337" style="font-variation-settings:normal"/>
    <ellipse cx="268.367" cy="516.327" rx="6.633" ry="3.061" style="font-variation-settings:normal"/>
    <ellipse cx="207.653" cy="504.592" rx="7.653" ry="5.612" style="font-variation-settings:normal"/>
    <ellipse cx="291.837" cy="542.347" rx="9.184" ry="2.041" style="font-variation-settings:normal"/>
    <ellipse cx="234.949" cy="533.929" rx="5.867" ry="4.337" style="font-variation-settings:normal"/>
    <ellipse cx="245.408" cy="493.878" rx="7.653" ry="5.102" style="font-variation-settings:normal"/>
  </g>
  <text xml:space="preserve" x="598.535" y="166.894" stroke-miterlimit="2" stroke-width="9" font-family="Times Now" font-size="40" font-weight="400" letter-spacing="0" paint-order="stroke fill markers" style="line-height:1;-inkscape-font-specification:&quot;Times Now, Normal&quot;;font-variant-ligatures:normal;font-variant-caps:normal;font-variant-numeric:normal;font-variant-east-asian:normal;text-decoration-color:#000"><tspan x="598.535" y="166.894" style="line-height:1;-inkscape-font-specification:&quot;Times Now, Normal&quot;;font-variant-ligatures:normal;font-variant-caps:normal;font-variant-numeric:normal;font-variant-east-asian:normal">2024~</tspan></text>
</svg>
