<svg xmlns="http://www.w3.org/2000/svg" xmlns:xlink="http://www.w3.org/1999/xlink" xml:space="preserve" viewBox="0 0 512 768">
  <defs>
    <linearGradient id="o">
      <stop offset="0" stop-color="#cec9dc"/>
    </linearGradient>
    <linearGradient id="n" gradientTransform="matrix(1.106 0 0 .924 -193.905 -158.314)">
      <stop offset="0" stop-color="#f6f6f1"/>
    </linearGradient>
    <linearGradient id="m" gradientTransform="matrix(1.425 0 0 .949 -51.656 278.12)">
      <stop offset="0" stop-color="#c3a04c"/>
    </linearGradient>
    <linearGradient id="l" gradientTransform="translate(-86.893 16.713)">
      <stop offset="0" stop-color="#fff"/>
    </linearGradient>
    <linearGradient id="k" gradientTransform="matrix(1.164 0 0 .888 -11.689 70.85)">
      <stop offset="0" stop-color="#606469"/>
    </linearGradient>
    <linearGradient id="j" gradientTransform="matrix(1.052 0 0 .961 -4.221 19.443)">
      <stop offset="0" stop-color="#a1a0ab"/>
    </linearGradient>
    <linearGradient id="i">
      <stop offset="0" stop-color="#a4353f"/>
    </linearGradient>
    <linearGradient id="h" gradientTransform="matrix(1.115 0 0 1.143 -31.05 223.152)">
      <stop offset="0" stop-color="#4d423c"/>
    </linearGradient>
    <linearGradient id="f" gradientTransform="matrix(1.365 -.631 .662 1.367 274.25 36.096)">
      <stop offset="0" stop-color="#d87965"/>
    </linearGradient>
    <linearGradient id="q" gradientTransform="matrix(1.224 0 0 1.022 438.387 65.281)">
      <stop offset="0" stop-color="#f9dfd7"/>
    </linearGradient>
    <linearGradient id="e" gradientTransform="matrix(2.002 0 0 1.334 -173.669 326.26)">
      <stop offset="0" stop-color="#776b2b"/>
    </linearGradient>
    <linearGradient id="d" gradientTransform="matrix(1.438 -.576 .898 .946 -391.687 239.903)">
      <stop offset="0" stop-color="#ddd4ca"/>
    </linearGradient>
    <linearGradient id="c">
      <stop offset="0" stop-color="#a4353f"/>
      <stop offset="1" stop-color="#ddd4ca"/>
    </linearGradient>
    <linearGradient id="b">
      <stop offset="0"/>
      <stop offset="1" stop-color="#fff"/>
    </linearGradient>
    <linearGradient xlink:href="#b" id="a" x1="29.265" x2="166.955" y1="399.354" y2="377.55" gradientUnits="userSpaceOnUse"/>
    <linearGradient xlink:href="#c" id="N" x1="370.284" x2="375.73" y1="109.804" y2="193.31" gradientTransform="matrix(1.117 0 0 1.117 -19.385 -6.096)" gradientUnits="userSpaceOnUse"/>
    <linearGradient xlink:href="#d" id="I" x1="145.673" x2="408.301" y1="120.373" y2="120.373" gradientUnits="userSpaceOnUse"/>
    <linearGradient xlink:href="#e" id="L" x1="263.117" x2="412.311" y1="109.801" y2="109.801" gradientUnits="userSpaceOnUse"/>
    <linearGradient xlink:href="#f" id="H" x1="200.306" x2="337.182" y1="164.072" y2="164.072" gradientUnits="userSpaceOnUse"/>
    <linearGradient xlink:href="#e" id="M" gradientUnits="userSpaceOnUse"/>
    <linearGradient xlink:href="#e" id="J" gradientTransform="matrix(.88 -.083 0 1.117 55.8 18.021)" gradientUnits="userSpaceOnUse"/>
    <linearGradient xlink:href="#e" id="K" gradientTransform="matrix(-.88 -.083 0 1.117 496.055 19.252)" gradientUnits="userSpaceOnUse"/>
    <linearGradient xlink:href="#f" id="E" gradientTransform="translate(3.1 5.716)" gradientUnits="userSpaceOnUse"/>
    <linearGradient xlink:href="#f" id="G" gradientTransform="translate(3.1 5.716)" gradientUnits="userSpaceOnUse"/>
    <linearGradient xlink:href="#f" id="P" x1="168.93" x2="186.961" y1="332.392" y2="332.392" gradientTransform="matrix(1.732 0 0 .72 -19.385 -6.096)" gradientUnits="userSpaceOnUse"/>
    <linearGradient xlink:href="#h" id="z" x1="141.79" x2="331.331" y1="326.596" y2="326.596" gradientTransform="matrix(1.01 0 0 .947 -3.3 24.63)" gradientUnits="userSpaceOnUse"/>
    <linearGradient xlink:href="#h" id="x" x1="318.208" x2="472.501" y1="281.138" y2="281.138" gradientTransform="matrix(.928 0 0 1.052 22.875 2.714)" gradientUnits="userSpaceOnUse"/>
    <linearGradient xlink:href="#h" id="B" x1="83.703" x2="254.05" y1="275.548" y2="275.548" gradientTransform="matrix(.978 0 0 1.124 1.935 -13.298)" gradientUnits="userSpaceOnUse"/>
    <linearGradient xlink:href="#i" id="y" x1="141.79" x2="331.331" y1="326.596" y2="326.596" gradientTransform="matrix(1.01 0 0 .947 -3.3 24.63)" gradientUnits="userSpaceOnUse"/>
    <linearGradient xlink:href="#i" id="w" x1="318.208" x2="472.501" y1="281.138" y2="281.138" gradientTransform="matrix(.928 0 0 1.052 22.875 2.714)" gradientUnits="userSpaceOnUse"/>
    <linearGradient xlink:href="#i" id="A" x1="83.703" x2="254.05" y1="275.548" y2="275.548" gradientTransform="matrix(.978 0 0 1.124 1.935 -13.298)" gradientUnits="userSpaceOnUse"/>
    <linearGradient xlink:href="#j" id="r" x1="149.259" x2="287.001" y1="448.314" y2="448.314" gradientTransform="matrix(1.052 0 0 .961 3.117 21.589)" gradientUnits="userSpaceOnUse"/>
    <linearGradient xlink:href="#k" id="s" x1="149.259" x2="287.001" y1="448.314" y2="448.314" gradientTransform="matrix(1.052 0 0 .961 3.117 21.589)" gradientUnits="userSpaceOnUse"/>
    <linearGradient xlink:href="#l" id="C" x1="243.099" x2="304.354" y1="244.037" y2="244.037" gradientTransform="matrix(1.052 0 0 1.052 .28 8.386)" gradientUnits="userSpaceOnUse"/>
    <linearGradient xlink:href="#m" id="R" x1="262.142" x2="284.067" y1="334.007" y2="334.007" gradientTransform="matrix(1.052 0 0 1.052 -8.3 7.313)" gradientUnits="userSpaceOnUse"/>
    <linearGradient xlink:href="#n" id="p" x1="-19.903" x2="82.024" y1="573.991" y2="573.991" gradientTransform="matrix(1.039 -.14 .165 .88 -2.463 70.46)" gradientUnits="userSpaceOnUse"/>
    <linearGradient xlink:href="#n" id="v" x1="-19.903" x2="82.024" y1="573.991" y2="573.991" gradientTransform="matrix(.959 -.354 .435 .894 -51.696 182.887)" gradientUnits="userSpaceOnUse"/>
    <linearGradient xlink:href="#o" id="Q" x1="183.72" x2="313.858" y1="501.909" y2="501.909" gradientUnits="userSpaceOnUse"/>
    <linearGradient xlink:href="#e" id="O" gradientUnits="userSpaceOnUse"/>
    <linearGradient xlink:href="#k" id="t" x1="83.703" x2="254.05" y1="275.548" y2="275.548" gradientTransform="matrix(.978 0 0 1.124 1.935 -13.298)" gradientUnits="userSpaceOnUse"/>
    <linearGradient xlink:href="#k" id="u" x1="83.703" x2="254.05" y1="275.548" y2="275.548" gradientTransform="matrix(.978 0 0 1.124 1.935 -13.298)" gradientUnits="userSpaceOnUse"/>
    <clipPath id="D" clipPathUnits="userSpaceOnUse">
      <use xlink:href="#g"/>
    </clipPath>
    <filter id="F" width="1.632" height="1.632" x="-.316" y="-.316" color-interpolation-filters="sRGB">
      <feGaussianBlur stdDeviation="4.706"/>
    </filter>
  </defs>
  <path fill="url(#f)" stroke="url(#i)" stroke-miterlimit="100" stroke-width="2" d="M107.356 456.338c-1.242.41-2.313.696-3.566.973-8.329 1.844-17.063.846-24.86-1.609-11.376-3.6-21.145-10.4-28.615-18.154-9.311-9.657-15.275-20.956-18.61-30.974-4.717-14.16-4.77-27.005-3.586-35.998 1.802-13.72 6.998-23.22 8.993-26.702 2.516-4.393 3.471-5.578 3.471-5.578s-1.248.825-4.347 4.8c-2.487 3.189-8.8 11.99-11.683 26.303-1.872 9.303-2.623 22.95 1.866 38.59 3.18 11.07 9.256 23.752 19.337 34.916 8.097 8.962 18.833 16.964 31.699 21.458 8.824 3.095 18.863 4.503 28.855 2.623 7.629-1.437 14.915-4.551 21.277-10.516m11.816-18.405c1.524-4.527 2.429-9.492 2.533-14.776.193-10.944-3.375-23.051-11.038-32.741-4.868-6.1-11.252-10.963-18.413-13.594-6.833-2.5-14.22-2.867-21.043-.684-6.525 2.101-12.348 6.524-16.377 12.888-3.854 6.115-5.91 13.867-5.545 22.148.564 10.931 5.225 21.985 12.861 30.336 7.229 7.875 16.58 13.172 26.362 15.063 9.3 1.793 18.703.724 27.228-2.803 3.989-1.637 7.777-3.762 11.33-6.294 3.742-2.662 7.197-5.74 10.357-9.09 7.682-8.143 13.821-18.09 17.996-29.155l-10.267-5.872c-3.669 9.726-9.057 18.455-15.809 25.613-2.772 2.939-5.76 5.594-8.95 7.862-3.025 2.149-6.195 3.936-9.48 5.28-7.012 2.84-14.564 3.78-21.738 2.343-7.483-1.494-14.662-5.443-19.84-11.172-5.43-5.975-8.941-13.989-9.248-21.357-.295-5.614 1.126-11.103 3.742-15.318 2.722-4.41 6.857-7.61 11.382-9.115 4.734-1.589 10.074-1.38 14.913.334 5.084 1.789 9.793 5.298 13.332 9.637 5.619 6.802 8.438 16.081 8.435 24.305.019 8.69-3.052 16.678-7.607 22.57" style="font-variation-settings:normal"/>
  <path fill="url(#p)" stroke="url(#d)" stroke-miterlimit="100" stroke-width="6" d="M168.52 578.194c9.103 29.776 5.66 58.021-27.238 60.884-34.113 2.969-52.826-29.29-55.92-65.676-3.095-36.386 9.664-60.45 32.889-61.377 13.325-.532 22.969 5.506 32.447 16.785"/>
  <path fill="url(#n)" stroke="url(#d)" stroke-miterlimit="100" stroke-width="3" d="m130.458 602.268 45.952 5.163-.644-16.703-46.462-6.216" style="font-variation-settings:normal"/>
  <path fill="url(#j)" stroke="url(#k)" stroke-miterlimit="100" stroke-width="4" d="m293.656 432.66 17.774 96.749-100.397-7.905L197.3 408.76"/>
  <path fill="url(#q)" stroke="url(#f)" stroke-miterlimit="100" stroke-width="6" d="m297.692 527.453-17.41 60.045-46.869-12.616 23.313-55.391" style="font-variation-settings:normal;-inkscape-stroke:none"/>
  <path fill="url(#o)" stroke="url(#k)" stroke-dasharray="9,3" stroke-miterlimit="100" stroke-width="3" d="M319.079 505.88 312.25 516.6l8.653 18.23-123.886-12.365 4.685-24.914z" style="font-variation-settings:normal"/>
  <path fill="url(#r)" stroke="url(#s)" stroke-miterlimit="100" stroke-width="4" d="m267.576 442.47 32.917 58.62-98.963 22.57-32.28-76.748c-11.355-26.998-6.379-48.481 3.634-58.328"/>
  <path fill="none" stroke="url(#t)" stroke-miterlimit="100" stroke-width="2" d="M186.927 437.312c14.667-5.357 19.252-14.845 17.023-30.838" style="font-variation-settings:normal;-inkscape-stroke:none"/>
  <path fill="none" stroke="url(#u)" stroke-miterlimit="100" stroke-width="2" d="M188.272 442.158c1.12-.44 2.233-.895 3.338-1.373 5.426-2.306 10.477-5.906 13.624-10.977 3.324-5.122 4.434-11.372 4.211-17.398" style="font-variation-settings:normal;-inkscape-stroke:none"/>
  <path fill="none" stroke="url(#t)" stroke-dasharray="10,4" stroke-miterlimit="100" stroke-width="2" d="M183.047 394.177c-3.505 17.784-.773 32.847 5.378 47.908l26.027 63.728" style="font-variation-settings:normal"/>
  <path fill="url(#v)" stroke="url(#d)" stroke-miterlimit="100" stroke-width="6" d="M253.554 660.76c7.234 14.062 13.889 28.355 16.982 40.15 8.574 32.695-2.5 50.916-26.392 53.348-23.893 2.433-49.68-6.886-62.247-51.198-7.109-25.07.784-49.124 15.64-58.09"/>
  <path fill="url(#n)" stroke="url(#d)" stroke-miterlimit="100" stroke-width="3" d="m264.523 706.656-46.481.493-5.942-17.884 47.01-.078" style="font-variation-settings:normal"/>
  <ellipse cx="120.322" cy="677.612" fill="url(#m)" stroke="url(#e)" stroke-dasharray="8.00128,2.00033" stroke-miterlimit="100" stroke-width="2" rx="25.3" ry="25.334" style="font-variation-settings:normal;-inkscape-stroke:none" transform="rotate(-7.472) skewX(1.451)"/>
  <path fill="url(#m)" stroke="url(#e)" stroke-dasharray="12,3" stroke-miterlimit="100" stroke-width="3" d="m244.921 657.6 19.671-.914-6.076-13.048 15.112-.402-4.667-19.838 14.993-.364-4.552-20.221 10.74-3.427-4.833-19.885c-20.772-3.237-35.112-7.848-46.707-15.596l-14.52 3.285 7.595 11.118-16.778 4.765 9.487 20.116-16.886 2.797-.544 16.79-11.937 2.36 3.959 11.753-9.271 2.462 12.446 15.71" style="font-variation-settings:normal"/>
  <path fill="url(#q)" stroke="url(#f)" stroke-miterlimit="100" stroke-width="6" d="M244.588 565.76c35.755-8.564 51.363-33.561 36.909-63.71l-69.962 10.878" style="font-variation-settings:normal"/>
  <ellipse cx="47.725" cy="558.383" fill="url(#m)" stroke="url(#e)" stroke-dasharray="8.00177,2.00044" stroke-miterlimit="100" stroke-width="2" rx="26.199" ry="32.469" style="font-variation-settings:normal;-inkscape-stroke:none" transform="rotate(-8.813) skewX(1.701)"/>
  <path fill="url(#n)" stroke="url(#d)" stroke-miterlimit="100" stroke-width="4" d="m111.854 572.553 16.305-14.122 58.14 14.331-22.692 10.68" style="font-variation-settings:normal"/>
  <path fill="url(#m)" stroke="url(#e)" stroke-dasharray="12,3" stroke-miterlimit="100" stroke-width="3" d="m142.54 512.383 14.313-14.964 6.331 14.474 13.719-12.1 5.243 16.746 12.822-12.097 5.392 14.087 13.35-15.758 14.644 10.835c-.899 23.763 7.29 43.618 31.629 49.494l-5.974 15.217-19.727-12.776-5.986 14.27-21.84-15.93-11.527 14.978-10.348-15.792-10.43 15.304-6.113-8.456-7.244 8.838-5.125-12.093" style="font-variation-settings:normal"/>
  <ellipse cx="471.46" cy="267.282" fill="url(#q)" stroke="url(#f)" stroke-miterlimit="100" stroke-width="4" rx="27.704" ry="32.269"/>
  <path fill="url(#w)" stroke="url(#x)" stroke-miterlimit="100" stroke-width="4" d="m324.695 235.367 134.571-4.313-9.44 133.805-131.03-57.9"/>
  <path fill="url(#y)" stroke="url(#z)" stroke-miterlimit="100" stroke-width="4" d="m325.128 288.414-21.218 155.29-160.374-43.712 87.911-99.712 16.313-69.954 83.679-6.471"/>
  <ellipse cx="73.778" cy="266.874" fill="url(#q)" stroke="url(#f)" stroke-miterlimit="100" stroke-width="4" rx="27.704" ry="32.269"/>
  <path fill="url(#A)" stroke="url(#B)" stroke-miterlimit="100" stroke-width="4" d="m250.246 238.381-156.681-3.859-7.666 123.452 149.917-49.416"/>
  <path fill="url(#d)" stroke="url(#e)" stroke-miterlimit="100" stroke-width="2" d="m241.488 196.668-39.139 97.661 6.39-49.23-32.759 42.121L193.254 240l-38.817 17.367 28.835-37.848-43.3 7.689 48.579-43.089"/>
  <path fill="url(#C)" stroke="url(#h)" stroke-miterlimit="100" stroke-width="4" d="m318.296 234.292-.681 52.068-23.454-29.338-19.81 33.521-16.362-55.507" style="font-variation-settings:normal"/>
  <g stroke-width=".896" clip-path="url(#D)" transform="matrix(1.117 0 0 1.117 -19.385 -6.096)">
    <path id="g" fill="url(#q)" stroke-width=".896" d="m210.462 95.988-8.08 113.951c36.71 23.814 84.248 26.113 123.4 5.028l9.407-114.731z"/>
    <circle cx="318.569" cy="210.005" r="17.867" fill="url(#E)" filter="url(#F)" opacity=".5" transform="matrix(1.211 0 0 .804 -64.636 40.013)"/>
    <circle cx="318.569" cy="210.005" r="17.867" fill="url(#G)" filter="url(#F)" opacity=".5" transform="matrix(1.211 0 0 .804 -175.825 40.013)"/>
  </g>
  <path fill="none" stroke="url(#H)" stroke-miterlimit="100" stroke-width="3.582" d="m210.462 95.988-8.08 113.951c36.71 23.814 84.248 26.113 123.4 5.028l9.407-114.731" transform="matrix(1.117 0 0 1.117 -19.385 -6.096)"/>
  <path fill="url(#d)" stroke="url(#e)" stroke-miterlimit="100" stroke-width="2" d="m335.898 172.66 6.134 115.516 11.124-40.052 24.591 51.624-6.527-47.85 33.323 35.166-18.83-48.01 34.353 24.421-33.627-53.957"/>
  <path fill="url(#I)" d="M266.937 80.045a73.216 92.42 0 0 1 76.45-58.036 73.216 92.42 0 0 1 64.124 78.288 73.216 92.42 0 0 1-43.402 98.383l-27.972-20.698 1.53 41.24-14.89-56.893 2.337 42.747-18.215-69.124-1.771 35.02-20.222-52.27-2.379 42.29-14.724-50.666-20.288 47.358 5.452-38.499-27.8 52.51 4.761-35.712-33.137 73.908 3.883-37.122-12.941 38.665 1.715-31.358-9.9 10.992A68.022 88.534 0 0 1 146.66 99.46a68.022 88.534 0 0 1 54.552-71.993 68.022 88.534 0 0 1 70.834 41.531Z" transform="matrix(1.117 0 0 1.117 -19.385 -6.096)"/>
  <path fill="none" stroke="url(#J)" stroke-miterlimit="100" stroke-width="8" d="M293.142 204.528c11.823-18.03 41.652-18.139 55.277 1.925"/>
  <path fill="none" stroke="url(#e)" stroke-miterlimit="100" stroke-width="7.165" d="M-272.047 68.998a68.022 88.534 0 0 1 70.834-41.53 68.022 88.534 0 0 1 54.552 71.992 68.022 88.534 0 0 1-32.887 91.608" transform="matrix(-1.117 0 0 1.117 -19.385 -6.096)"/>
  <path fill="none" stroke="url(#K)" stroke-miterlimit="100" stroke-width="8" d="M258.713 205.758c-11.824-18.03-41.652-18.138-55.277 1.926"/>
  <path fill="none" stroke="url(#L)" stroke-miterlimit="100" stroke-width="7.165" d="M266.937 80.045a73.216 92.42 0 0 1 76.45-58.036 73.216 92.42 0 0 1 64.124 78.288 73.216 92.42 0 0 1-43.402 98.383" transform="matrix(1.117 0 0 1.117 -19.385 -6.096)"/>
  <path fill="url(#d)" stroke="url(#M)" stroke-miterlimit="100" stroke-width="1.791" d="M267.017 73.978c-3.116-8.705-9.163-16.33-16.928-21.349-7.766-5.018-17.203-7.397-26.42-6.662-11.164.891-21.887 6.411-29.1 14.98-7.213 8.568-10.823 20.075-9.797 31.228a49.066 49.066 0 0 1 14.637-22.07 49.066 49.066 0 0 1 24.013-11.166c15.806-2.556 32.727 3.281 43.595 15.039z" transform="matrix(1.115 -.059 .059 1.115 -39.471 28.319)"/>
  <path fill="url(#N)" stroke="url(#O)" stroke-dasharray="3,3" stroke-miterlimit="100" stroke-width="3" d="M385.816 201.433a32.683 53.895 0 0 1-23.558-55.216 32.683 53.895 0 0 1 27.623-49.83 32.683 53.895 0 0 1 35.459 33.747 32.683 53.895 0 0 1-12.346 64.37"/>
  <path fill="url(#d)" stroke="url(#e)" stroke-miterlimit="100" stroke-width="2" d="m365.423 184.482 45.366-40.008-29.15 47.55 57.906-7.564-55.858 19.96 27.229 21.332-40.87-10.22"/>
  <path fill="none" stroke="url(#e)" stroke-miterlimit="100" stroke-width="1.842" d="m189.448 177.53-1.715 33.156 12.941-40.883-3.883 39.252 33.137-78.148-4.762 37.761 27.801-55.522-5.452 40.707 20.288-50.075 14.724 53.574 2.38-44.718 20.221 55.27 1.77-37.03 18.216 73.09-2.337-45.2 14.89 60.156-1.53-43.605" transform="matrix(1.117 0 0 1.056 -19.385 7.502)"/>
  <path fill="none" stroke="url(#P)" stroke-miterlimit="100" stroke-width="2" d="M275.97 245.87c-1.051-3.146-1.581-5.967-1.697-8.778 10.454 1.075 19.822-.082 28.56-2.534.697 2.913.517 5.81.139 8.89"/>
  <ellipse cx="272.503" cy="220.26" fill="url(#f)" rx="2.233" ry="1.675"/>
  <path fill="url(#Q)" stroke="url(#k)" stroke-dasharray="9,3" stroke-miterlimit="100" stroke-width="3" d="m184.886 502.277 110.601-28.491-.31 14.283 15.497 13.47-118.993 28.496 1.563-17.42z"/>
  <ellipse cx="293.262" cy="315.168" fill="url(#m)" stroke="url(#h)" stroke-miterlimit="100" stroke-width="3" rx="9.952" ry="7.487" style="font-variation-settings:normal"/>
  <ellipse cx="278.952" cy="358.562" fill="url(#R)" stroke="url(#h)" stroke-miterlimit="100" stroke-width="3" rx="9.952" ry="7.487" style="font-variation-settings:normal"/>
  <ellipse cx="261.336" cy="400.136" fill="url(#m)" stroke="url(#h)" stroke-miterlimit="100" stroke-width="3" rx="9.952" ry="7.487" style="font-variation-settings:normal"/>
  <path fill="none" stroke="url(#f)" stroke-miterlimit="100" stroke-width="2" d="m344.424 229.567 7.607-5.316m-31.568 2.782 11.58-9.91.196 14.218 13.959-12.048M231.313 217.98l5.496 8.793m-39.536-3.206 15.074-8.71-.34 11.943 9.894-11.084 6.527 12.349" style="font-variation-settings:normal"/>
  <path fill="url(#n)" stroke="url(#d)" stroke-miterlimit="100" stroke-width="4" d="m203.045 680.447 5.752-29.459 58.267 1.382-13.479 28.3" style="font-variation-settings:normal"/>
  <g fill="none" stroke="url(#e)" stroke-miterlimit="100" stroke-width="2">
    <path d="m200.363 224.983-76.94 18.143M198.067 219.714l-76.243-4.291M364.528 220.431l81.706 17.68M363.982 226.267l72.763 22.51" style="font-variation-settings:normal"/>
  </g>
</svg>
