<svg xmlns="http://www.w3.org/2000/svg" xmlns:xlink="http://www.w3.org/1999/xlink" xml:space="preserve" viewBox="0 0 720 720">
  <defs>
    <linearGradient id="d">
      <stop offset="0" stop-color="#c1a0ab"/>
      <stop offset="1" stop-color="#dfd4cc"/>
    </linearGradient>
    <linearGradient id="c">
      <stop offset="0" stop-color="#e3d4dc"/>
      <stop offset="1" stop-color="#dfd4cc"/>
    </linearGradient>
    <linearGradient id="b">
      <stop offset="0" stop-color="#e1cad3"/>
      <stop offset="1" stop-color="#dfd4cc"/>
    </linearGradient>
    <linearGradient id="a">
      <stop offset="0" stop-color="#c78a8b"/>
      <stop offset="1" stop-color="#d5b19c"/>
    </linearGradient>
    <linearGradient xlink:href="#a" id="i" x1="394.521" x2="382.473" y1="703.456" y2="714.044" gradientTransform="translate(321.896 -11.191)" gradientUnits="userSpaceOnUse"/>
    <linearGradient xlink:href="#b" id="j" x1="391.69" x2="377.98" y1="715.416" y2="727.575" gradientTransform="rotate(-14.3 513.834 -549.743)" gradientUnits="userSpaceOnUse"/>
    <linearGradient xlink:href="#c" id="k" x1="398.395" x2="378.426" y1="724.871" y2="732.96" gradientTransform="translate(315.202 -8.682)" gradientUnits="userSpaceOnUse"/>
    <linearGradient xlink:href="#d" id="h" x1="169.689" x2="179.015" y1="701.549" y2="712.31" gradientTransform="rotate(-3.8 309.094 -3930.477)" gradientUnits="userSpaceOnUse"/>
    <linearGradient xlink:href="#e" id="l" x1="904.062" x2="904.171" y1="223.947" y2="236.423" gradientUnits="userSpaceOnUse"/>
    <linearGradient id="e">
      <stop offset="0" stop-color="#d3ead4"/>
      <stop offset="1" stop-color="#e2b9cf"/>
    </linearGradient>
    <linearGradient xlink:href="#f" id="m" x1="-943.72" x2="-943.53" y1="325.402" y2="293.326" gradientUnits="userSpaceOnUse"/>
    <linearGradient id="f">
      <stop offset="0" stop-color="#d09fb1"/>
      <stop offset="1" stop-color="#f9f7f6"/>
    </linearGradient>
    <linearGradient xlink:href="#g" id="n" x1="844.659" x2="843.072" y1="-122.441" y2="-149.023" gradientUnits="userSpaceOnUse"/>
    <linearGradient id="g">
      <stop offset="0" stop-color="#73f0e9"/>
      <stop offset="1" stop-color="#f9f7f6"/>
    </linearGradient>
  </defs>
  <g transform="translate(-246.981 -229.084)">
    <path fill="#c9bcb4" stroke="#36221b" stroke-miterlimit="100" stroke-width="6" d="M541.969 682.953c12.886-37.458 18.33-77.027 15.042-133.46l27.9-40.2c7.736 53.26 15.01 112.09 4.215 178.414z" style="font-variation-settings:normal" transform="translate(281.295 40.403)"/>
    <path fill="#745157" d="m839.776 660.22 4.841 14.905 10.185-16.276 3.36 16.06 15.4-14.581c-.412 19.34-1.153 38.405-4.612 58.558l-37.463-4.478z"/>
    <path fill="#62353d" d="m842.174 613.032 5.896 13.41 8.987-17.534 7.666 16.494 6.4-17.894 2.86 27.46-6.695 10.805-9.415-14.01-10.685 14.538-5.688-15.915z"/>
    <path fill="#c9bcb4" stroke="#41372d" stroke-miterlimit="100" stroke-width="5" d="M558.93 552.549c15.324-31.078 22.816-67.236 25.827-115.358l-122.234-18.374 63.653 178.62c15.816-9.286 30.054-21.345 44.334-40.21" style="font-variation-settings:normal" transform="translate(281.295 40.403)"/>
    <path fill="#745157" stroke="#36221b" stroke-miterlimit="100" stroke-width="7" d="M587.837 666.618a40.592 25.418 0 0 1-3.687 32.922 40.592 25.418 0 0 1-52.502 2.891 40.592 25.418 0 0 1-12.807-32.014 40.592 25.418 0 0 1 48.48-12.948" style="font-variation-settings:normal" transform="translate(281.295 40.403)"/>
    <path fill="#a06d63" d="m860.013 520.777-12.003 21.831-.75-23.867-9.112 18.453-1.082-18.19-12.279 34.924.682 17.118 10.755-19.437-1.852 21.144 8.786-18.416-1.531 20.243 10.842-18.23z"/>
    <path fill="#755a4c" d="m814.807 593.931 5.503 16.06 12.369-16.874-2.212 19.219 12.309-7.472c-10.186 12.988-26.662 27.059-34.456 30.97l-10.87-33.768 13.25 11.771z"/>
    <path fill="#3b3428" d="m810.51 739.303 12.995-19.08-7.254 22.955z"/>
    <path fill="#221b17" d="m836.198 747.54 3.08-25.3L843 746.293z"/>
    <ellipse cx="689.164" cy="782.282" fill="#eddee6" stroke="#b85b61" stroke-miterlimit="100" stroke-width="8.064" rx="42.433" ry="27.402" style="font-variation-settings:normal" transform="matrix(.62 0 0 .62 345.27 157.757)"/>
    <g stroke-width="1.252" transform="matrix(.799 0 0 .799 212.322 49.05)">
      <ellipse cx="689.164" cy="782.282" fill="#eddee6" stroke="#b85b61" stroke-miterlimit="100" stroke-width="7.51" rx="42.433" ry="27.402" style="font-variation-settings:normal"/>
      <ellipse cx="715.838" cy="779.331" fill="#fff" rx="7.055" ry="5.308"/>
    </g>
    <g stroke-width="1.04" transform="matrix(.961 0 0 .961 82.156 -37.662)">
      <ellipse cx="689.164" cy="782.282" fill="#eddee6" stroke="#b85b61" stroke-miterlimit="100" stroke-width="7.28" rx="42.433" ry="27.402" style="font-variation-settings:normal"/>
      <path fill="#eddee6" stroke="#b85b61" stroke-miterlimit="100" stroke-width="5.2" d="M692.974 789.987a10.87 8.177 34.537 0 1 9.888 9.227 10.87 8.177 34.537 0 1-5.601 8.595 10.87 8.177 34.537 0 1-12.275-5.565"/>
      <ellipse cx="709.874" cy="776.992" fill="#fff" rx="7.055" ry="5.308"/>
      <ellipse cx="701.482" cy="770.509" fill="#fff" rx="3.405" ry="1.818"/>
    </g>
    <g stroke-width="1.693" transform="matrix(.59 0 0 .59 297.93 335.338)">
      <path fill="#fff" stroke="#a6a6a6" stroke-miterlimit="100" stroke-width="6.771" d="m857.08 740.716-18.068 35.712-18.872-4.95 22.852-34.273"/>
      <path fill="#fff" stroke="#a6a6a6" stroke-miterlimit="100" stroke-width="6.771" d="M838.904 767.589a24.505 14.792 0 0 1 6.944 19.188 24.505 14.792 0 0 1-30.74 6.436 24.505 14.792 0 0 1-14.231-17.663 24.505 14.792 0 0 1 27.368-10.622m-18.665-18.059a51.072 33.68 29.48 0 1 27.81-34.686 51.072 33.68 29.48 0 1 58.983 31.568 51.072 33.68 29.48 0 1-11.121 43.617zm34.266-99.16 70.632 1.715-43.747 53.253"/>
      <path fill="#fff" stroke="#a6a6a6" stroke-miterlimit="100" stroke-width="6.771" d="M781.737 701a53.017 47.034 13.7 0 1 27.7-55.424 53.017 47.034 13.7 0 1 66.539 19.886 53.017 47.034 13.7 0 1-8.874 61.05z"/>
      <path fill="#fff" stroke="#a6a6a6" stroke-miterlimit="100" stroke-width="6.771" d="m817.098 661.272 67.175 3.629-33.43 41.147"/>
      <ellipse cx="798.285" cy="672.409" fill="#a6a6a6" rx="4.434" ry="19.845"/>
      <path fill="#fff" stroke="#a6a6a6" stroke-miterlimit="100" stroke-width="6.771" d="m891.6 766.807 70.784-14.355-28.321 16.84 40.222 6.444-37.338 8.974 17.039 18.536-70.162-23.473"/>
      <ellipse cx="869.294" cy="785.699" fill="#fff" stroke="#a6a6a6" stroke-miterlimit="100" stroke-width="6.771" rx="24.505" ry="14.792"/>
      <path fill="#fff" stroke="#a6a6a6" stroke-miterlimit="100" stroke-width="6.771" d="m839.14 745.279-18.07 35.711-18.87-4.95 22.852-34.273"/>
      <path fill="#fff" stroke="#a6a6a6" stroke-miterlimit="100" stroke-width="6.771" d="M820.963 772.151a24.505 14.792 0 0 1 6.944 19.189 24.505 14.792 0 0 1-30.74 6.436 24.505 14.792 0 0 1-14.231-17.663 24.505 14.792 0 0 1 27.368-10.623"/>
    </g>
    <ellipse cx="578.563" cy="765.51" fill="#eddee6" stroke="#b85b61" stroke-miterlimit="100" stroke-width="8" rx="73.842" ry="41.825" style="font-variation-settings:normal"/>
    <g fill="#fff" stroke="#a6a6a6" stroke-miterlimit="100" stroke-width="5.894" transform="matrix(-.679 0 0 .679 966.246 317.653)">
      <path d="m900.04 723.202 49.168-52.904-6.712 23.728 29.95-11.738-18.867 25.463 18.395 8.722-70.7 21.798"/>
      <ellipse cx="859.232" cy="764.02" rx="24.505" ry="14.792"/>
      <path d="M824.673 762.215a51.072 33.68 0 0 1 7.14-43.88 51.072 33.68 0 0 1 66.88-1.548 51.072 33.68 0 0 1 11.785 43.443z"/>
      <ellipse cx="901.289" cy="765.332" rx="24.505" ry="14.792"/>
    </g>
    <g fill="#fff" stroke="#a6a6a6" stroke-miterlimit="100" stroke-width="1.625" transform="matrix(-.615 0 0 .615 959.385 324.819)">
      <g stroke-width="6.5">
        <path d="m838.747 723.852-23.229 27.785-16.428-4.31 31.047-32.813"/>
        <path d="M815.913 744.164a21.332 12.877 0 0 1 4.76 17.27 21.332 12.877 0 0 1-28.168 4.173 21.332 12.877 0 0 1-9.023-16.64 21.332 12.877 0 0 1 26.803-6.69"/>
      </g>
      <path stroke-width="6.499" d="m890.208 733.154-.162-72.224 11.286 21.926 13.883-29.019 3.584 31.488 19.4-6.177-36.806 64.18"/>
      <ellipse cx="850.24" cy="756.367" stroke-width="6.499" rx="24.505" ry="14.792"/>
      <path stroke-width="6.499" d="M811.567 717.661a51.072 33.68 33.395 0 1 30.112-32.706 51.072 33.68 33.395 0 1 56.692 35.52 51.072 33.68 33.395 0 1-14.073 42.756z"/>
      <ellipse cx="872.939" cy="763.252" stroke-width="6.499" rx="24.505" ry="14.792"/>
    </g>
    <path fill="#dfd4cc" d="m600.155 754.147-137.733 84.618-67.456-20.608 193.355-70.198Z"/>
    <path fill="#a57a96" d="m482.332 787.875-7.988 14.764 23.437-7.925-5.671 9.224 24.466 1.508-42.557 27.278-46.03-23.902z"/>
    <path fill="#8d6262" d="m510.103 777.554-4.689 10.175 15.766-4.944-3.932 8.032 14.625-3.298-3.614 12.736 25.253-19.62-12.989 1.853 4.983-7.762-14.293-1.473 2.485-5.815z"/>
    <path fill="#553a45" d="M69.99 830.116c54.912-19.935 181.333-71.152 181.333-71.152S121.49 800.781 66.578 820.717l-6.458 2.344-2.152 6.101 5.565 3.299z" style="font-variation-settings:normal" transform="translate(336.998 -11.005)"/>
    <path fill="#040303" d="M135.602 849.385c39.052-23.992 127.554-84.233 127.554-84.233s-93.737 51.72-132.788 75.713l-4.18 2.567-.764 6.338 6 2.183z" style="font-variation-settings:normal" transform="translate(336.998 -11.005)"/>
    <path fill="#a57a96" stroke="#301b23" stroke-miterlimit="100" stroke-width="12" d="M147.473 827.033a71.48 42.9 0 0 1 3.505 56.367 71.48 42.9 0 0 1-92.575 9.728A71.48 42.9 0 0 1 29.79 839.4a71.48 42.9 0 0 1 84.813-24.3" style="font-variation-settings:normal" transform="translate(336.998 -11.005)"/>
    <path fill="#554834" d="m421.052 887.098 18.896-48.256-4.569 49.529z"/>
    <path fill="#5c433b" d="m381.777 871.51 31.148-28.734-19.311 36.771Z"/>
    <ellipse cx="714.796" cy="451.075" fill="#c9bcb4" stroke="#362617" stroke-miterlimit="100" stroke-width="8" rx="84.82" ry="66.367"/>
    <path fill="#e6d8d7" stroke="#331c1c" stroke-miterlimit="100" stroke-width="3" d="M620.358 752.543 554.7 774.956l40.716-1.358-35.474 16.746 42.165-9.993-12.041 31.514 47.686-38.98" style="font-variation-settings:normal"/>
    <path fill="#c9bcb4" stroke="#4a3b45" stroke-miterlimit="100" stroke-width="8" d="M716.902 403.685a96.113 82.491 0 0 1 116.972.788 96.113 82.491 0 0 1 29.451 97.164"/>
    <g transform="translate(13.874 -4.06)">
      <ellipse cx="680.593" cy="769.57" fill="#eddee6" stroke="#b85b61" stroke-miterlimit="100" stroke-width="8" rx="73.842" ry="41.825" style="font-variation-settings:normal"/>
      <path fill="#eddee6" stroke="#b85b61" stroke-miterlimit="100" stroke-width="6" d="M706.443 801.905a15.856 10.071-8.114 0 1 8.356 9.786 15.856 10.071-8.114 0 1-12.742 9.55 15.856 10.071-8.114 0 1-16.597-3.61 15.856 10.071-8.114 0 1 2.008-11.884"/>
      <ellipse cx="732.828" cy="761.971" fill="#fff" rx="10.556" ry="7.942"/>
      <ellipse cx="720.975" cy="754.555" fill="#fff" rx="5.672" ry="3.028"/>
    </g>
    <g stroke-width="1.526" transform="matrix(.655 0 0 .655 202.013 349.926)">
      <ellipse cx="837.022" cy="740.714" fill="#fff" stroke="#a6a6a6" stroke-miterlimit="100" stroke-width="6.103" rx="24.505" ry="14.792"/>
      <path fill="#fff" stroke="#a6a6a6" stroke-miterlimit="100" stroke-width="6.103" d="M840.07 740.783a51.072 33.68 0 0 1 7.14-43.88 51.072 33.68 0 0 1 66.881-1.548 51.072 33.68 0 0 1 11.784 43.443z"/>
      <ellipse cx="923.476" cy="739.785" fill="#fff" stroke="#a6a6a6" stroke-miterlimit="100" stroke-width="6.103" rx="24.505" ry="14.792"/>
      <path fill="#fff" stroke="#a6a6a6" stroke-miterlimit="100" stroke-width="6.103" d="m793.786 686.396 27.466-77.054 33.5 51.546"/>
      <path fill="#fff" stroke="#a6a6a6" stroke-miterlimit="100" stroke-width="6.103" d="M795.711 715.139a53.017 47.034 0 0 1 13.787-60.407 53.017 47.034 0 0 1 69.355 3.563 53.017 47.034 0 0 1 5.837 61.414z"/>
      <path fill="#fff" stroke="#a6a6a6" stroke-miterlimit="100" stroke-width="6.103" d="m840.225 656.107 44.427-33.52.188 70.282"/>
      <ellipse cx="807.824" cy="685.75" fill="#a6a6a6" rx="4.434" ry="19.845"/>
      <ellipse cx="860.149" cy="744.313" fill="#fff" stroke="#a6a6a6" stroke-miterlimit="100" stroke-width="6.103" rx="24.505" ry="14.792"/>
      <path fill="#fff" stroke="#a6a6a6" stroke-miterlimit="100" stroke-width="6.103" d="m917.553 703.816 13.2-71.007 3.939 34.018 22.108-36.333-5.663 37.981 23.568-8.855-48.042 56.263"/>
    </g>
    <path fill="#c9bcb4" stroke="#594a36" stroke-miterlimit="100" stroke-width="8" d="M852.559 447.564C831.906 581.71 741.906 701.79 707.289 739.972l-128.925-14.576c57.688-99.09 69.63-187.676 53.785-259.667"/>
    <path fill="#9a6855" d="m758.492 667.434 2.812-20.853-22.634 25.56-3.146-35.43-20.822 25.212-2.747-35.002-28.282 23.91-1.794-30.669-22.776 21.205-1.918-22.017-19.581 20.67-2.256-22.236-12.92 17.649-8.43 24.858 15.33-18.871 8.877 23.435L650.14 641.3l10.685 25.506 12.686-22.625 12.493 32.007 16.89-24.102 4.687 38.313 18.94-20.553.274 30.216 17.9-23.942.573 11.364z"/>
    <path fill="#936483" d="m637.294 581.958 12.194-32.52 8.903 29.29 17.048-24.9 8.659 29.287 23.121-32.813 4.602 46.348 34.24-37.193-.4 40.316 30.16-33.233.42 32.99 19.521-25.542-.12 32.443-17.448 31.74 3.154-28.161-27.772 27.247 7.31-35.74-27.942 29.59 1.758-37.492-32.788 30.378-2.32-35.585-26.537 25.661-1.09-28.983-19.954 27.934-6.45-29.978-14.552 26.229z"/>
    <path fill="#7b545e" d="m637.18 476.088 11.58-34.065 13.328 38.036 18.757-37.731 22.13 38.581 28.37-42.62 11.968 49.494 34.073-44.643 6.04 49.751 37.246-45.794-5.555 51.847 25.697-35.427-3.775 38.84-18.923 54.021 4-41.813-30.013 26.674 2.364-36.708-38.883 30.35 6.477-35.582-38.684 30.819-3.817-38.045-31.549 33.447-9.755-26.188-19.049 28.514-9.7-33.971-8.178 38.05z"/>
    <g stroke="#a6a6a6" stroke-miterlimit="100" stroke-width="5.918" transform="matrix(.676 0 0 .676 -34.408 345.178)">
      <path fill="#fff" d="M840.07 740.783a51.072 33.68 0 0 1 7.14-43.88 51.072 33.68 0 0 1 66.881-1.548 51.072 33.68 0 0 1 11.784 43.443z"/>
      <path fill="#fff" d="m916.403 698.865 70.636-6.958-11.126 10.022 20.247.8-19.039 10.204 11.662 8.147-76.879-7.78"/>
      <ellipse cx="931.492" cy="727.482" fill="#fff" rx="24.505" ry="14.792"/>
      <path fill="#fff" d="m793.786 686.396-1.32-58.899 62.285 33.391"/>
      <path fill="#fff" d="M795.711 715.139a53.017 47.034 0 0 1 13.787-60.407 53.017 47.034 0 0 1 69.355 3.563 53.017 47.034 0 0 1 5.837 61.414z"/>
      <ellipse cx="781.038" cy="717.132" fill="#fff" rx="24.505" ry="14.792"/>
      <path fill="#fff" d="m840.225 656.107 72.616-14.033-28 50.795"/>
      <ellipse cx="811.497" cy="719.449" fill="#fff" rx="24.505" ry="14.792"/>
      <path fill="none" d="m825.32 684.78 30.51 8.032m-47.722-9.975-18.62 2.846"/>
    </g>
    <path fill="#dfd4cc" d="m697.2 748.819-115.846 88.766-56.934-6.24 157.925-88.313z"/>
    <path fill="#ad876e" d="m611.859 783.194-7.203 11.989 17.531-3.585-8.377 8.907 16.325-.89 20.332-15.688-15.025 4.182 6.15-10.43-11.671 5.632 4.054-7.709-11.521 2.74z"/>
    <path fill="#d2b097" d="m583.774 800.444-7.134 10.312 16.84-4.602-4.32 11.146 16.224-3.068-30.74 30.896-43.633-11.86z"/>
    <path fill="#392e31" d="M112.392 842.002c44.85-25.08 147.058-87.965 147.058-87.965s-107.09 54.157-151.94 79.237l-5.274 2.95-.71 6.126 5.591 2.602z" style="font-variation-settings:normal" transform="translate(422.895 -11.005)"/>
    <path fill="#513e47" d="M167.86 847.687c32.846-25.169 106.446-87.863 106.446-87.863s-79.683 54.757-112.529 79.925l-3.515 2.693.197 6.148 5.885 1.79z" style="font-variation-settings:normal" transform="translate(422.895 -11.005)"/>
    <path fill="#d2b097" stroke="#422b29" stroke-miterlimit="100" stroke-width="12" d="M159.982 838.703a72.266 43.609 0 0 1 23.725 56.798 72.266 43.609 0 0 1-91.346 19.81 72.266 43.609 0 0 1-41.616-52.917 72.266 43.609 0 0 1 83.194-30.175" style="font-variation-settings:normal" transform="translate(422.895 -11.005)"/>
    <path fill="#392c2f" d="m544.32 901.774 3.23-39.75 10.514 43.725z"/>
    <path fill="#452038" d="m502.148 899.123 20.71-36.97-6.966 40.945z"/>
    <g transform="translate(92.199 86.63)">
      <path fill="#fff" stroke="#a6a6a6" stroke-miterlimit="100" stroke-width="4" d="m388.139 650.086-10.78-40.866-19.94 28.239"/>
      <path fill="#fff" stroke="#a6a6a6" stroke-miterlimit="100" stroke-width="4" d="M389.348 674.711a28.95 32.632 84.436 0 0-6.853-37.34 28.95 32.632 84.436 0 0-42.709 1.609 28.95 32.632 84.436 0 0-5.23 37.794z"/>
      <path fill="#fff" stroke="#a6a6a6" stroke-miterlimit="100" stroke-width="4" d="m354.606 635.68-22.558-24.393-.815 49.997"/>
      <ellipse cx="355.575" cy="655.347" fill="#a6a6a6" rx="2.635" ry="11.796"/>
      <ellipse cx="383.835" cy="654.558" fill="#a6a6a6" rx="2.635" ry="11.796"/>
    </g>
    <path fill="#dfd4cc" stroke="#2d1620" stroke-miterlimit="100" stroke-width="5" d="M498.32 762.523a122.1 49.91 0 0 1 9.56-68.089 122.1 49.91 0 0 1 166.837-.622 122.1 49.91 0 0 1 12.598 68.006z"/>
    <path fill="#c9bcb4" stroke="#382c1f" stroke-miterlimit="100" stroke-width="10.935" d="M85.292 208.974c4.17-11.95 7.355-24.663 9.407-37.963a413.863 413.863 0 0 1-16.039 19.41c-1.672-24.68-7.99-50.607-19.823-75.97 3.43 18.247 4.4 36.086 3.266 53.075-4.385-15.24-10.726-30.513-19.203-45.323C25.962 92.6.683 64.994-30.789 42.743-62.126 20.537-99.269 3.317-139.914-7.032c-26.127-6.723-53.823-10.669-82.599-11.295 30.064 8.036 57.575 19.643 82.062 33.83-37.114-4.62-76.106-3.28-115.298 5.058-39.386 8.307-78.89 24.245-116.024 49.145-37.598 25.454-70.83 59.91-96.189 102.766a376.59 376.59 0 0 0-28.563 62.496c11.177-20.855 24.214-40.438 38.826-58.34a303.179 303.179 0 0 1 17.427-19.11 321.952 321.952 0 0 0-7.129 23.281c-12.521 49.695-12.386 98.087-3.004 142.334 11.894 54.766 34.549 101.773 62.012 142.137-3.408-51.142 1.298-102.66 16.942-146.628 6.834-19.204 15.824-36.863 26.45-52.107-2.43 16.66-2.851 33.75-1.525 50.69.955 12.497 2.91 24.956 5.695 37.33.452-13.017 1.812-25.702 4.206-37.894 5.908-30.107 17.57-57.344 34-77.228a139.533 139.533 0 0 1 3.195-3.845c.045 1.76.126 3.507.243 5.237.744 13.992 3.722 27.55 8.201 40.336 1.795-11.92 4.871-23.168 9.41-33.204 7.283-17.331 19.264-33.594 33.767-46.822 6.719-6.207 14.262-11.848 22.403-16.905-6.032 8.283-10.924 16.788-14.47 25.316-4.748 11.48-7.578 23.11-8.36 33.98 3.75-9.054 9.06-18.059 15.527-26.382 10.421-13.549 25.512-25.757 43.026-35.817 17.963-10.159 38.644-17.447 60.35-21.377 2.793-.49 5.601-.927 8.418-1.308a230.419 230.419 0 0 0-7.598 14.268 214.789 214.789 0 0 0-10.247 24.833c3.606-2.67 7.39-5.231 11.335-7.664 18.045-10.982 39.164-19.447 61.866-23.288 11.73-2.02 24.083-2.916 36.663-2.399-14.967 4.204-28.76 10.308-40.947 17.682a160.51 160.51 0 0 0-12.415 8.217 149.645 149.645 0 0 1 11.204-3.898c20.645-6.39 44.327-8.995 68.212-5.297 13.66 1.914 27.838 6.25 41.8 12.864-11.219.744-22.076 2.481-32.408 5.173 18.677 1.373 38.565 6.916 57.921 16.624" style="font-variation-settings:normal" transform="matrix(.725 -.098 .098 .725 671.84 263.736)"/>
    <path fill="#977056" d="M422.411 343.507c19.553-8.369 39.076-13.415 57.992-15.77-17.234 11.921-32.996 26.314-46.54 42.987a200.84 200.84 0 0 0-12.265 16.88 187.49 187.49 0 0 1 18.375-11.938c18.81-10.629 38.16-17.385 57.13-21.05-13.397 11.61-25.11 24.857-34.507 39.35-6.42 9.901-11.712 20.387-15.776 31.184 8.415-8.602 17.588-15.95 27.144-21.99 8.779-5.567 17.907-10.075 27.176-13.64-6.704 6.542-12.762 13.584-18.01 21.054-5.841 8.289-10.756 17.156-14.6 26.337 7.945-7.139 16.513-13.054 25.288-17.692a127.85 127.85 0 0 1 18.962-8.244c-3.518 5.344-6.53 10.809-8.967 16.329-3.583 8.098-6.121 16.399-7.551 24.52-2.76 6.145-4.867 12.466-6.204 18.789-1.31 5.504-2.042 11.295-2.268 17.259-2.746-6.191-4.942-12.7-6.402-19.476a91.297 91.297 0 0 1-1.809-10.757 105.577 105.577 0 0 0-5.8 8.812c-9.972 16.41-15.684 37.607-16.884 60.256a160.9 160.9 0 0 0-.211 6.433 172.247 172.247 0 0 1-1.701-6.063c-3.724-14.14-5.737-28.823-5.535-43.417-8.264 13.907-14.542 30.312-18.319 48.038-6.395 30.016-5.943 63.508-.593 96.597-20.42-24.38-38.265-52.947-50.605-86.68-11.09-30.77-15.984-65.411-11.92-102.205a232.671 232.671 0 0 1 6.039-31.277 222.295 222.295 0 0 0-20.882 27.482 263.255 263.255 0 0 0-2.116 3.432c.47-1.205.95-2.406 1.439-3.605 14.03-33.114 34.52-60.982 58.992-82.82a244.793 244.793 0 0 1 10.928-9.115z"/>
    <path fill="#86785b" d="M546.336 292.459a236.43 236.43 0 0 1 28.275 4.323 225.749 225.749 0 0 1 21.78 5.811 233.578 233.578 0 0 0-19.87 3.722 235.02 235.02 0 0 0-44.305 15.013c16.676-.524 32.826.879 48.096 3.9 4.776.944 9.469 2.049 14.064 3.305a207.943 207.943 0 0 0-12.504 4.48c-13.88 5.483-26.92 12.363-38.812 20.396a192.217 192.217 0 0 1 42.345-2.763c1.94.093 3.873.214 5.795.366a184.38 184.38 0 0 0-5.118 3.01c-14.121 8.639-26.5 18.87-36.672 30.05 13.192-4.882 26.984-8.043 40.79-9.502a171.58 171.58 0 0 1 6.906-.564c-2.18.891-4.334 1.825-6.459 2.798-11.603 5.364-22.285 11.943-31.662 19.425 10.955-3.991 22.408-6.713 33.92-8.155 4.098-.492 8.193-.824 12.265-.992a164.842 164.842 0 0 0-8.315 20.697 153.78 153.78 0 0 0-1.608 5.288 128.95 128.95 0 0 1 2.314-1.76 134.558 134.558 0 0 1 20.286-12.294 135.463 135.463 0 0 1 18.137-17.264c-8.995-2.254-18.495-3.603-28.249-4.054 9.69-4.538 20.067-8.191 30.944-10.662-13.488-3.626-27.962-5.423-42.773-5.375 13.538-7.985 28.694-14.444 45.098-18.617-12.353-4.376-25.558-7.447-39.255-9.123a194.696 194.696 0 0 1 38.93-12.179c-15.9-5.144-32.864-8.39-50.349-9.588 16.651-2.249 33.561-2.641 50.313-1.045-7.115-8.936-15.178-17.516-24.096-25.613-14.678-4.503-30.13-7.69-46.082-9.399a259.959 259.959 0 0 0-35.464-1.436c13.045 2.63 25.514 6.22 37.305 10.623a232.248 232.248 0 0 1 16.815 7.002 241.767 241.767 0 0 0-15.568-.783 248.02 248.02 0 0 0-27.217.959z"/>
    <path fill="none" stroke="#351c25" stroke-miterlimit="100" stroke-width="3" d="m489.085 745.388-90.668 20.664" style="font-variation-settings:normal"/>
    <g fill="#fff" stroke="#a6a6a6" stroke-miterlimit="100" stroke-width="4">
      <path d="m438.884 768.586 9.917 26.236 10.112-2.653-14.004-26.018"/>
      <path d="M448.86 790.086a7.926 13.13 90 0 0-3.722 10.281 7.926 13.13 90 0 0 16.471 3.449 7.926 13.13 90 0 0 7.625-9.464 7.926 13.13 90 0 0-14.664-5.692"/>
    </g>
    <g stroke-width="1.474" transform="matrix(-.66 .161 .161 .66 839.985 197.018)">
      <path fill="#fff" stroke="#a6a6a6" stroke-miterlimit="100" stroke-width="5.894" d="m794.075 694.82-11.033-53.538 55.408 13.113"/>
      <path fill="#fff" stroke="#a6a6a6" stroke-miterlimit="100" stroke-width="5.894" d="M797.043 716.257a53.017 47.034-8.187 0 1 14.13-60.895 53.017 47.034-8.187 0 1 69.183 1.823 53.017 47.034-8.187 0 1 5.444 61.412z"/>
      <path fill="#fff" stroke="#a6a6a6" stroke-miterlimit="100" stroke-width="5.894" d="m846.644 656.07 62.45-11.593-19.366 47.083"/>
      <ellipse cx="373.837" cy="789.25" fill="#a6a6a6" rx="2.906" ry="13.006" transform="matrix(-1.431 .35 .35 1.431 1111.968 -577.148)"/>
      <ellipse cx="-621.871" cy="858.985" fill="#a6a6a6" rx="4.282" ry="16.809" transform="scale(-1 1) rotate(13.8)"/>
    </g>
    <path fill="none" stroke="#33201a" stroke-dasharray="12,3" stroke-miterlimit="100" stroke-width="3" d="m490.497 752.064-80.389 39.1" style="font-variation-settings:normal"/>
    <path fill="url(#h)" stroke="#4d4d40" stroke-miterlimit="100" stroke-width="3" d="m493.045 700.529-39.306-73.968 22.929 68.906-49.096-33.287 55.285 56.138"/>
    <path fill="#dfd4cc" stroke="#3c1d23" stroke-miterlimit="100" stroke-width="8" d="m480.875 707.729 72.559-172.39 38.105 132.427 140.382-105.522-26.36 152.45"/>
    <path fill="#7d3a45" d="m513.678 638.238 5.043 18.928 16.367-23.314 10.718 28.62 17.122-27.836 13.079 24.367 3.29-21.973-26.21-91.472z" paint-order="stroke fill markers" style="font-variation-settings:&quot;opsz&quot;143,&quot;wght&quot;557"/>
    <path fill="#d5b19c" stroke="#3c1d23" stroke-width="2" d="m704.759 715.93 25.21-153.643-51.67 146.365" style="font-variation-settings:normal"/>
    <path fill="url(#i)" stroke="#130e0e" stroke-miterlimit="100" stroke-width="4" d="m694.75 691.147 46.062-30.982-25.786 35.708 41.248-10.514-44.844 27.55"/>
    <path fill="url(#j)" stroke="#673842" stroke-miterlimit="100" stroke-width="2" d="m675.928 710.114 25.696-44.519-6.264 49.188 29.16-37.254-15.766 52.217" style="font-variation-settings:normal"/>
    <path fill="#a8ad1c" stroke="#fff" stroke-miterlimit="100" stroke-width="4" d="m475.452 749.11.655-21.913 52.173-18.747-39.342-19.458 18.854-24.054 41.936 45.018z" style="font-variation-settings:normal"/>
    <path fill="url(#k)" stroke="#3d2a22" stroke-miterlimit="100" d="m691.103 720.056 55.912-17.343-50.635 24.045" stop-color="#5d3650" style="font-variation-settings:normal"/>
    <path fill="#f4ca4b" stroke="#fff" stroke-miterlimit="100" stroke-width="4" d="m666.001 755.946-65.387-41.582 75.026-49.833 3.763 22.2-42.017 19.018 51.22-5.602-6.305 21.627-44.834-3.95 39.24 13.782z" style="font-variation-settings:normal"/>
    <path fill="none" stroke="#161111" stroke-miterlimit="100" stroke-width="3" d="m694.355 745.263 33.412 24.67-10.538 7.209 29.427 3.774-15.712 14.078 36.307 4.934" style="font-variation-settings:normal"/>
    <path fill="none" stroke="#b43a31" stroke-miterlimit="100" stroke-width="3.999" d="M656.337 755.621c9.283 2.905 19.766 1.722 28.169-3.176 1.59-.928 3.115-1.987 4.42-3.285 1.305-1.299 2.386-2.847 2.995-4.584.608-1.737.724-3.67.163-5.424-.56-1.753-1.83-3.302-3.511-4.05-1.312-.585-2.829-.667-4.217-.297-1.388.369-2.646 1.176-3.616 2.235-.97 1.06-1.659 2.363-2.059 3.743-.4 1.38-.517 2.833-.42 4.267a14.587 14.587 0 0 0 3.4 8.398 14.31 14.31 0 0 0 7.754 4.677c2.728.601 5.632.366 8.233-.653a14.585 14.585 0 0 0 6.51-5.09c.551-.772 1.028-1.603 1.35-2.495.321-.892.485-1.85.405-2.794-.08-.945-.41-1.878-1.001-2.62-.59-.742-1.448-1.283-2.385-1.428a3.752 3.752 0 0 0-1.906.215 4.5 4.5 0 0 0-1.601 1.07c-.902.927-1.412 2.183-1.62 3.46-.437 2.697.45 5.547 2.226 7.623 1.776 2.077 4.387 3.38 7.1 3.712 3.861.47 7.913-1.063 10.495-3.974"/>
    <path fill="none" stroke="#1f1418" stroke-miterlimit="100" stroke-width="3" d="m690.525 749.348 28.654 79.617" style="font-variation-settings:normal"/>
    <path fill="none" stroke="#e16672" stroke-miterlimit="100" stroke-width="4" d="M104.86 739.207a20.174 20.174 0 0 0 10.473 2.362c1.93-.095 3.86-.476 5.621-1.268 1.762-.792 3.353-2.01 4.453-3.599a7.3 7.3 0 0 0 1.014-2.054c.218-.735.292-1.518.166-2.275-.126-.756-.458-1.484-.984-2.043-.526-.558-1.25-.938-2.013-1.005-.8-.071-1.616.204-2.246.703-.63.5-1.078 1.21-1.31 1.98-.232.77-.254 1.595-.122 2.387.132.793.416 1.556.782 2.271.893 1.743 2.28 3.216 3.92 4.286 1.64 1.07 3.524 1.744 5.459 2.047 2.777.434 5.688.096 8.241-1.08 2.553-1.177 4.727-3.205 5.965-5.728.882-1.798 1.283-3.894.77-5.83-.257-.967-.741-1.88-1.433-2.604-.692-.724-1.594-1.253-2.574-1.459-1.204-.252-2.493-.005-3.553.62-1.06.624-1.89 1.61-2.387 2.735-.497 1.125-.669 2.382-.56 3.607.108 1.225.49 2.418 1.053 3.512 1.139 2.212 3.023 4.017 5.243 5.14 2.22 1.122 4.763 1.57 7.242 1.36a14.626 14.626 0 0 0 8.788-3.956" stop-color="#231810" style="font-variation-settings:normal;-inkscape-stroke:none" transform="rotate(-7.6 403.536 -1857.435)"/>
    <g fill="#dfd4cc" stroke="#643340" stroke-miterlimit="100">
      <path stroke-width="2.628" d="M236.718 742.14a4.563 4.563 0 0 0-1.793 1.994 4.563 4.563 0 0 0-.352 2.658 4.554 4.554 0 0 0 1.454 2.62 4.52 4.52 0 0 0 2.776 1.124 4.49 4.49 0 0 0 2.348-.55 4.49 4.49 0 0 0 1.718-1.69" style="font-variation-settings:normal" transform="translate(300.79 -110.178) scale(1.142)"/>
      <path stroke-width="3" d="M253.044 740.603a7.328 7.328 0 0 1 2.375 3.636c.4 1.414.358 2.95-.12 4.34-.55 1.601-1.683 3.001-3.153 3.84-1.47.837-3.267 1.098-4.906.676a6.49 6.49 0 0 1-4.222-3.536 6.49 6.49 0 0 1 .093-5.507" style="font-variation-settings:normal" transform="translate(335.472 -4.546)"/>
    </g>
    <ellipse cx="566.19" cy="727.091" fill="#ef9260" stroke="#7d4c3d" stroke-width="3" paint-order="stroke fill markers" rx="4.368" ry="2.111" style="font-variation-settings:&quot;opsz&quot;143,&quot;wght&quot;557"/>
    <path fill="#754848" d="m644.342 631.784-11.082 21.244 30.194-18.185-7.602 26.787 29.43-18.605-5.542 25.618 15.458-9.196 32.07-90.639z" paint-order="stroke fill markers" style="font-variation-settings:&quot;opsz&quot;143,&quot;wght&quot;557"/>
    <g fill="#fff" stroke="#a6a6a6" stroke-miterlimit="100" stroke-width="5.894" transform="matrix(.679 0 0 .679 121.29 375.126)">
      <ellipse cx="828.56" cy="728.2" rx="24.505" ry="14.792"/>
      <path d="M800.854 721.376a53.017 47.034-8.187 0 1 5.043-61.754 53.017 47.034-8.187 0 1 69.156-6.35 53.017 47.034-8.187 0 1 14.523 59.957z"/>
      <path d="m794.075 694.82-11.033-53.538 55.408 13.113m8.194 1.675 62.45-11.593-19.366 47.083m-65.055 70.655a51.072 33.68 0 0 1 7.14-43.88 51.072 33.68 0 0 1 66.88-1.548 51.072 33.68 0 0 1 11.785 43.443z"/>
      <ellipse cx="887.466" cy="765.931" rx="24.505" ry="14.792"/>
      <ellipse cx="838.302" cy="766.938" rx="24.505" ry="14.792"/>
      <path d="m872.116 727.352 49.167-52.905-6.712 23.73 29.95-11.74-18.867 25.464 18.395 8.722-70.7 21.798"/>
    </g>
    <ellipse cx="-419.688" cy="804.23" fill="#fff" stroke="#a6a6a6" stroke-miterlimit="100" stroke-width="4" rx="16.631" ry="10.039" transform="scale(-1 1)"/>
    <ellipse cx="-394.561" cy="812.357" fill="#fff" stroke="#a6a6a6" stroke-miterlimit="100" stroke-width="4" rx="16.631" ry="10.039" transform="scale(-1 1)"/>
  </g>
  <g transform="translate(-53.888 -475.01)">
    <ellipse cx="837.022" cy="740.714" fill="#fff" stroke="#a6a6a6" stroke-miterlimit="100" stroke-width="5" rx="24.505" ry="14.792"/>
    <path fill="#fff" stroke="#a6a6a6" stroke-miterlimit="100" stroke-width="5" d="M840.07 740.783a51.072 33.68 0 0 1 7.14-43.88 51.072 33.68 0 0 1 66.881-1.548 51.072 33.68 0 0 1 11.784 43.443z"/>
    <ellipse cx="923.476" cy="739.785" fill="#fff" stroke="#a6a6a6" stroke-miterlimit="100" stroke-width="5" rx="24.505" ry="14.792"/>
    <path fill="#fff" stroke="#a6a6a6" stroke-miterlimit="100" stroke-width="5" d="m793.786 686.396 27.466-77.054 33.5 51.546"/>
    <path fill="#fff" stroke="#a6a6a6" stroke-miterlimit="100" stroke-width="5" d="M795.711 715.139a53.017 47.034 0 0 1 13.787-60.407 53.017 47.034 0 0 1 69.355 3.563 53.017 47.034 0 0 1 5.837 61.414z"/>
    <path fill="#fff" stroke="#a6a6a6" stroke-miterlimit="100" stroke-width="5" d="m840.225 656.107 44.427-33.52.188 70.282"/>
    <ellipse cx="807.824" cy="685.75" fill="#a6a6a6" rx="4.434" ry="19.845"/>
    <ellipse cx="860.149" cy="744.313" fill="#fff" stroke="#a6a6a6" stroke-miterlimit="100" stroke-width="5" rx="24.505" ry="14.792"/>
    <path fill="#fff" stroke="#a6a6a6" stroke-miterlimit="100" stroke-width="5" d="m917.553 703.816 13.2-71.007 3.939 34.018 22.108-36.333-5.663 37.981 23.568-8.855-48.042 56.263"/>
  </g>
  <g transform="translate(-448.878 -380.584)">
    <path fill="#fff" stroke="#a6a6a6" stroke-miterlimit="100" stroke-width="5" d="m872.691 276.795-12.817-5.64 1.177 13.954-9.683-10.115-4.252 13.342-5.076-13.05-9.034 10.699.305-14-12.44 6.428 5.64-12.817-13.954 1.177 10.115-9.683-13.342-4.252 13.05-5.076-10.699-9.034 14 .305-6.428-12.44 12.817 5.639-1.177-13.953 9.683 10.115 4.252-13.342 5.076 13.05 9.034-10.699-.305 14 12.44-6.428-5.639 12.817 13.953-1.177-10.115 9.683 13.342 4.252-13.05 5.076 10.699 9.034-14-.305z" style="font-variation-settings:normal;-inkscape-stroke:none" transform="translate(10.968 10.92)"/>
    <ellipse cx="-553.715" cy="-772.927" fill="#fff" stroke="#a6a6a6" stroke-miterlimit="100" stroke-width="5" rx="16.834" ry="63.082" style="font-variation-settings:normal;-inkscape-stroke:none" transform="rotate(144.7)"/>
    <path fill="#fff" stroke="#a6a6a6" stroke-miterlimit="100" stroke-width="5" d="M862.798 284.193a48.65 34.586 0 0 1-15.234-38.217 48.65 34.586 0 0 1 45.36-23.195 48.65 34.586 0 0 1 46.12 22.422 48.65 34.586 0 0 1-13.952 38.463z" style="font-variation-settings:normal;-inkscape-stroke:none"/>
    <path fill="#fff" stroke="#a6a6a6" stroke-miterlimit="100" stroke-width="5" d="m930.41 241.45.829-56.877-53.575-1.87-20.348 64.44" style="font-variation-settings:normal;-inkscape-stroke:none"/>
    <path fill="#fff" stroke="#a6a6a6" stroke-miterlimit="100" stroke-width="5" d="M-905.516 296.86a26.612 93.799 0 0 1-15.388 105.915 26.612 93.799 0 0 1-32.476-32.506 26.612 93.799 0 0 1 2.701-118.613 26.612 93.799 0 0 1 33.532-13.827" style="font-variation-settings:normal;-inkscape-stroke:none" transform="scale(-1 1) rotate(7.5)"/>
    <ellipse cx="-888.389" cy="-436.929" fill="#fff" stroke="#a6a6a6" stroke-miterlimit="100" stroke-width="5" rx="16.834" ry="63.082" style="font-variation-settings:normal;-inkscape-stroke:none" transform="scale(-1 1) rotate(-40.5)"/>
    <path fill="#fff" stroke="#a6a6a6" stroke-miterlimit="100" stroke-width="5" d="M855.208 199.125a63.724 62.99 0 0 1 11.128-81.463 63.724 62.99 0 0 1 83.15-1.218 63.724 62.99 0 0 1 13.565 81.102z"/>
    <path fill="#fff" stroke="#a6a6a6" stroke-miterlimit="100" stroke-width="5" d="M866.553-152.598a26.612 93.799 0 0 1-15.388 105.915 26.612 93.799 0 0 1-32.477-32.505 26.612 93.799 0 0 1 2.702-118.613 26.612 93.799 0 0 1 33.532-13.827" style="font-variation-settings:normal;-inkscape-stroke:none" transform="rotate(21.8)"/>
    <ellipse cx="881.319" cy="142.653" fill="#a6a6a6" rx="4.592" ry="21.419"/>
    <ellipse cx="945.709" cy="142.614" fill="#a6a6a6" rx="4.592" ry="21.419"/>
    <ellipse cx="931.943" cy="201.783" fill="#fff" stroke="#a6a6a6" stroke-miterlimit="100" stroke-width="5" rx="24.491" ry="17.676" style="font-variation-settings:normal;-inkscape-stroke:none"/>
    <ellipse cx="898.36" cy="201.783" fill="#fff" stroke="#a6a6a6" stroke-miterlimit="100" stroke-width="5" rx="24.491" ry="17.676" style="font-variation-settings:normal;-inkscape-stroke:none"/>
  </g>
  <path fill="#e0dbdb" stroke="#6a5959" stroke-width="8" d="M1037.467 295.88c0 38.928-31.558 70.485-70.486 70.485-38.928 0-70.486-31.557-70.486-70.485 0-38.929 31.558-70.486 70.486-70.486 38.928 0 70.486 31.557 70.486 70.486zm25.8-96.286c33.712 19.464 45.263 62.573 25.799 96.286-19.464 33.712-62.573 45.263-96.285 25.8-33.713-19.465-45.264-62.573-25.8-96.286 19.464-33.713 62.573-45.264 96.285-25.8zM992.78 129.11c33.712-19.464 76.82-7.913 96.285 25.8 19.464 33.712 7.913 76.82-25.8 96.284-33.713 19.464-76.82 7.914-96.285-25.8-19.464-33.712-7.913-76.82 25.8-96.284zm-96.286 25.8c0-38.929 31.558-70.486 70.486-70.486 38.928 0 70.486 31.557 70.486 70.485s-31.558 70.486-70.486 70.486c-38.928 0-70.486-31.558-70.486-70.486zm-25.8 96.284c-33.712-19.464-45.263-62.572-25.799-96.285 19.464-33.712 62.573-45.263 96.286-25.8 33.712 19.465 45.263 62.573 25.8 96.286-19.465 33.713-62.573 45.263-96.286 25.8zm70.487 70.486c-33.713 19.464-76.822 7.913-96.286-25.8-19.464-33.712-7.913-76.82 25.8-96.285 33.713-19.464 76.821-7.913 96.285 25.8s7.913 76.821-25.8 96.285z" style="font-variation-settings:&quot;opsz&quot;143,&quot;wght&quot;557" transform="translate(13.69 -429.656)"/>
  <path fill="none" stroke="#b60062" stroke-width="16" d="M1028.023 260.637c14.255 24.689 12.233 55.534-5.122 78.151-17.355 22.618-46.626 32.554-74.163 25.175-27.537-7.378-47.918-30.618-51.64-58.883-3.72-28.265 9.951-55.988 34.64-70.243m35.243-79.929c14.254-24.689 41.978-38.36 70.243-34.64 28.265 3.722 51.505 24.103 58.883 51.64 7.379 27.537-2.557 56.808-25.175 74.163-22.617 17.355-53.462 19.377-78.151 5.122m-86.842 9.444c-28.509 0-54.21-17.174-65.12-43.512-10.91-26.339-4.88-56.656 15.279-76.815s50.476-26.189 76.814-15.28c26.34 10.91 43.512 36.612 43.512 65.121" style="font-variation-settings:&quot;opsz&quot;143,&quot;wght&quot;557" transform="matrix(1 0 0 -1 -41.7 -482.864)"/>
  <g stroke="#b60062" stroke-width="16">
    <path fill="none" d="M1035.065 314.123c-8.02 29.934-34.653 51.118-65.624 52.2-30.972 1.08-59.016-18.194-69.106-47.496-10.09-29.301.144-61.756 25.215-79.972m146.856-50.794c25.99 16.878 37.908 48.753 29.366 78.543-8.542 29.79-35.54 50.505-66.525 51.046-30.986.541-58.69-19.22-68.266-48.693m-2.928-155.365c24.084-19.503 58.081-20.987 83.774-3.657 25.692 17.33 37.051 49.407 27.99 79.043-9.06 29.636-36.415 49.878-67.405 49.878M859.746 193.63c-11.105-28.932-2.011-61.724 22.41-80.804 24.42-19.08 58.438-19.97 83.824-2.195 25.386 17.775 36.183 50.046 26.607 79.52m-88.953 127.414c-30.947 1.621-59.324-17.16-69.924-46.282-10.599-29.122-.934-61.75 23.816-80.4 24.75-18.65 58.778-18.948 83.85-.732" style="font-variation-settings:&quot;opsz&quot;143,&quot;wght&quot;557" transform="matrix(1 0 0 -1 1427.4 -428.596)"/>
    <path fill="#b60062" d="M1810.381 60.065h51.211l15.825-48.705-41.43-30.101-41.43 30.101z" style="font-variation-settings:&quot;opsz&quot;143,&quot;wght&quot;557" transform="translate(558.395 -678.811)"/>
  </g>
  <path fill="none" stroke="#b60062" stroke-width="8" d="M1035.065 314.123c-8.257 30.815-36.182 52.242-68.084 52.242s-59.827-21.427-68.084-52.242m179.904-86.638c18.945 25.669 18.287 60.86-1.604 85.803-19.89 24.942-54.054 33.415-83.295 20.657m44.433-194.672c31.88 1.193 58.984 23.65 66.083 54.752 7.099 31.102-7.578 63.095-35.783 78.002M944.138 115.912c20.809-24.181 55.265-31.37 84.008-17.529 28.743 13.842 44.605 45.264 38.674 76.61m-199.678 0c-5.931-31.346 9.931-62.768 38.674-76.61 28.743-13.842 63.2-6.652 84.009 17.529M865.327 272.027c-28.205-14.907-42.882-46.9-35.783-78.002 7.1-31.102 34.203-53.56 66.083-54.752m44.433 194.672c-29.24 12.758-63.404 4.285-83.295-20.657-19.89-24.942-20.549-60.134-1.604-85.803" style="font-variation-settings:&quot;opsz&quot;143,&quot;wght&quot;557" transform="matrix(1 0 0 -1 308.073 417.673)"/>
  <path fill="none" d="M1964.35 273.085c-5.081 17.124-11.556 33.923-9.861 52.481.87 9.522 2.257 19.301 6.222 28.002 24.89 54.612 41.532 17.848 81.723 1.23 27.376-11.319 85.66-29.803 113.46-7.028 40.028 32.794 42.017 107.887-.03 139.975-29.749 22.703-72.33 19.463-104.228 4.667-10.33-4.792-18.11-18.358-20.17-28.678-10.842-54.324 38.683-119.81 82.275-146.744 4.577-2.828 8.655-6.77 13.782-8.405 26.568-8.472 51.587-3.27 78.597-3.717 28.767-.476 55.139-9.37 82.21-17.7 11.7-3.6 28.124-3.365 37.842-11.916 15.028-13.225 18.2-30.043 15.689-49.588-3.726-28.998-16.057-51.833-40.643-67.613-21.458-13.772-51.606-22.812-67.404-44.077-4.338-5.84-7.42-18.413-5.932-25.651 8.182-39.81 150.562-61.576 177.45-51.446" style="font-variation-settings:&quot;opsz&quot;143,&quot;wght&quot;557" transform="translate(-246.981 -229.084)"/>
  <path fill="none" stroke="#b60062" stroke-width="24.129" d="M1244.651 883.653c36.423 0 72.854-4.864 107.89-14.44 39.575-11.675 81.914-28.828 105.25-64.873 13.289-17.684 11.204-43.978-4.391-59.51-16.61-14.967-38.943-22.385-61.306-22.385s-44.696 7.418-61.305 22.384c-15.595 15.533-17.68 41.827-4.391 59.511 23.336 36.045 65.675 53.198 105.25 64.873 35.036 9.576 71.467 14.44 107.89 14.44" style="font-variation-settings:&quot;opsz&quot;143,&quot;wght&quot;557" transform="matrix(.414 0 0 .414 1377.913 -346.602)"/>
  <path fill="none" stroke="#b60062" stroke-width="10" d="M2074.678 261.539c-11.676 12.454-20.997 26.848-27.41 42.206-7.01 17.69-11.265 37.495-3.287 53.902 3.477 8.661 13.545 13.018 22.235 10.835 8.723-2.661 15.997-8.527 20.922-15.809 4.925-7.281 7.658-16.208 6.884-25.288-1.205-8.87-8.982-16.604-18.313-16.617-18.196-1.316-35.002 10.011-48.82 23.082-11.874 11.653-21.768 25.624-29.01 41.028-7.24 15.405-11.685 31.941-13.078 48.525-1.244 18.986.768 39.16 13.412 52.315 5.974 7.169 16.895 8.203 24.484 3.466 7.476-5.203 12.594-12.999 15.05-21.43 2.456-8.432 2.328-17.77-1.191-26.181-3.866-8.08-13.642-13.052-22.53-10.202-17.722 4.328-30.25 20.248-39.387 36.954a139.5 139.5 0 0 0-9.8 23.943 143.639 143.639 0 0 0-5.13 24.138c-2.1 16.922-1.168 34.03 2.678 50.217 4.735 18.421 12.932 36.945 29.03 45.532 7.904 4.965 18.61 2.574 24.359-4.3 5.495-7.28 7.933-16.305 7.637-25.097-.297-8.792-3.336-17.626-9.305-24.518-6.193-6.469-17.033-8.144-24.587-2.665-15.487 9.641-22.423 28.679-25.92 47.371-2.758 16.404-2.553 33.522.644 50.244 3.197 16.721 9.324 32.72 17.956 46.957 7.25 11.48 16.19 22.519 27.446 29.083 4.427 2.584 9.159 4.436 14.205 5.326 9.056 2.268 18.5-3.363 21.837-11.644a36.417 36.417 0 0 0 1.9-9.347c.42-5.71-.443-11.464-2.37-16.805-2.977-8.252-8.573-15.719-16.363-20.448-7.877-4.257-18.708-2.532-24.219 5-11.787 13.922-12.55 34.171-10.088 53.074.05.338.102.676.154 1.014 2.49 16.156 8.02 32.194 16.558 46.999 8.69 15.07 20.283 28.473 33.978 38.944l.088.068c16.008 11.8 35.2 20.338 52.858 15 9.118-2.064 14.752-11.537 14.293-20.186-.907-8.787-4.795-16.593-10.448-22.53a39.204 39.204 0 0 0-12.49-8.809 38.416 38.416 0 0 0-9.702-2.876c-8.724-.92-18.31 4.42-20.73 13.448-1.788 5.173-2.4 10.6-2.048 16.158.82 12.905 6.77 25.812 14.5 37.384 9.985 14.396 23.556 26.86 39.778 35.916a121.05 121.05 0 0 0 11.949 5.835c13.107 5.534 27.03 8.48 40.814 8.721 10.319.005 20.716-1.326 29.985-4.86 9.23-3.52 16.818-9.046 21.504-16.78 5.401-7.635 2.922-18.439-2.781-24.52-6.123-5.908-13.436-9.31-20.867-10.367-7.43-1.058-15.601.15-23.247 4.262-7.288 4.402-12.318 14.263-9.045 23.058 5.225 17.802 23.527 29.042 43.944 34.515 8.71 2.179 17.912 3.255 27.364 3.102a104.092 104.092 0 0 0 29.212-4.765c18.86-5.919 35.548-17.038 47.78-31.626 5.736-7.071 10.585-14.899 13.603-23.194 3.96-11.369 4.172-22.467-.254-31.897-3.372-8.745-13.744-12.561-21.909-11.27-6.93 1.452-12.802 4.433-17.263 8.025a32.994 32.994 0 0 0-2.32 2.228c-4.594 4.862-8.131 11.61-9.526 19.863-.963 8.16 3.154 18.476 12.007 21.566 12.684 5.464 27.88 2.528 42.081-6.004 4.427-2.748 8.594-5.926 12.485-9.335 14.025-12.696 24.436-29.287 30.198-47.279a110.496 110.496 0 0 0 4.824-23.821 124.42 124.42 0 0 0-.7-29.439c-3.132-19.26-10.284-37.992-25.601-47.784-7.494-5.574-18.34-4.184-24.649 2.41-6.073 7.017-9.093 16.036-9.372 24.721-.28 8.695 2.147 17.35 7.447 24.473 5.54 6.716 16.143 9.678 24.183 4.96 16.452-8.15 24.65-27.16 29.483-45.398a151.141 151.141 0 0 0 3.545-20.629c1.002-9.194 1.226-18.333.815-27.238-.718-15.567-3.351-30.357-7.1-44.507-.562-1.96-1.143-3.94-1.75-5.922-4.193-13.921-10.097-28.882-21.287-39.556-6.21-6.822-16.978-8.503-24.667-2.128-7.497 6.862-11.845 17.355-12.481 28.098a45.353 45.353 0 0 0 .835 11.84c1.275 6.337 3.894 12.129 7.792 16.78 6.495 7.01 17.428 7.498 24.665 1.741 6.635-4.55 11.75-10.556 16.002-17.053 5.233-7.939 9.321-16.91 12.945-24.842 5.541-12.848 10.19-25.239 14.62-36.735.509-1.32 1.015-2.631 1.524-3.939 3.916-10.843 7.332-20.133 11.519-31.892 4.35-13.14 10.636-29.657 9.86-45.828a55.716 55.716 0 0 0-.21-2.851c-.256-9.097-7.136-17.381-17.002-17.666a16.89 16.89 0 0 0-.32-.006c-10.241.4-20.605 5.832-28.302 14.375-7.694 8.538-12.126 19.535-11.466 29.864 1.142 10.104 10.332 16.01 19.477 15.232 17.18-.245 34.002-8.5 47.44-14.658a591.424 591.424 0 0 0 7.609-3.757c9.45-4.757 18.739-9.674 27.915-15 11.65-6.762 23.15-14.203 34.628-22.667l1.067-.823c12.319-9.495 26.81-20.817 33.21-36.781 4.039-8.318 1.3-18.91-7.114-23.696-8.798-4.443-19.755-4.88-30.011-1.794-5.67 1.705-11.014 4.458-15.505 8.081-3.597 2.897-6.607 6.334-8.793 10.188-4.428 8.794-.56 19.025 7.464 23.613 5.06 3.39 10.528 5.746 16.104 7.428 10.749 3.24 22.61 4.161 33.32 4.79 14.426.547 28.906.042 43.398-1.848 1.674-.218 3.349-.455 5.023-.71 12.817-1.938 25.75-4.922 38.433-9.099 15.418-5.422 32.5-12.56 42.516-26.316a44.74 44.74 0 0 0 1.344-1.951c5.456-7.217 4.654-17.728-1.763-24.124-.173-.172-.35-.34-.53-.507-7.34-6.093-17.22-8.967-27.165-8.618-9.94.349-19.787 3.924-26.772 10.612-6.532 6.907-6.47 17.82-.282 24.732 10.938 14.109 29.076 20.549 45.837 24.997a194.024 194.024 0 0 0 45.862 5.508 193.672 193.672 0 0 0 45.892-5.51c16.892-4.482 35.225-11.014 45.841-25.495 6.01-7.086 5.624-18.01-.91-24.72-6.98-6.49-16.625-9.903-26.402-10.178-9.776-.275-19.598 2.592-26.932 8.679-6.9 6.332-7.898 17.217-2.296 24.63 9.786 15.054 27.722 22.606 44.336 28.029a193.65 193.65 0 0 0 45.51 8.079c15.42.866 30.973-.117 46.13-2.932 17.116-3.528 35.785-9.024 47.196-22.888 6.396-6.738 6.624-17.667.476-24.732-6.606-6.87-16.045-10.819-25.791-11.64-9.746-.822-19.713 1.49-27.376 7.157-7.244 5.936-8.85 16.748-3.672 24.462 8.928 15.58 26.413 24.124 42.698 30.468a193.667 193.667 0 0 0 44.985 10.615" style="font-variation-settings:&quot;opsz&quot;143,&quot;wght&quot;557" transform="translate(-410.314 -120.463)"/>
  <path fill="none" stroke="#b60062" stroke-width="10" d="M1252.17 810.68c9.516 13.053 23.312 22.933 38.735 27.74 15.423 4.808 32.389 4.516 47.637-.82 15.249-5.335 28.696-15.684 37.758-29.058 9.062-13.374 13.688-29.7 12.99-45.84-.505-11.697-3.881-23.494-11.028-32.768-3.573-4.637-8.06-8.595-13.212-11.374-5.153-2.78-10.974-4.363-16.828-4.363-5.854 0-11.675 1.583-16.828 4.363-5.152 2.78-9.639 6.737-13.212 11.374-7.147 9.274-10.523 21.071-11.029 32.769-.698 16.14 3.93 32.465 12.99 45.84 9.063 13.373 22.51 23.722 37.758 29.057 15.249 5.336 32.215 5.628 47.638.82 15.423-4.807 29.219-14.687 38.735-27.74" style="font-variation-settings:&quot;opsz&quot;143,&quot;wght&quot;557" transform="translate(-13.22 -322.694)"/>
  <path fill="none" stroke="#9b4a00" stroke-width="16" d="M1037.428 293.55c1.07 32.364-20.049 61.294-51.2 70.137-31.152 8.842-64.321-4.68-80.413-32.78-16.092-28.101-10.967-63.552 12.425-85.944m116.896-90.016c32.365-1.07 61.296 20.049 70.138 51.2 8.842 31.152-4.68 64.321-32.78 80.413-28.101 16.092-63.551 10.967-85.944-12.425M896.534 157.24c-1.07-32.365 20.049-61.296 51.2-70.138 31.152-8.842 64.321 4.68 80.413 32.78 16.093 28.101 10.967 63.551-12.425 85.944m-116.896 90.016c-32.365 1.07-61.295-20.049-70.138-51.2-8.842-31.152 4.68-64.321 32.78-80.413 28.101-16.093 63.552-10.967 85.944 12.425" style="font-variation-settings:&quot;opsz&quot;143,&quot;wght&quot;557" transform="matrix(1 0 0 -1 279.76 -482.864)"/>
  <path fill="none" stroke="#7b6100" stroke-width="16" d="M1034.063 317.517c-8.7 26.974-32.71 46.113-60.945 48.58-28.235 2.468-55.202-12.216-68.45-37.272-13.247-25.056-10.198-55.61 7.739-77.554m162.918-61.209c22.965 16.61 33.748 45.36 27.37 72.975-6.379 27.616-28.677 48.725-56.6 53.581-27.924 4.857-56.04-7.484-71.367-31.324m-7.87-173.86c22.894-16.708 53.57-18.078 77.862-3.479 24.293 14.6 37.478 42.33 33.468 70.387-4.01 28.058-24.435 50.984-51.845 58.194m-167.781-46.241c-8.816-26.936-.641-56.533 20.75-75.126 21.393-18.592 51.84-22.563 77.285-10.079 25.445 12.484 40.938 38.994 39.325 67.29m-95.825 145.28c-28.343.061-53.965-16.86-65.037-42.95-11.071-26.09-5.44-56.275 14.297-76.616 19.735-20.342 49.735-26.885 76.149-16.607" style="font-variation-settings:&quot;opsz&quot;143,&quot;wght&quot;557" transform="matrix(1 0 0 -1 601.219 -482.864)"/>
  <path fill="none" stroke="#397158" stroke-width="16" d="M1029.18 329.04c-17.886 33.546-59.151 46.866-93.274 30.105-34.122-16.76-48.805-57.56-33.189-92.22m185.123-43.573c20.11 32.262 11.012 74.658-20.564 95.83-31.576 21.17-74.252 13.486-96.46-17.369m54.826-182.107c37.995-1.285 70.162 27.793 72.709 65.724 2.546 37.93-25.446 71.047-63.271 74.853M904.783 121.748c17.885-33.546 59.15-46.866 93.273-30.106 34.122 16.76 48.806 57.56 33.189 92.221m-185.123 43.573c-20.11-32.262-11.012-74.659 20.564-95.83 31.576-21.17 74.252-13.486 96.46 17.368M908.32 331.082c-37.994 1.285-70.162-27.793-72.709-65.724-2.546-37.93 25.446-71.047 63.271-74.853" style="font-variation-settings:&quot;opsz&quot;143,&quot;wght&quot;557" transform="matrix(1 0 0 -1 922.679 -482.864)"/>
  <g fill="none" stroke="#636a00" stroke-width="16">
    <path d="M1194.55-451.062c-32.364-1.07-61.295 20.049-70.137 51.2-8.842 31.152 4.68 64.321 32.78 80.413s63.551 10.967 85.944-12.425" style="font-variation-settings:&quot;opsz&quot;143,&quot;wght&quot;557" transform="translate(-159.422 -837.715)"/>
    <path d="M1192.259-312.46c-1.07 32.365 20.049 61.295 51.2 70.138 31.152 8.842 64.321-4.68 80.413-32.78 16.092-28.101 10.967-63.552-12.425-85.944" style="font-variation-settings:&quot;opsz&quot;143,&quot;wght&quot;557" transform="translate(-159.422 -837.715)"/>
    <path d="M1330.861-310.168c32.365 1.07 61.295-20.049 70.137-51.2 8.843-31.152-4.678-64.321-32.78-80.413-28.1-16.092-63.55-10.967-85.943 12.425" style="font-variation-settings:&quot;opsz&quot;143,&quot;wght&quot;557" transform="translate(-159.422 -837.715)"/>
    <path d="M1333.153-448.77c1.07-32.365-20.049-61.296-51.2-70.138-31.152-8.842-64.321 4.68-80.413 32.78-16.093 28.101-10.967 63.551 12.425 85.944" style="font-variation-settings:&quot;opsz&quot;143,&quot;wght&quot;557" transform="translate(-159.422 -837.715)"/>
  </g>
  <g fill="none" stroke="#6d981b" stroke-width="25.047">
    <path d="M1194.55-451.062c-32.364-1.07-61.295 20.049-70.137 51.2-8.842 31.152 4.68 64.321 32.78 80.413s63.551 10.967 85.944-12.425" style="font-variation-settings:&quot;opsz&quot;143,&quot;wght&quot;557" transform="matrix(.679 0 0 .277 814.675 -1013.244)"/>
    <path d="M1192.259-312.46c-1.07 32.365 20.049 61.295 51.2 70.138 31.152 8.842 64.321-4.68 80.413-32.78 16.092-28.101 10.967-63.552-12.425-85.944" style="font-variation-settings:&quot;opsz&quot;143,&quot;wght&quot;557" transform="matrix(.679 0 0 .277 814.675 -1013.244)"/>
    <path d="M1330.861-310.168c32.365 1.07 61.295-20.049 70.137-51.2 8.843-31.152-4.678-64.321-32.78-80.413-28.1-16.092-63.55-10.967-85.943 12.425" style="font-variation-settings:&quot;opsz&quot;143,&quot;wght&quot;557" transform="matrix(.679 0 0 .277 814.675 -1013.244)"/>
    <path d="M1333.153-448.77c1.07-32.365-20.049-61.296-51.2-70.138-31.152-8.842-64.321 4.68-80.413 32.78-16.093 28.101-10.967 63.551 12.425 85.944" style="font-variation-settings:&quot;opsz&quot;143,&quot;wght&quot;557" transform="matrix(.679 0 0 .277 814.675 -1013.244)"/>
  </g>
  <g fill="none" stroke="#6d981b" stroke-width="25.047">
    <path d="M1194.55-451.062c-32.364-1.07-61.295 20.049-70.137 51.2-8.842 31.152 4.68 64.321 32.78 80.413s63.551 10.967 85.944-12.425" style="font-variation-settings:&quot;opsz&quot;143,&quot;wght&quot;557" transform="matrix(1.13 0 0 .461 377.77 -883.69)"/>
    <path d="M1192.259-312.46c-1.07 32.365 20.049 61.295 51.2 70.138 31.152 8.842 64.321-4.68 80.413-32.78 16.092-28.101 10.967-63.552-12.425-85.944" style="font-variation-settings:&quot;opsz&quot;143,&quot;wght&quot;557" transform="matrix(1.13 0 0 .461 377.77 -883.69)"/>
    <path d="M1330.861-310.168c32.365 1.07 61.295-20.049 70.137-51.2 8.843-31.152-4.678-64.321-32.78-80.413-28.1-16.092-63.55-10.967-85.943 12.425" style="font-variation-settings:&quot;opsz&quot;143,&quot;wght&quot;557" transform="matrix(1.13 0 0 .461 377.77 -883.69)"/>
    <path d="M1333.153-448.77c1.07-32.365-20.049-61.296-51.2-70.138-31.152-8.842-64.321 4.68-80.413 32.78-16.093 28.101-10.967 63.551 12.425 85.944" style="font-variation-settings:&quot;opsz&quot;143,&quot;wght&quot;557" transform="matrix(1.13 0 0 .461 377.77 -883.69)"/>
  </g>
  <g fill="none" stroke="#6d981b" stroke-width="25.047">
    <path d="M1194.55-451.062c-32.364-1.07-61.295 20.049-70.137 51.2-8.842 31.152 4.68 64.321 32.78 80.413s63.551 10.967 85.944-12.425" style="font-variation-settings:&quot;opsz&quot;143,&quot;wght&quot;557" transform="matrix(.882 0 0 .36 832.77 -1051.644)"/>
    <path d="M1192.259-312.46c-1.07 32.365 20.049 61.295 51.2 70.138 31.152 8.842 64.321-4.68 80.413-32.78 16.092-28.101 10.967-63.552-12.425-85.944" style="font-variation-settings:&quot;opsz&quot;143,&quot;wght&quot;557" transform="matrix(.882 0 0 .36 832.77 -1051.644)"/>
    <path d="M1330.861-310.168c32.365 1.07 61.295-20.049 70.137-51.2 8.843-31.152-4.678-64.321-32.78-80.413-28.1-16.092-63.55-10.967-85.943 12.425" style="font-variation-settings:&quot;opsz&quot;143,&quot;wght&quot;557" transform="matrix(.882 0 0 .36 832.77 -1051.644)"/>
    <path d="M1333.153-448.77c1.07-32.365-20.049-61.296-51.2-70.138-31.152-8.842-64.321 4.68-80.413 32.78-16.093 28.101-10.967 63.551 12.425 85.944" style="font-variation-settings:&quot;opsz&quot;143,&quot;wght&quot;557" transform="matrix(.882 0 0 .36 832.77 -1051.644)"/>
  </g>
  <g fill="none" stroke="#6d981b" stroke-width="25.047">
    <path d="M1194.55-451.062c-32.364-1.07-61.295 20.049-70.137 51.2-8.842 31.152 4.68 64.321 32.78 80.413s63.551 10.967 85.944-12.425" style="font-variation-settings:&quot;opsz&quot;143,&quot;wght&quot;557" transform="matrix(.845 0 0 .345 403.132 -1082.34)"/>
    <path d="M1192.259-312.46c-1.07 32.365 20.049 61.295 51.2 70.138 31.152 8.842 64.321-4.68 80.413-32.78 16.092-28.101 10.967-63.552-12.425-85.944" style="font-variation-settings:&quot;opsz&quot;143,&quot;wght&quot;557" transform="matrix(.845 0 0 .345 403.132 -1082.34)"/>
    <path d="M1330.861-310.168c32.365 1.07 61.295-20.049 70.137-51.2 8.843-31.152-4.678-64.321-32.78-80.413-28.1-16.092-63.55-10.967-85.943 12.425" style="font-variation-settings:&quot;opsz&quot;143,&quot;wght&quot;557" transform="matrix(.845 0 0 .345 403.132 -1082.34)"/>
    <path d="M1333.153-448.77c1.07-32.365-20.049-61.296-51.2-70.138-31.152-8.842-64.321 4.68-80.413 32.78-16.093 28.101-10.967 63.551 12.425 85.944" style="font-variation-settings:&quot;opsz&quot;143,&quot;wght&quot;557" transform="matrix(.845 0 0 .345 403.132 -1082.34)"/>
  </g>
  <g fill="none" stroke="#6d981b" stroke-width="25.047">
    <path d="M1194.55-451.062c-32.364-1.07-61.295 20.049-70.137 51.2-8.842 31.152 4.68 64.321 32.78 80.413s63.551 10.967 85.944-12.425" style="font-variation-settings:&quot;opsz&quot;143,&quot;wght&quot;557" transform="matrix(.81 0 0 .33 887.253 -1227.159)"/>
    <path d="M1192.259-312.46c-1.07 32.365 20.049 61.295 51.2 70.138 31.152 8.842 64.321-4.68 80.413-32.78 16.092-28.101 10.967-63.552-12.425-85.944" style="font-variation-settings:&quot;opsz&quot;143,&quot;wght&quot;557" transform="matrix(.81 0 0 .33 887.253 -1227.159)"/>
    <path d="M1330.861-310.168c32.365 1.07 61.295-20.049 70.137-51.2 8.843-31.152-4.678-64.321-32.78-80.413-28.1-16.092-63.55-10.967-85.943 12.425" style="font-variation-settings:&quot;opsz&quot;143,&quot;wght&quot;557" transform="matrix(.81 0 0 .33 887.253 -1227.159)"/>
    <path d="M1333.153-448.77c1.07-32.365-20.049-61.296-51.2-70.138-31.152-8.842-64.321 4.68-80.413 32.78-16.093 28.101-10.967 63.551 12.425 85.944" style="font-variation-settings:&quot;opsz&quot;143,&quot;wght&quot;557" transform="matrix(.81 0 0 .33 887.253 -1227.159)"/>
  </g>
  <g fill="none" stroke="#6d981b" stroke-width="25.047">
    <path d="M1194.55-451.062c-32.364-1.07-61.295 20.049-70.137 51.2-8.842 31.152 4.68 64.321 32.78 80.413s63.551 10.967 85.944-12.425" style="font-variation-settings:&quot;opsz&quot;143,&quot;wght&quot;557" transform="matrix(.688 0 0 .28 645.648 -1323.5)"/>
    <path d="M1192.259-312.46c-1.07 32.365 20.049 61.295 51.2 70.138 31.152 8.842 64.321-4.68 80.413-32.78 16.092-28.101 10.967-63.552-12.425-85.944" style="font-variation-settings:&quot;opsz&quot;143,&quot;wght&quot;557" transform="matrix(.688 0 0 .28 645.648 -1323.5)"/>
    <path d="M1330.861-310.168c32.365 1.07 61.295-20.049 70.137-51.2 8.843-31.152-4.678-64.321-32.78-80.413-28.1-16.092-63.55-10.967-85.943 12.425" style="font-variation-settings:&quot;opsz&quot;143,&quot;wght&quot;557" transform="matrix(.688 0 0 .28 645.648 -1323.5)"/>
    <path d="M1333.153-448.77c1.07-32.365-20.049-61.296-51.2-70.138-31.152-8.842-64.321 4.68-80.413 32.78-16.093 28.101-10.967 63.551 12.425 85.944" style="font-variation-settings:&quot;opsz&quot;143,&quot;wght&quot;557" transform="matrix(.688 0 0 .28 645.648 -1323.5)"/>
  </g>
  <g transform="translate(-225.88 -380.584)">
    <path fill="#cdc4b6" stroke="#b0babd" stroke-miterlimit="100" stroke-width="5" d="m872.691 276.795-12.817-5.64 1.177 13.954-9.683-10.115-4.252 13.342-5.076-13.05-9.034 10.699.305-14-12.44 6.428 5.64-12.817-13.954 1.177 10.115-9.683-13.342-4.252 13.05-5.076-10.699-9.034 14 .305-6.428-12.44 12.817 5.639-1.177-13.953 9.683 10.115 4.252-13.342 5.076 13.05 9.034-10.699-.305 14 12.44-6.428-5.639 12.817 13.953-1.177-10.115 9.683 13.342 4.252-13.05 5.076 10.699 9.034-14-.305z" style="font-variation-settings:normal;-inkscape-stroke:none" transform="translate(10.968 10.92)"/>
    <ellipse cx="-553.715" cy="-772.927" fill="#cfeac3" stroke="#b0d584" stroke-miterlimit="100" stroke-width="5" rx="16.834" ry="63.082" style="font-variation-settings:normal;-inkscape-stroke:none" transform="rotate(144.7)"/>
    <path fill="#e2b9cf" stroke="#ea1bad" stroke-miterlimit="100" stroke-width="5" d="M862.798 284.193a48.65 34.586 0 0 1-15.234-38.217 48.65 34.586 0 0 1 45.36-23.195 48.65 34.586 0 0 1 46.12 22.422 48.65 34.586 0 0 1-13.952 38.463z" style="font-variation-settings:normal;-inkscape-stroke:none"/>
    <path fill="url(#l)" stroke="#90dee3" stroke-miterlimit="100" stroke-width="5" d="m930.41 241.45.829-56.877-53.575-1.87-20.348 64.44" style="font-variation-settings:normal;-inkscape-stroke:none"/>
    <path fill="url(#m)" stroke="#a3d6a6" stroke-miterlimit="100" stroke-width="5" d="M-905.516 296.86a26.612 93.799 0 0 1-15.388 105.915 26.612 93.799 0 0 1-32.476-32.506 26.612 93.799 0 0 1 2.701-118.613 26.612 93.799 0 0 1 33.532-13.827" stop-color="#070b12" style="font-variation-settings:normal;-inkscape-stroke:none" transform="scale(-1 1) rotate(7.5)"/>
    <ellipse cx="-888.389" cy="-436.929" fill="#bbd0cc" stroke="#e8db4d" stroke-miterlimit="100" stroke-width="5" rx="16.834" ry="63.082" style="font-variation-settings:normal;-inkscape-stroke:none" transform="scale(-1 1) rotate(-40.5)"/>
    <path fill="#f9f7f6" stroke="#ace9ce" stroke-miterlimit="100" stroke-width="5" d="M855.208 199.125a63.724 62.99 0 0 1 11.128-81.463 63.724 62.99 0 0 1 83.15-1.218 63.724 62.99 0 0 1 13.565 81.102z"/>
    <path fill="url(#n)" stroke="#91a9cc" stroke-miterlimit="100" stroke-width="5" d="M866.553-152.598a26.612 93.799 0 0 1-15.388 105.915 26.612 93.799 0 0 1-32.477-32.505 26.612 93.799 0 0 1 2.702-118.613 26.612 93.799 0 0 1 33.532-13.827" stop-color="#6f640c" style="font-variation-settings:normal;-inkscape-stroke:none" transform="rotate(21.8)"/>
    <ellipse cx="881.319" cy="142.653" fill="#7b85de" rx="4.592" ry="21.419"/>
    <ellipse cx="945.709" cy="142.614" fill="#cfa56e" rx="4.592" ry="21.419"/>
    <ellipse cx="931.943" cy="201.783" fill="#dcdad3" stroke="#556cce" stroke-miterlimit="100" stroke-width="5" rx="24.491" ry="17.676" style="font-variation-settings:normal;-inkscape-stroke:none"/>
    <ellipse cx="898.36" cy="201.783" fill="#ee83bd" stroke="#f9ae1c" stroke-miterlimit="100" stroke-width="5" rx="24.491" ry="17.676" style="font-variation-settings:normal;-inkscape-stroke:none"/>
  </g>
  <g transform="translate(-53.888 -317.146)">
    <ellipse cx="837.022" cy="740.714" fill="#e8f3e9" stroke="#aca3a8" stroke-miterlimit="100" stroke-width="5" rx="24.505" ry="14.792"/>
    <path fill="#9acdc7" stroke="#24bde9" stroke-miterlimit="100" stroke-width="5" d="M840.07 740.783a51.072 33.68 0 0 1 7.14-43.88 51.072 33.68 0 0 1 66.881-1.548 51.072 33.68 0 0 1 11.784 43.443z"/>
    <ellipse cx="923.476" cy="739.785" fill="#f3f6ed" stroke="#aac5d9" stroke-miterlimit="100" stroke-width="5" rx="24.505" ry="14.792"/>
    <path fill="#f9fcfb" stroke="#8c8dbd" stroke-miterlimit="100" stroke-width="5" d="m793.786 686.396 27.466-77.054 33.5 51.546"/>
    <path fill="#f5fcf9" stroke="#a6b099" stroke-miterlimit="100" stroke-width="5" d="M795.711 715.139a53.017 47.034 0 0 1 13.787-60.407 53.017 47.034 0 0 1 69.355 3.563 53.017 47.034 0 0 1 5.837 61.414z"/>
    <path fill="#cbcbf2" stroke="#db92d5" stroke-miterlimit="100" stroke-width="5" d="m840.225 656.107 44.427-33.52.188 70.282"/>
    <ellipse cx="807.824" cy="685.75" fill="#51eaec" rx="4.434" ry="19.845"/>
    <ellipse cx="860.149" cy="744.313" fill="#f4f3f3" stroke="#a789de" stroke-miterlimit="100" stroke-width="5" rx="24.505" ry="14.792"/>
    <path fill="#ceebdc" stroke="#966b8c" stroke-miterlimit="100" stroke-width="5" d="m917.553 703.816 13.2-71.007 3.939 34.018 22.108-36.333-5.663 37.981 23.568-8.855-48.042 56.263"/>
  </g>
</svg>
