<svg xmlns="http://www.w3.org/2000/svg" xmlns:xlink="http://www.w3.org/1999/xlink" viewBox="0 0 640 640">
  <defs>
    <linearGradient id="c" gradientTransform="rotate(10.2 -4417.285 -51199.459)">
      <stop offset="0" stop-color="#ffcad9"/>
    </linearGradient>
    <linearGradient id="b" gradientTransform="matrix(-1.78 -.616 -.557 1.903 -4503.853 1115.024)">
      <stop offset="0" stop-color="#b52947"/>
    </linearGradient>
    <linearGradient id="a">
      <stop offset="0"/>
      <stop offset="1" stop-color="#fff"/>
    </linearGradient>
    <linearGradient xlink:href="#b" id="Z" x1="1046.447" x2="1138.901" y1="127.228" y2="127.228" gradientTransform="translate(-622.123 38.375)" gradientUnits="userSpaceOnUse"/>
    <linearGradient xlink:href="#b" id="X" x1="976.463" x2="1042.877" y1="-10.901" y2="-10.901" gradientUnits="userSpaceOnUse"/>
    <linearGradient xlink:href="#b" id="V" x1="976.463" x2="1042.877" y1="-10.901" y2="-10.901" gradientUnits="userSpaceOnUse"/>
    <linearGradient xlink:href="#b" id="T" x1="952.882" x2="1009.94" y1="122.068" y2="122.068" gradientTransform="translate(-622.123 38.375)" gradientUnits="userSpaceOnUse"/>
    <linearGradient xlink:href="#b" id="S" x1="831.161" x2="883.756" y1="110.136" y2="110.136" gradientTransform="translate(-622.123 38.375)" gradientUnits="userSpaceOnUse"/>
    <linearGradient xlink:href="#b" id="R" x1="928.981" x2="938.589" y1="190.654" y2="190.654" gradientUnits="userSpaceOnUse"/>
    <linearGradient xlink:href="#b" id="P" x1="922.327" x2="931.935" y1="190.399" y2="190.399" gradientUnits="userSpaceOnUse"/>
    <linearGradient xlink:href="#b" id="N" x1="978.953" x2="1190.875" y1="57.392" y2="57.392" gradientTransform="translate(-622.123 38.375)" gradientUnits="userSpaceOnUse"/>
    <linearGradient xlink:href="#b" id="L" x1="830.461" x2="1100.545" y1="22.196" y2="22.196" gradientUnits="userSpaceOnUse"/>
    <linearGradient xlink:href="#b" id="K" x1="759.095" x2="1044.678" y1="181.377" y2="181.377" gradientUnits="userSpaceOnUse"/>
    <linearGradient xlink:href="#b" id="I" x1="779.181" x2="833.176" y1="179.987" y2="179.987" gradientTransform="translate(-566.726 57.195)" gradientUnits="userSpaceOnUse"/>
    <linearGradient xlink:href="#b" id="E" x1="657.356" x2="734.623" y1="214.418" y2="214.418" gradientTransform="translate(-566.726 57.195)" gradientUnits="userSpaceOnUse"/>
    <linearGradient xlink:href="#b" id="D" x1="575.11" x2="652.075" y1="80.563" y2="80.563" gradientTransform="matrix(.941 0 0 1 -528.438 57.195)" gradientUnits="userSpaceOnUse"/>
    <linearGradient xlink:href="#b" id="z" x1="518.432" x2="693.981" y1="73.307" y2="73.307" gradientTransform="translate(-566.726 57.195)" gradientUnits="userSpaceOnUse"/>
    <linearGradient xlink:href="#b" id="x" x1="811.275" x2="1041.584" y1="115.626" y2="115.626" gradientTransform="translate(-622.123 38.375)" gradientUnits="userSpaceOnUse"/>
    <linearGradient xlink:href="#b" id="t" x1="563.159" x2="933.671" y1="212.406" y2="212.406" gradientUnits="userSpaceOnUse"/>
    <linearGradient xlink:href="#b" id="s" x1="594.464" x2="874.84" y1="112.608" y2="112.608" gradientUnits="userSpaceOnUse"/>
    <linearGradient xlink:href="#b" id="p" x1="557.332" x2="684.592" y1="299.576" y2="299.576" gradientTransform="translate(-566.726 57.195)" gradientUnits="userSpaceOnUse"/>
    <linearGradient xlink:href="#b" id="m" x1="-880.469" x2="-724.553" y1="37.43" y2="37.43" gradientTransform="translate(566.726 57.195)" gradientUnits="userSpaceOnUse"/>
    <linearGradient xlink:href="#b" id="i" x1="645.399" x2="847.234" y1="193.062" y2="193.062" gradientTransform="translate(-566.869 52.598)" gradientUnits="userSpaceOnUse"/>
    <linearGradient xlink:href="#c" id="Y" x1="1046.447" x2="1138.901" y1="127.228" y2="127.228" gradientTransform="translate(-622.123 38.375)" gradientUnits="userSpaceOnUse"/>
    <linearGradient xlink:href="#c" id="W" x1="976.463" x2="1042.877" y1="-10.901" y2="-10.901" gradientUnits="userSpaceOnUse"/>
    <linearGradient xlink:href="#c" id="U" x1="976.463" x2="1042.877" y1="-10.901" y2="-10.901" gradientUnits="userSpaceOnUse"/>
    <linearGradient xlink:href="#c" id="Q" x1="928.981" x2="938.589" y1="190.654" y2="190.654" gradientUnits="userSpaceOnUse"/>
    <linearGradient xlink:href="#c" id="O" x1="922.327" x2="931.935" y1="190.399" y2="190.399" gradientUnits="userSpaceOnUse"/>
    <linearGradient xlink:href="#c" id="M" x1="978.953" x2="1190.875" y1="57.392" y2="57.392" gradientTransform="translate(-622.123 38.375)" gradientUnits="userSpaceOnUse"/>
    <linearGradient xlink:href="#c" id="J" x1="764.457" x2="1092.616" y1="138.805" y2="138.805" gradientUnits="userSpaceOnUse"/>
    <linearGradient xlink:href="#c" id="C" x1="575.11" x2="652.075" y1="80.563" y2="80.563" gradientTransform="matrix(.941 0 0 1 -528.438 57.195)" gradientUnits="userSpaceOnUse"/>
    <linearGradient xlink:href="#c" id="y" x1="518.432" x2="693.981" y1="73.307" y2="73.307" gradientTransform="translate(-566.726 57.195)" gradientUnits="userSpaceOnUse"/>
    <linearGradient xlink:href="#c" id="w" x1="811.275" x2="1041.584" y1="115.626" y2="115.626" gradientTransform="translate(-622.123 38.375)" gradientUnits="userSpaceOnUse"/>
    <linearGradient xlink:href="#c" id="r" x1="566.772" x2="928.586" y1="171.585" y2="171.585" gradientUnits="userSpaceOnUse"/>
    <linearGradient xlink:href="#c" id="o" x1="557.332" x2="684.592" y1="299.576" y2="299.576" gradientTransform="translate(-566.726 57.195)" gradientUnits="userSpaceOnUse"/>
    <linearGradient xlink:href="#c" id="l" x1="-880.469" x2="-724.553" y1="37.43" y2="37.43" gradientTransform="translate(566.726 57.195)" gradientUnits="userSpaceOnUse"/>
    <linearGradient xlink:href="#c" id="h" x1="645.399" x2="847.234" y1="193.062" y2="193.062" gradientTransform="translate(-566.869 52.598)" gradientUnits="userSpaceOnUse"/>
    <linearGradient xlink:href="#c" id="A" x1="978.953" x2="1190.875" y1="57.392" y2="57.392" gradientUnits="userSpaceOnUse"/>
    <linearGradient xlink:href="#b" id="B" x1="978.953" x2="1190.875" y1="57.392" y2="57.392" gradientUnits="userSpaceOnUse"/>
    <linearGradient xlink:href="#b" id="aa" x1="978.953" x2="1190.875" y1="57.392" y2="57.392" gradientUnits="userSpaceOnUse"/>
    <linearGradient xlink:href="#b" id="ab" x1="978.953" x2="1190.875" y1="57.392" y2="57.392" gradientUnits="userSpaceOnUse"/>
    <linearGradient xlink:href="#b" id="ac" x1="759.095" x2="1044.678" y1="181.377" y2="181.377" gradientTransform="translate(-622.123 38.375)" gradientUnits="userSpaceOnUse"/>
    <linearGradient xlink:href="#b" id="ad" x1="759.095" x2="1044.678" y1="181.377" y2="181.377" gradientTransform="translate(-622.123 38.375)" gradientUnits="userSpaceOnUse"/>
    <linearGradient xlink:href="#b" id="ae" x1="759.095" x2="1044.678" y1="181.377" y2="181.377" gradientTransform="translate(-705.119 110.418)" gradientUnits="userSpaceOnUse"/>
    <linearGradient xlink:href="#b" id="af" x1="978.953" x2="1190.875" y1="57.392" y2="57.392" gradientTransform="translate(-585.018 31.811)" gradientUnits="userSpaceOnUse"/>
    <linearGradient xlink:href="#b" id="ag" x1="978.953" x2="1190.875" y1="57.392" y2="57.392" gradientTransform="translate(-622.123 38.375)" gradientUnits="userSpaceOnUse"/>
    <linearGradient xlink:href="#b" id="ah" x1="978.953" x2="1190.875" y1="57.392" y2="57.392" gradientTransform="translate(-620.73 44.532)" gradientUnits="userSpaceOnUse"/>
    <linearGradient xlink:href="#b" id="ai" x1="978.953" x2="1190.875" y1="57.392" y2="57.392" gradientTransform="translate(-620.73 44.532)" gradientUnits="userSpaceOnUse"/>
    <linearGradient xlink:href="#b" id="aj" x1="978.953" x2="1190.875" y1="57.392" y2="57.392" gradientTransform="translate(-622.123 38.375)" gradientUnits="userSpaceOnUse"/>
    <linearGradient xlink:href="#b" id="ak" x1="978.953" x2="1190.875" y1="57.392" y2="57.392" gradientTransform="translate(-622.123 38.375)" gradientUnits="userSpaceOnUse"/>
    <linearGradient xlink:href="#b" id="al" x1="978.953" x2="1190.875" y1="57.392" y2="57.392" gradientTransform="translate(-566.726 57.195)" gradientUnits="userSpaceOnUse"/>
    <linearGradient xlink:href="#b" id="am" x1="978.953" x2="1190.875" y1="57.392" y2="57.392" gradientTransform="translate(-566.726 57.195)" gradientUnits="userSpaceOnUse"/>
    <linearGradient xlink:href="#b" id="f" x1="978.953" x2="1190.875" y1="57.392" y2="57.392" gradientTransform="matrix(.684 0 0 .697 583.589 118.508)" gradientUnits="userSpaceOnUse"/>
    <linearGradient xlink:href="#b" id="u" x1="759.095" x2="1044.678" y1="181.377" y2="181.377" gradientTransform="translate(-622.123 38.375)" gradientUnits="userSpaceOnUse"/>
    <linearGradient xlink:href="#c" id="F" gradientTransform="matrix(1.358 0 0 1.125 -918.774 38.214)" gradientUnits="userSpaceOnUse"/>
    <linearGradient xlink:href="#c" id="g" gradientTransform="translate(-4320.354 403.338)" gradientUnits="userSpaceOnUse"/>
    <linearGradient xlink:href="#b" id="v" x1="759.095" x2="1044.678" y1="181.377" y2="181.377" gradientTransform="rotate(10.2 528.437 -3315.253)" gradientUnits="userSpaceOnUse"/>
    <linearGradient xlink:href="#c" id="q" gradientTransform="matrix(1.294 -.412 .341 1.072 -985.152 365.426)" gradientUnits="userSpaceOnUse"/>
    <linearGradient xlink:href="#c" id="an" gradientTransform="matrix(1.56 0 0 1.292 -1630.55 -20.86)" gradientUnits="userSpaceOnUse"/>
    <linearGradient xlink:href="#c" id="H" gradientTransform="matrix(-1.487 -.473 -.392 1.231 1669.95 304.867)" gradientUnits="userSpaceOnUse"/>
    <linearGradient xlink:href="#c" id="n" gradientTransform="matrix(1.56 0 0 1.292 -1689.323 -770.055)" gradientUnits="userSpaceOnUse"/>
    <linearGradient xlink:href="#c" id="G" gradientTransform="matrix(1.358 0 0 1.125 -644.91 -612.063)" gradientUnits="userSpaceOnUse"/>
    <linearGradient xlink:href="#c" id="j" x1="978.953" x2="1190.875" y1="57.392" y2="57.392" gradientTransform="translate(-622.123 38.375)" gradientUnits="userSpaceOnUse"/>
    <linearGradient xlink:href="#b" id="k" x1="978.953" x2="1190.875" y1="57.392" y2="57.392" gradientTransform="translate(-622.123 38.375)" gradientUnits="userSpaceOnUse"/>
    <pattern xlink:href="#d" id="e" x="0" y="0" patternTransform="matrix(20 0 0 20 -307.586 -284.361)" preserveAspectRatio="xMidYMid"/>
    <pattern id="d" width="2" height="2" fill="#ffedf2" patternTransform="scale(10)" patternUnits="userSpaceOnUse" preserveAspectRatio="xMidYMid">
      <path d="M0 0h1v1H0zm1 1h1v1H1z"/>
    </pattern>
  </defs>
  <g transform="translate(67.586 84.361)">
    <path fill="#fff" d="M-67.586-84.361h640v640h-640z"/>
    <path fill="url(#e)" d="M-67.586-84.361h640v640h-640z"/>
    <path fill="none" stroke="url(#b)" stroke-miterlimit="100" stroke-width="9.447" d="M32.173 615.187C9.5 601.454-9.312 581.423-21.597 557.934c-12.285-23.488-18.008-50.365-16.357-76.82.358-5.728 1.058-11.46 2.623-16.981 1.564-5.521 4.018-10.842 7.634-15.297 3.616-4.456 8.44-8.016 13.936-9.665 5.497-1.649 11.666-1.282 16.708 1.46 5.363 2.915 9.15 8.376 10.507 14.328 1.357 5.952.391 12.317-2.197 17.846-2.589 5.529-6.733 10.247-11.565 13.978-4.832 3.73-10.343 6.509-16.037 8.708-18.427 7.118-39.431 8.148-57.966 1.317-18.534-6.83-34.225-21.84-40.405-40.6-3.09-9.381-3.81-19.559-1.866-29.242 1.945-9.683 6.574-18.841 13.372-26.006 6.797-7.166 15.759-12.292 25.426-14.316 9.667-2.024 19.998-.903 28.92 3.334 2.857 1.357 5.581 3.033 7.934 5.148 2.352 2.115 4.329 4.683 5.567 7.594 2.248 5.284 1.895 11.517-.548 16.714-2.443 5.196-6.861 9.354-12.014 11.89-5.152 2.535-11 3.502-16.736 3.22-5.735-.28-11.368-1.776-16.684-3.946-14.13-5.767-26.187-16.47-33.589-29.816-7.402-13.346-10.096-29.242-7.507-44.282 2.59-15.04 10.447-29.119 21.886-39.22 11.44-10.102 26.383-16.156 41.627-16.865" transform="matrix(.846 0 0 .848 61.001 108.122)"/>
    <path fill="url(#c)" stroke="url(#b)" stroke-miterlimit="100" stroke-width="4" d="m211.145 311.683 48.192 125.415 107.22 13.384-5.89 48.02-131.63-21.96-30.54-142.017"/>
    <path fill="url(#c)" stroke="url(#b)" stroke-miterlimit="100" stroke-width="4" d="m274.22 281.453-51.343 110.436-98.176 27.628-20.553 66.442 125.948-54.314 59.182-111.609"/>
    <path fill="#ffcad9" stroke="url(#b)" stroke-dasharray="8,2" stroke-miterlimit="100" stroke-width="2" d="M72.66 276.448 38.496 410.822l31.945-29.76-20.304 95.268 61.804-86.863-15.683 50.552 61.941-99.545 1.552 77.439 33.793-88.155 6.551 67.924 25.794-84.437 17.677 94.075 1.033-86.952 35.482 59.677-18.677-85.69 31.366 42.203-36.887-101.708" style="font-variation-settings:normal"/>
    <path fill="url(#c)" stroke="url(#f)" stroke-miterlimit="100" stroke-width="6.384" d="M484.524 258.738c9.565-9.865 15.994-21.345 19.275-32.95.483 8.373.371 16.833-.349 25.31 13.34-9.123 22.677-21.494 26.446-33.582.158-.487.308-.976.451-1.466a58.9 58.9 0 0 1-.05 1.957c-.35 9.747-3.543 20.24-9.38 30.252 7.808-4.85 14.586-10.801 19.878-17.431 12.62-15.6 18.115-35.902 15.979-52.672-.94-10.098-4.826-20.7-9.582-31.77-4.985-11.355-11.905-23.064-19.415-36.132a1464.287 1464.287 0 0 1-4.604-7.93 630.515 630.515 0 0 0 8.203 6.564c6.071 4.791 12.059 9.39 17.878 14.05-2.441-5.792-5.112-11.721-7.887-17.84-6.39-13.864-13.408-28.798-19.658-45.587-6.329-16.684-11.22-35.473-12.924-56.402-2.387-34.662 5.988-69.746 24.664-100.31a174.346 174.346 0 0 1 45.981-49.625c-17.072 15.562-30.443 34.012-39.648 53.93a160.03 160.03 0 0 0-4.24 10.145 163.83 163.83 0 0 1 5.725-9.136 163.387 163.387 0 0 1 77.817-61.273 163.667 163.667 0 0 1 99.102-4.761 163.835 163.835 0 0 1 46.938 20.99c-16.544-6.059-33.517-9.18-50.044-9.512-8.173-.148-16.165.4-23.9 1.57a141.312 141.312 0 0 1 21.302 8.035c26.896 12.775 47.744 33.469 60.078 56.867-20.692-16.553-45.485-25.078-68.541-25.58a102.507 102.507 0 0 0-16.813.993c5.119 2.51 9.885 5.395 14.22 8.589a89.865 89.865 0 0 1 16.532 15.68c-6.085-3.017-12.459-5.34-18.918-6.857-17.786-4.263-37.398-2.72-53.986 4.081-16.618 6.72-31.422 19.142-40.78 34.005a80.251 80.251 0 0 0-2.129 3.544 70.72 70.72 0 0 1 4.26-2.096 73.759 73.759 0 0 1 17.223-5.43 72.72 72.72 0 0 0-10.766 9.819c-10.41 11.477-17.72 27.743-19.399 44.467-1.265 10.297.169 22.399 2.685 35.588.68 3.403 1.47 6.87 2.343 10.404-.085-3.805-.078-7.52.052-11.133.608-13.306 2.362-25.076 6.487-33.788-1.265 8.596-.229 19.25 1.734 31.283 2.246 12.827 6.323 27.032 10.595 42.67 4.457 15.793 8.841 33.091 11.579 51.76 2.853 18.566 3.052 38.751-.84 59.233-7.086 34.75-27.065 64.475-54.433 83.71a129.274 129.274 0 0 1-15.138 9.071 121.208 121.208 0 0 0 20.725-2.248c8.071-1.616 16.223-4.032 24.303-7.261a147.861 147.861 0 0 1-20.902 11.414c-12.736 5.58-25.641 8.952-38.258 10.406a193.865 193.865 0 0 0 17.13 14.76c-28.022 3.854-54.567-.799-76.198-11.077" style="font-variation-settings:normal" transform="matrix(.621 0 0 .632 77.984 432.826)"/>
    <path fill="url(#g)" stroke="url(#b)" stroke-miterlimit="100" stroke-width="4" d="m208.64 602.448 88.465-365.597 80.006 2.925-12.41 213.148 12.605 156.963" style="font-variation-settings:normal"/>
    <path fill="#ffcad9" stroke="url(#b)" stroke-miterlimit="100" stroke-width="6" d="M-294.849 262.776a30.625 27.482 0 0 1 30.088 10.904 30.625 27.482 0 0 1 2.28 29.047 30.625 27.482 0 0 1-28.087 14.581" style="font-variation-settings:normal" transform="scale(-1 1)"/>
    <path fill="url(#c)" stroke="url(#b)" stroke-miterlimit="100" stroke-width="4" d="m224.484 605.09-14.12-314.323-65.13 18.81-25.763 171.068L78.896 617.69" style="font-variation-settings:normal"/>
    <path fill="#ffcad9" stroke="url(#b)" stroke-miterlimit="100" stroke-width="6" d="M186.812 367.708a24.769 20.392 0 0 1-10.616 19.502 24.769 20.392 0 0 1-25.931.99m52.211-47.658a24.769 20.392 0 0 1 27.902 9.264 24.769 20.392 0 0 1-3.54 24.597 24.769 20.392 0 0 1-29.759 3.64" style="font-variation-settings:normal"/>
    <path fill="#ffcad9" stroke="url(#b)" stroke-miterlimit="100" stroke-width="2" d="m206.16 296.873-9.79 53.565 10.749-20.896-5.06 32.444 19.38-51.76" style="font-variation-settings:normal;-inkscape-stroke:none"/>
    <path fill="url(#h)" stroke="url(#i)" stroke-miterlimit="100" stroke-width="4" d="m80.49 204.268 22.796 111.923c67.207 5.672 132.896-13.305 174.607-39.868l-41.425-103.46"/>
    <path fill="url(#j)" stroke="url(#k)" stroke-miterlimit="100" stroke-width="6" d="m185.078 84.3 41.176-155.408 139.006 84.18" style="font-variation-settings:normal;-inkscape-stroke:none"/>
    <ellipse cx="-235.786" cy="94.624" fill="url(#l)" stroke="url(#m)" stroke-miterlimit="100" stroke-width="6" rx="74.958" ry="101.829" transform="scale(-1 1)"/>
    <ellipse cx="-323.95" cy="-355.034" fill="url(#n)" stroke="url(#b)" stroke-miterlimit="100" stroke-width="6" rx="53.083" ry="36.635" style="font-variation-settings:normal" transform="scale(1 -1) rotate(57.1)"/>
    <path fill="url(#o)" stroke="url(#p)" stroke-miterlimit="100" stroke-width="2" d="m95.28 263.695 19.07 120.952-19.018-66.288-11.83 119.125-9.201-82.723-26.823 90.458-10.098-76.281-42.874 72.496 42.839-128.82L9.307 362.51l20.372-86.603"/>
    <path fill="url(#q)" stroke="url(#b)" stroke-miterlimit="100" stroke-width="4" d="m158.453 362.627 14.425 88.612 34.703-41.877 30.234 25.96-82.5 86.037-21.73-151.287c-9.851-68.577 14.369-71.943 24.868-7.445z" style="font-variation-settings:normal"/>
    <path fill="url(#c)" stroke="url(#b)" stroke-dasharray="8,2" stroke-miterlimit="100" stroke-width="2" d="m287.408 238.79-23.013 16.785 26.35-.728-11.398 33.687 39.837-23.04-18.787 36.84 43.407-46.487-4.259 30.52 26.321-49.64" style="font-variation-settings:normal;-inkscape-stroke:none"/>
    <path fill="url(#r)" d="m597.003 184.013-30.23 107.697 41.683-80.684-5.435 88.878 30.39-92.979 1.596 53.013 56.168-80.765-14.137 88.997 50.423-125.953 19.098 131.505 6.41-136.557 55.93 112.721-24.325-114.482 85.705 101.254-23.978-61.134 47.792 60.346-29.74-72.277 34.364 30.787-24.6-53.083-.251 4.53a140.704 129.144 0 0 0-157.914-101.22 140.704 129.144 0 0 0-120.019 138.269Z" transform="translate(-566.726 57.195)"/>
    <path fill="none" stroke="url(#s)" stroke-miterlimit="100" stroke-width="2" d="M595.933 182.876A140.704 129.144 0 0 1 715.952 44.607a140.704 129.144 0 0 1 157.914 101.22" transform="translate(-566.726 57.195)"/>
    <path fill="none" stroke="url(#t)" stroke-miterlimit="100" stroke-width="2" d="m597.002 184.013-30.23 107.697 41.684-80.684-5.435 88.878 30.39-92.979 1.596 53.013 56.168-80.765-14.137 88.997 50.423-125.953 19.098 131.505 6.41-136.557 55.93 112.721-24.326-114.482 85.706 101.254-23.978-61.134 47.792 60.346-29.74-72.277 34.364 30.787-24.6-53.083" transform="translate(-566.725 57.195)"/>
    <path fill="url(#c)" stroke="url(#u)" stroke-miterlimit="100" stroke-width="2" d="m211.07 178.559-70.772 7.911 42.188 11.821-44.98 33.313 53.387-17.793-9.257 52.146 39.633-63.76" style="font-variation-settings:normal"/>
    <path fill="url(#c)" stroke="url(#v)" stroke-miterlimit="100" stroke-width="2" d="m458.64 143.41 38.58 166.096-39.912-71.114 15.615 152.645-36.416-110.644-4.1 134.316-24.016-102.051-11.299 88.51-34.923-179.066" style="font-variation-settings:normal;-inkscape-stroke:none"/>
    <path fill="url(#w)" stroke="url(#x)" stroke-miterlimit="100" stroke-width="4" d="M417.502 88.137 385.07 246.222c-74.474 6.195-147.266-14.532-193.487-43.544L243.485 59.36"/>
    <path fill="url(#y)" stroke="url(#z)" stroke-miterlimit="100" stroke-width="6" d="M50.488 244.294a84.78 114.782 0 0 1-85.447-58.986 84.78 114.782 0 0 1 9.88-129.165 84.78 114.782 0 0 1 92.561-34.027 84.78 114.782 0 0 1 56.774 104.662"/>
    <path fill="url(#A)" stroke="url(#B)" stroke-miterlimit="100" stroke-width="2" d="M957.24 3.067c6.644-14.393 8.494-30.95 5.19-46.455-3.302-15.505-11.74-29.871-23.672-40.307-14.047-12.286-32.873-18.957-51.52-18.257-18.65.7-36.922 8.763-50.009 22.066 25.25-7.506 53.635-3.701 76.017 10.188 25 15.514 41.871 43.42 43.994 72.765z" style="font-variation-settings:normal" transform="rotate(-17 847.505 2575.225)"/>
    <path fill="url(#C)" stroke="url(#D)" stroke-miterlimit="100" stroke-width="2" d="M33.777 194.308a35.27 49.872 0 0 1-21.142-61.94 35.27 49.872 0 0 1 42.713-32.9 35.27 49.872 0 0 1 25.336 58.71"/>
    <path fill="none" stroke="url(#E)" stroke-miterlimit="100" stroke-width="10" d="m91.925 228.744 70.26 33.625-68.557 52.436"/>
    <path fill="url(#F)" stroke="url(#b)" stroke-miterlimit="100" stroke-width="6" d="M200.113 422.145a48.34 31.903 0 0 1 34.178-32.667 48.34 31.903 0 0 1 55.936 14.598 48.34 31.903 0 0 1-8.917 39.26 48.34 31.903 0 0 1-59.964 3.132" style="font-variation-settings:normal"/>
    <path fill="#ffcad9" stroke="url(#b)" stroke-miterlimit="100" stroke-width="6" d="M-320.022 309.881a30.625 27.482 0 0 1-33.26 17.728" style="font-variation-settings:normal" transform="scale(-1 1)"/>
    <ellipse cx="522.206" cy="-230.274" fill="url(#G)" stroke="url(#b)" stroke-miterlimit="100" stroke-width="6" rx="48.339" ry="31.903" style="font-variation-settings:normal" transform="rotate(73.2)"/>
    <path fill="url(#H)" stroke="url(#b)" stroke-miterlimit="100" stroke-width="4" d="m352.243 302.241-18.601 106.643-31.551-27.482-34.74 29.81 92.203 72.716 24.97-173.727c11.318-78.748-19.842-81.962-32.28-7.96z" style="font-variation-settings:normal"/>
    <path fill="none" stroke="url(#I)" stroke-miterlimit="100" stroke-width="10" d="m251.335 197.87-34.545 52.75 48.287 24.849"/>
    <path fill="url(#J)" d="m1043.713 203.895-28.76 106.01 6.613-69.676-34.23 70.894 18.269-92.278-20.622 45.836 22.3-139.881-22.56 45.13 16.922-100.618-33.277 69.79 17.336-69.397-65.546 98.343 8.026-53.004-50.802 91.921 11.636-47.981-15.608 26.705 15.074-104.904-16.8 40.805 1.297-72.602-60.086 100.148 14.312-55.506-47.28 52.302 40.67-69.236-56.14 49.193 57.83-84.041 2.138-2.647a140.704 126.054 0 0 1 164.838-68.192 140.704 126.054 0 0 1 102.644 134.171Z" transform="translate(-628.716 38.702)"/>
    <path fill="none" stroke="url(#K)" stroke-miterlimit="100" stroke-width="2" d="m1043.713 203.895-28.76 106.01 6.613-69.676-34.23 70.894 18.269-92.278-20.622 45.836 22.3-139.881-22.56 45.13 16.922-100.618-33.277 69.79 17.336-69.397-65.546 98.343 8.026-53.004-50.802 91.921 11.636-47.981-15.608 26.705 15.074-104.904-16.8 40.805 1.297-72.602-60.086 100.148 14.312-55.506-47.28 52.302 40.67-69.236-56.14 49.193 57.83-84.041" transform="translate(-628.716 38.702)"/>
    <path fill="none" stroke="url(#L)" stroke-miterlimit="100" stroke-width="2" d="M831.347 26.018a140.704 126.054 0 0 1 164.838-68.192 140.704 126.054 0 0 1 102.644 134.17" transform="translate(-635.638 51.885)"/>
    <path fill="url(#M)" stroke="url(#N)" stroke-miterlimit="100" stroke-width="6" d="m357.778 10.779 205.512 68.42-98.665 102.32" style="font-variation-settings:normal;-inkscape-stroke:none"/>
    <g stroke-miterlimit="100" stroke-width="2">
      <path fill="url(#O)" stroke="url(#P)" d="M930.556 185.563a3.781 7.076 0 0 1-1.25 8.794 3.781 7.076 0 0 1-4.846-.784 3.781 7.076 0 0 1-.425-9.065" transform="translate(-628.637 40.255)"/>
      <path fill="url(#Q)" stroke="url(#R)" d="M937.21 185.819a3.781 7.076 0 0 1-1.25 8.794 3.781 7.076 0 0 1-4.846-.785 3.781 7.076 0 0 1-.425-9.065" transform="translate(-628.637 40.255)"/>
    </g>
    <path fill="none" stroke="url(#S)" stroke-miterlimit="100" stroke-width="10" d="m211.882 198.196 32.186-86.825 14.587 99.233" style="font-variation-settings:normal"/>
    <path fill="none" stroke="url(#T)" stroke-miterlimit="100" stroke-width="10" d="m333.669 221.904 33.87-94.641 17.316 106.245" style="font-variation-settings:normal"/>
    <path fill="url(#U)" stroke="url(#V)" stroke-miterlimit="100" stroke-width="4" d="M977.697 34.356c11.661-9.143 20.985-21.242 26.854-34.848 10.306-23.895 9.435-52.344-2.316-75.563 12.934 9.02 23.436 21.493 30.124 35.774 6.687 14.28 9.543 30.334 8.19 46.044-1.697 19.697-10.079 38.758-23.449 53.321" style="font-variation-settings:normal" transform="translate(-611.915 34.589)"/>
    <path fill="url(#W)" stroke="url(#X)" stroke-miterlimit="100" stroke-width="4" d="M977.697 34.356c11.661-9.143 20.985-21.242 26.854-34.848 10.306-23.895 9.435-52.344-2.316-75.563 12.934 9.02 23.436 21.493 30.124 35.774 6.687 14.28 9.543 30.334 8.19 46.044-1.697 19.697-10.079 38.758-23.449 53.321" style="font-variation-settings:normal" transform="scale(-1 1) rotate(-21.3 398.56 3397.188)"/>
    <path fill="url(#Y)" stroke="url(#Z)" stroke-miterlimit="100" stroke-width="2" d="m466.056 175.9 43.65 8.45-43.099 3.985 11.194 29.163-51.905-43.657 73.52-59.463z" style="font-variation-settings:normal"/>
    <path fill="none" stroke="url(#aa)" stroke-miterlimit="100" stroke-width="4" d="M629.47 257.706a27.39 27.39 0 0 0 13.56-3.469 27.39 27.39 0 0 0 10.047-9.744c1.177-1.96 2.11-4.08 2.592-6.314.481-2.235.5-4.587-.11-6.79-.61-2.202-1.868-4.246-3.668-5.655-1.8-1.409-4.148-2.147-6.415-1.86-2.128.27-4.102 1.425-5.504 3.049-1.402 1.623-2.248 3.688-2.553 5.812-.609 4.246.89 8.537 2.982 12.282 2.346 4.195 5.493 7.978 9.387 10.795 3.894 2.818 8.551 4.642 13.35 4.906 4.8.265 9.723-1.082 13.541-4 3.819-2.92 6.447-7.438 6.802-12.23.19-2.571-.287-5.252-1.72-7.395-.717-1.07-1.666-1.993-2.786-2.632s-2.41-.988-3.698-.948c-1.384.043-2.74.535-3.87 1.335-1.13.8-2.037 1.898-2.671 3.129-1.268 2.461-1.427 5.376-.961 8.105a19.257 19.257 0 0 0 5.104 10.077 19.257 19.257 0 0 0 9.9 5.437c3.745.768 7.718.38 11.242-1.1a19.257 19.257 0 0 0 8.659-7.254" style="font-variation-settings:normal" transform="matrix(-1 0 0 1 750.648 57.228)"/>
    <path fill="none" stroke="url(#ab)" stroke-miterlimit="100" stroke-width="4" d="M819.207 226.935a18.25 18.25 0 0 0 9.084.637 18.25 18.25 0 0 0 8.25-3.854 18.25 18.25 0 0 0 5.341-7.375 18.25 18.25 0 0 0 1.09-9.04c-.278-2.06-.927-4.102-2.137-5.79-1.21-1.69-3.021-3-5.069-3.355-1.631-.282-3.348.056-4.799.853-1.45.798-2.639 2.04-3.457 3.48-1.636 2.879-1.763 6.422-1.042 9.654 1.055 4.734 3.886 9.06 7.833 11.878 3.946 2.819 8.977 4.094 13.783 3.443 4.806-.65 9.333-3.232 12.298-7.07 2.966-3.837 4.324-8.89 3.629-13.69-.309-2.13-1.032-4.251-2.417-5.899-.693-.823-1.546-1.519-2.516-1.985-.97-.467-2.057-.7-3.13-.623-1.222.088-2.401.579-3.362 1.337-.96.759-1.703 1.778-2.187 2.902-.967 2.248-.882 4.844-.197 7.194 1.354 4.642 5.09 8.52 9.678 10.045 4.589 1.526 9.902.659 13.767-2.248" style="font-variation-settings:normal" transform="translate(-565.368 55.072)"/>
    <path fill="url(#c)" stroke="url(#ac)" stroke-miterlimit="100" stroke-width="2" d="m418.231 166.576 51.679-20.68-34.846 29.534 60.318 23.102-76.304-8.364" style="font-variation-settings:normal;-inkscape-stroke:none"/>
    <ellipse cx="280.599" cy="210.73" fill="url(#c)" stroke="url(#ad)" stroke-miterlimit="100" stroke-width="2" rx="3.751" ry="2.685" style="font-variation-settings:normal;-inkscape-stroke:none"/>
    <ellipse cx="197.603" cy="282.773" fill="url(#c)" stroke="url(#ae)" stroke-miterlimit="100" stroke-width="2" rx="3.751" ry="2.685" style="font-variation-settings:normal;-inkscape-stroke:none"/>
    <path fill="none" stroke="url(#af)" stroke-miterlimit="100" stroke-width="4" d="m393.503 228.724 17.418-10.228-5.872 19.432 33.984-20.299-3.97 20.089 16.626-11.027" style="font-variation-settings:normal;-inkscape-stroke:none"/>
    <path fill="none" stroke="url(#ag)" stroke-miterlimit="100" stroke-width="4" d="m158.213 184.139 24.805-15.461-9.233 26.906 32.582-28.757-7.52 30.265 11.634-8.08" style="font-variation-settings:normal"/>
    <path fill="none" stroke="url(#ah)" stroke-miterlimit="100" stroke-width="2" d="m392.296 269.876-22.88-39.025" style="font-variation-settings:normal"/>
    <path fill="none" stroke="url(#ai)" stroke-miterlimit="100" stroke-width="2" d="M411.654 258.855 381.6 228.899" style="font-variation-settings:normal"/>
    <path fill="none" stroke="url(#aj)" stroke-miterlimit="100" stroke-width="2" d="m199.031 216.366 24.246-13.744" style="font-variation-settings:normal"/>
    <path fill="none" stroke="url(#ak)" stroke-miterlimit="100" stroke-width="2" d="m181.486 194.781 27.292-2.361" style="font-variation-settings:normal"/>
    <path fill="none" stroke="url(#al)" stroke-miterlimit="100" stroke-width="4" d="m93.303 325.175-96.985 62.07" style="font-variation-settings:normal"/>
    <path fill="none" stroke="url(#am)" stroke-miterlimit="100" stroke-width="4" d="m78.375 314.678-91.064 38.184" style="font-variation-settings:normal"/>
    <ellipse cx="191.843" cy="304.189" fill="url(#b)" rx="1.582" ry="4.369" style="font-variation-settings:normal"/>
    <path fill="url(#an)" stroke="url(#b)" stroke-miterlimit="100" stroke-width="6" d="M-317.326 401.004a53.083 36.635 0 0 1 32.19-40.79 53.083 36.635 0 0 1 64.272 13.776 53.083 36.635 0 0 1-6.955 46.199 53.083 36.635 0 0 1-67.003 4.362" style="font-variation-settings:normal" transform="scale(-1 1)"/>
    <path fill="none" stroke="url(#b)" stroke-miterlimit="100" stroke-width="4" d="m290.055 512.674 2.614 23.245M170.84 538.9l-6.49 21.912" style="font-variation-settings:normal"/>
    <path fill="url(#b)" d="M640 128a204.68 204.68 0 0 1-32-32c-7.543-9.434-14.439-20.022-16-32-.828-6.353-.068-12.974 2.647-18.778C597.362 39.42 602.098 34.493 608 32c6.24-2.636 13.627-2.4 19.685.63 6.059 3.028 10.68 8.797 12.315 15.37 1.635-6.573 6.256-12.342 12.315-15.37C658.373 29.6 665.76 29.363 672 32c5.902 2.493 10.638 7.42 13.353 13.222C688.068 51.026 688.828 57.647 688 64c-1.561 11.978-8.457 22.566-16 32a204.68 204.68 0 0 1-32 32z" transform="rotate(-33.7 534.128 670.051) scale(.474)"/>
    <path fill="url(#b)" d="M640 128a204.68 204.68 0 0 1-32-32c-7.543-9.434-14.439-20.022-16-32-.828-6.353-.068-12.974 2.647-18.778C597.362 39.42 602.098 34.493 608 32c6.24-2.636 13.627-2.4 19.685.63 6.059 3.028 10.68 8.797 12.315 15.37 1.635-6.573 6.256-12.342 12.315-15.37C658.373 29.6 665.76 29.363 672 32c5.902 2.493 10.638 7.42 13.353 13.222C688.068 51.026 688.828 57.647 688 64c-1.561 11.978-8.457 22.566-16 32a204.68 204.68 0 0 1-32 32z" transform="rotate(-49.3 451.03 542.386) scale(.474)"/>
    <path fill="url(#b)" d="M640 128a204.68 204.68 0 0 1-32-32c-7.543-9.434-14.439-20.022-16-32-.828-6.353-.068-12.974 2.647-18.778C597.362 39.42 602.098 34.493 608 32c6.24-2.636 13.627-2.4 19.685.63 6.059 3.028 10.68 8.797 12.315 15.37 1.635-6.573 6.256-12.342 12.315-15.37C658.373 29.6 665.76 29.363 672 32c5.902 2.493 10.638 7.42 13.353 13.222C688.068 51.026 688.828 57.647 688 64c-1.561 11.978-8.457 22.566-16 32a204.68 204.68 0 0 1-32 32z" transform="matrix(-.394 -.263 -.263 .394 797.557 426)"/>
    <path fill="url(#b)" d="M640 128a204.68 204.68 0 0 1-32-32c-7.543-9.434-14.439-20.022-16-32-.828-6.353-.068-12.974 2.647-18.778C597.362 39.42 602.098 34.493 608 32c6.24-2.636 13.627-2.4 19.685.63 6.059 3.028 10.68 8.797 12.315 15.37 1.635-6.573 6.256-12.342 12.315-15.37C658.373 29.6 665.76 29.363 672 32c5.902 2.493 10.638 7.42 13.353 13.222C688.068 51.026 688.828 57.647 688 64c-1.561 11.978-8.457 22.566-16 32a204.68 204.68 0 0 1-32 32z" transform="matrix(-.229 -.415 -.415 .229 699.196 469.735)"/>
  </g>
</svg>
